<?xml version="1.0" encoding="utf-8"?>
<!-- Generator: Adobe Illustrator 25.4.1, SVG Export Plug-In . SVG Version: 6.00 Build 0)  -->
<svg version="1.1" id="Layer_1" xmlns="http://www.w3.org/2000/svg" xmlns:xlink="http://www.w3.org/1999/xlink" x="0px" y="0px"
	 viewBox="0 0 100 100" style="enable-background:new 0 0 100 100;" xml:space="preserve">
<style type="text/css">
	.st0{fill:#FFFFFF;stroke:#FFFFFF;stroke-width:3;stroke-miterlimit:10;}
	.st1{fill:#FFFFFF;}
</style>
<g>
	<rect x="32" y="80.7" transform="matrix(0.7071 0.7071 -0.7071 0.7071 68.4477 -1.137)" class="st0" width="7.2" height="2.6"/>
	
		<rect x="34.4" y="77.7" transform="matrix(0.7071 -0.7071 0.7071 0.7071 -43.1447 53.8328)" class="st0" width="17.9" height="2.6"/>
</g>
<g>
	<rect x="32" y="57.9" transform="matrix(0.7071 0.7071 -0.7071 0.7071 52.3116 -7.8208)" class="st0" width="7.2" height="2.6"/>
	
		<rect x="34.4" y="54.9" transform="matrix(0.7071 -0.7071 0.7071 0.7071 -27.0086 47.149)" class="st0" width="17.9" height="2.6"/>
</g>
<g>
	<rect x="32" y="35.1" transform="matrix(0.7071 0.7071 -0.7071 0.7071 36.1754 -14.5046)" class="st0" width="7.2" height="2.6"/>
	
		<rect x="34.4" y="32.1" transform="matrix(0.7071 -0.7071 0.7071 0.7071 -10.8724 40.4652)" class="st0" width="17.9" height="2.6"/>
</g>
<path class="st1" d="M60.4,87.6c-1.6,0-3.2,0-4.8,0c-1.6,0-2.8-1.2-2.8-2.9c0-1.7,1.1-2.9,2.7-2.9c3.2,0,6.5,0,9.7,0
	c1.6,0,2.8,1.2,2.8,2.9c0,1.7-1.2,2.9-2.8,2.9C63.7,87.6,62,87.6,60.4,87.6z"/>
<path class="st1" d="M78.4,72.8c0,5.8,0,11.5,0,17.3c0,2.5-0.9,3.6-3.1,3.6c-19.1,0-38.2,0-57.2,0c-0.3,0-0.6,0-0.9,0
	c0-0.4,0-0.6,0-0.9c0-26.7,0-53.5,0-80.2c0-3.1,1.5-5.4,3.9-6.1c3.1-0.8,6,1.7,6.2,5.3c0.1,0.9,0,1.8,0,2.7c0,2.3,1,3.4,3,3.4
	c15.7,0,31.4,0,47.1,0c0.3,0,0.7,0,1.1,0c0,0.4,0,0.7,0,1.1c0,4.1,0,8.2,0,12.2c1.8,0.8,3.5,1.8,5.1,3.1c0-5,0-10,0-15
	c0-0.4,0-0.8,0-1.4c0.8,0,1.5,0,2.3,0c1.8,0,2.8-1.2,2.8-3.2c0-2.5,0.1-5-0.9-7.3c-1.6-3.7-4.1-6.1-7.7-6.8c-0.1,0-0.3-0.1-0.4-0.2
	c-19.5,0-39.1,0-58.6,0c-1.6,0.4-3.2,0.9-4.6,2.1C13.5,5,12,8.2,12,12.3c0,8,0,15.9,0,23.9C12,49.1,12,62,12,75c0,0.4,0,0.8,0,1.3
	c-0.3,0-0.5,0.1-0.7,0.1c-2,0-4,0.1-6,0c-1.6-0.1-2.7,0.5-3.4,2.2c0,2.7,0,5.4,0,8.1c0.4,1.6,0.7,3.3,1.4,4.8
	c2.2,5.1,5.9,7.8,10.9,8.1c1.4,0.1,2.7,0,4.1,0c19,0,38.1,0,57.2,0c3.3,0,5.8-1.5,7.4-4.9c0.6-1.4,0.8-2.9,0.8-4.5
	c0-6.6,0-13.1,0-19.7c-0.1-0.1-0.2-0.2-0.3-0.4C81.7,71.2,80.1,72.1,78.4,72.8z M31.7,6.3c15.4,0,30.9,0,46.3,0
	c3.1,0,5.3,2.3,5.4,5.7c-17,0-34,0-50.9,0c-0.5-2-0.9-3.8-1.3-5.7C31.3,6.3,31.5,6.3,31.7,6.3z M11.9,93.1c-3.5-1.2-5.3-5-5-11
	c0.8,0,1.7,0,2.5,0c0.8,0,1.6,0,2.5,0C11.9,85.8,11.9,89.4,11.9,93.1z"/>
<path class="st1" d="M97.1,75.4c-3.1-3-6.1-6.1-9.1-9.1c-0.2-0.2-0.3-0.4-0.5-0.5C95,55.6,92.9,42,83.8,34.5
	c-0.1-0.1-0.2-0.2-0.3-0.2c-1.6-1.3-3.3-2.3-5.1-3.1c-8.2-3.6-17.8-2-24.7,4.4c-8.2,7.8-9.3,20.6-2.6,29.8c6,8.3,17.5,11.7,27.3,7.4
	c1.7-0.7,3.3-1.7,4.8-2.8c0.1,0.1,0.2,0.2,0.3,0.4c0.1,0.1,0.1,0.2,0.2,0.3c3,3,6,6,8.9,8.9c0.2,0.2,0.4,0.4,0.7,0.6
	c1.7,1.3,4.2,0.5,4.8-1.6C98.4,77.3,98,76.3,97.1,75.4z M83.5,60.7c-1.3,2.1-3,3.9-5.1,5.2c-2.6,1.7-5.7,2.7-9,2.7
	c-9.2,0-16.6-7.4-16.6-16.6c0-9.2,7.4-16.5,16.5-16.5c3.3,0,6.4,1,9,2.7c2.1,1.3,3.8,3.1,5.1,5.2c1.5,2.5,2.5,5.5,2.5,8.7
	C85.9,55.2,85,58.2,83.5,60.7z"/>
</svg>
