<?xml version="1.0" encoding="utf-8"?>
<!-- Generator: Adobe Illustrator 25.4.1, SVG Export Plug-In . SVG Version: 6.00 Build 0)  -->
<svg version="1.1" id="Layer_1" xmlns="http://www.w3.org/2000/svg" xmlns:xlink="http://www.w3.org/1999/xlink" x="0px" y="0px"
	 viewBox="0 0 100 100" style="enable-background:new 0 0 100 100;" xml:space="preserve">
<style type="text/css">
	.st0{fill:#FFFFFF;stroke:#FFFFFF;stroke-width:2;stroke-miterlimit:10;}
</style>
<g>
	<path class="st0" d="M97.5,68.2c-0.2,2-0.4,3.9-0.8,5.9c-0.4,2-0.9,3.9-1.4,5.8c-0.3,1.3-1,1.7-2.3,1.8c-0.3,0-0.6,0-0.8,0
		c-28.1,0-56.2,0-84.3,0c-2.5,0-2.8-0.2-3.4-2.6c-1.7-5.9-2.3-11.8-1.7-17.9c1-9.8,4.6-18.5,11-26c7-8.3,15.9-13.7,26.6-15.8
		c15-3,28.6,0.4,40.4,10.3c8.9,7.5,14.3,17.2,16.2,28.7c0.3,1.5,0.4,3.1,0.6,4.7C97.5,64.7,97.5,66.4,97.5,68.2z M73.4,29.2
		c-1,1.7-1.9,3.3-2.8,4.9c-0.6,1.1-1.7,1.4-2.7,0.9c-1-0.5-1.3-1.7-0.8-2.8c0.4-0.7,0.8-1.4,1.2-2.1c0.5-1,1.1-1.9,1.7-2.9
		c-5.7-2.9-11.6-4.5-18-4.8c0,1,0,1.9,0,2.8c0,1.1,0,2.2-0.1,3.3c-0.1,1-0.9,1.6-1.9,1.6c-1,0-1.8-0.6-1.9-1.6
		C48,27.2,48,25.8,48,24.4c0-0.7,0-1.3,0-2c-5.6,0-14.7,2.5-18,4.8c0.2,0.3,0.4,0.6,0.5,1c0.8,1.3,1.5,2.6,2.3,3.9
		c0.4,0.8,0.4,1.6-0.2,2.3c-0.5,0.6-1.3,0.9-2,0.6c-0.5-0.2-1-0.7-1.3-1.2c-1-1.5-1.8-3.1-2.8-4.7c-5.4,3.5-9.7,7.8-13.2,13.2
		c0.7,0.4,1.4,0.8,2,1.2c1.1,0.6,2.2,1.2,3.2,2c0.9,0.6,1,1.7,0.4,2.6c-0.5,0.8-1.5,1.1-2.4,0.7c-0.4-0.2-0.8-0.4-1.1-0.6
		c-1.4-0.8-2.8-1.6-4.1-2.4c-3,5.3-4.9,13.3-4.8,18c0.3,0,0.6,0,0.9,0c1.5,0,3,0,4.5,0c1.4,0,2.2,0.8,2.3,1.9c0,1.2-0.9,2-2.3,2
		c-0.9,0-1.9,0-2.8,0c-0.9,0-1.8,0-2.9,0c0.5,3.4,1,6.6,1.5,9.9c0.6,0,1,0,1.4,0c27.1,0,54.2,0,81.3,0c0.2,0,0.5,0.1,0.7,0
		c0.2-0.1,0.6-0.3,0.6-0.5c0.9-3,1.3-6.1,1.4-9.4c-1.8,0-3.4,0-5.1,0c-1.7,0-2.6-0.7-2.6-2c0-1.2,0.9-2,2.6-2c0.6,0,1.2,0,1.9,0
		c1.1,0,2.2,0,3.3,0c-0.3-6.4-1.9-12.4-4.8-18c-0.4,0.2-0.7,0.4-1,0.5c-1.4,0.8-2.7,1.6-4.1,2.3c-0.7,0.4-1.6,0.5-2.1-0.2
		c-0.4-0.5-0.8-1.3-0.7-1.8c0.1-0.6,0.7-1.2,1.2-1.6c1.5-1,3.1-1.8,4.7-2.7C83.1,37,78.8,32.7,73.4,29.2z"/>
	<path class="st0" d="M46.1,66.1c0-1.6,0.6-2.6,1.6-3.4c5.9-5.2,11.9-10.4,17.8-15.7c1.6-1.4,3.2-2.8,4.8-4.2c0.9-0.8,2-0.9,2.8-0.2
		c0.9,0.8,0.9,1.9,0,3c-2.1,2.4-4.2,4.7-6.2,7.1c-4.5,5.2-9.1,10.3-13.6,15.4c-1.1,1.3-2.4,1.9-4.1,1.5c-1.5-0.3-2.4-1.3-2.9-2.7
		C46.1,66.6,46.1,66.2,46.1,66.1z"/>
</g>
</svg>
