<?xml version="1.0" encoding="utf-8"?>
<!-- Generator: Adobe Illustrator 25.4.1, SVG Export Plug-In . SVG Version: 6.00 Build 0)  -->
<svg version="1.1" id="Layer_1" xmlns="http://www.w3.org/2000/svg" xmlns:xlink="http://www.w3.org/1999/xlink" x="0px" y="0px"
	 viewBox="0 0 100 100" style="enable-background:new 0 0 100 100;" xml:space="preserve">
<style type="text/css">
	.st0{fill:#5B6571;}
	.st1{fill:none;stroke:#FFFFFF;stroke-width:5;stroke-linecap:round;stroke-linejoin:round;stroke-miterlimit:10;}
	.st2{fill:none;}
	.st3{fill:#FFFFFF;stroke:#FFFFFF;stroke-width:2;stroke-miterlimit:10;}
</style>
<circle class="st0" cx="50" cy="50" r="49.2"/>
<polyline class="st1" points="53.5,56.4 66.1,56.4 66.1,46.7 81.4,62 66.4,77 66.4,65.7 53.5,65.7 "/>
<path class="st2" d="M47.5,50.3c-0.9,0.9-0.9,2.3,0,3.2c0.9,0.9,2.3,0.9,3.2,0c0.9-0.8,0.9-2.3,0-3.2C49.7,49.4,48.4,49.4,47.5,50.3
	z"/>
<path class="st3" d="M30.5,71.9c-5.8-4.8-9.3-11-10.4-18.5C18,38,28.1,23.7,43.4,20.5c14.9-3.1,29.8,6.2,34,20.6h3.1
	c-3-10.8-11.3-19.5-22.1-22.7c-17.5-5.2-35.9,5.1-40.4,22.8c-3.2,12.5,1.3,25.9,11.7,33.7c6.6,5,14,7.2,22.1,6.5v-2.9
	C43.8,79.1,36.7,76.9,30.5,71.9z"/>
<path class="st3" d="M37.6,46c2.5,0,5.1,0,7.6,0c0.3,0,0.5-0.1,0.7-0.4c3.2-5.6,6.4-11.3,9.6-16.9c0.4-0.8,1.1-1.2,2-1.1
	c1.2,0.1,2,1.4,1.5,2.5c-0.1,0.2-0.2,0.4-0.3,0.6c-3.4,5.9-6.7,11.9-10.1,17.8c-0.5,0.9-1.2,1.3-2.2,1.3c-5.5,0-10.9,0-16.4,0
	c-1.2,0-2-0.6-2.2-1.7c-0.1-0.9,0.5-1.8,1.4-2c0.2-0.1,0.5-0.1,0.8-0.1C32.6,46,35.1,46,37.6,46z"/>
</svg>
