<?xml version="1.0" encoding="UTF-8"?>
<svg width="752pt" height="752pt" version="1.1" viewBox="0 0 752 752" xmlns="http://www.w3.org/2000/svg">
 <g>
  <path d="m495.44 200.75h-50.078c2.3867 3.9219 3.8047 8.5117 3.8047 13.441 0 4.3008-1.0742 8.3477-2.9375 11.926h54.84v337.64h-0.003906l-250.13-0.003906v-337.63h56.84c-1.2305-2.3633-2.0742-4.9375-2.5352-7.6523-0.23828-1.3906-0.40234-2.8125-0.40234-4.2734 0-4.9297 1.4102-9.5195 3.8047-13.441h-52.086c-13.539 0-24.559 11.02-24.559 24.566v339.24c0 13.535 11.02 24.566 24.559 24.566h238.88c13.543 0 24.57-11.02 24.57-24.566v-339.25c-0.007813-13.547-11.023-24.562-24.57-24.562z"/>
  <path d="m326.87 265.75h145.01v12.062h-145.01z"/>
  <path d="m326.87 285.7h72.504v12.066h-72.504z"/>
  <path d="m326.87 323.22h145.01v12.059h-145.01z"/>
  <path d="m326.87 344h72.504v12.062h-72.504z"/>
  <path d="m326.87 381.52h145.01v12.062h-145.01z"/>
  <path d="m326.87 401.48h72.504v12.059h-72.504z"/>
  <path d="m326.87 439h145.01v12.059h-145.01z"/>
  <path d="m326.87 458.95h72.504v12.062h-72.504z"/>
  <path d="m326.87 497.3h145.01v12.059h-145.01z"/>
  <path d="m326.87 517.2h72.504v12.062h-72.504z"/>
  <path d="m293.27 265.75c-8.8281 0-15.984 7.1562-15.984 15.984 0 8.8242 7.1562 15.98 15.984 15.98 8.8242 0 15.973-7.1562 15.973-15.98-0.003906-8.832-7.1484-15.984-15.973-15.984zm10.551 12.727-13.09 10.207c-0.015624 0.007812-0.03125 0.007812-0.046874 0.023437-0.1875 0.13672-0.38281 0.24219-0.59375 0.31641-0.039063 0.003907-0.082032 0.019531-0.11719 0.03125-0.21484 0.066407-0.44141 0.10938-0.66016 0.10938h-0.003906c-0.16406 0-0.31641-0.019531-0.48438-0.050781-0.042968-0.015625-0.085937-0.027344-0.13672-0.042969-0.10938-0.027344-0.21484-0.066406-0.31641-0.10547-0.058594-0.027344-0.10547-0.058594-0.16016-0.089844-0.085937-0.046875-0.17188-0.097656-0.25391-0.16016-0.050781-0.039063-0.10547-0.074219-0.15625-0.12891-0.03125-0.023437-0.074219-0.046875-0.10547-0.074219l-5.1797-5.0586c-0.45312-0.44531-0.6875-1.0391-0.69141-1.6289-0.003906-0.59375 0.20703-1.1836 0.66016-1.6367 0.89453-0.91406 2.3555-0.93359 3.2617-0.042969l3.7422 3.6562 11.504-8.9648c1.0039-0.78516 2.4531-0.60547 3.2383 0.39844 0.39453 0.50391 0.54297 1.1172 0.47266 1.7031-0.082031 0.58984-0.375 1.1484-0.88281 1.5391z"/>
  <path d="m293.27 355.18c8.8242 0 15.973-7.1523 15.973-15.98 0-8.8242-7.1523-15.98-15.973-15.98-8.8281 0-15.984 7.1523-15.984 15.98 0.003906 8.8281 7.1562 15.98 15.984 15.98zm-10.793-17.523c0.007813-0.003906 0.007813-0.003906 0 0 0.89844-0.91797 2.3594-0.93359 3.2695-0.042969l3.7422 3.6484 11.5-8.9609c1.0039-0.78516 2.4531-0.60156 3.2422 0.39844 0.59375 0.75391 0.63281 1.7617 0.19531 2.5469-0.10547 0.1875-0.26953 0.33984-0.42188 0.49219-0.066406 0.0625-0.097656 0.14062-0.17578 0.19922l-13.09 10.195c-0.015625 0.019532-0.03125 0.019532-0.046875 0.023438-0.1875 0.13672-0.38281 0.24219-0.59375 0.31641-0.039062 0.015625-0.082031 0.023438-0.11719 0.039063-0.21484 0.066406-0.44141 0.10938-0.66016 0.10938h-0.003906c-0.16406 0-0.31641-0.019532-0.48438-0.050782-0.042969-0.015624-0.085937-0.027343-0.13672-0.042968-0.10938-0.027344-0.21484-0.066406-0.31641-0.10938-0.058594-0.023438-0.10547-0.050781-0.16016-0.085938-0.085938-0.046875-0.17188-0.097656-0.25391-0.16016-0.050782-0.039063-0.10547-0.082031-0.15625-0.125-0.03125-0.027344-0.074219-0.050781-0.10547-0.082031l-5.1797-5.0586c-0.91797-0.87891-0.9375-2.3398-0.046875-3.25z"/>
  <path d="m293.27 381.52c-8.8242 0-15.98 7.1562-15.98 15.98 0 5.5117 2.793 10.375 7.043 13.25 0.29297 0.19531 0.625 0.32812 0.93359 0.50391 0.58594 0.33984 1.1562 0.69922 1.7812 0.96484 1.9141 0.80859 4.0156 1.2578 6.2188 1.2578 8.8281 0 15.98-7.1562 15.98-15.98 0-8.8203-7.1484-15.977-15.977-15.977z"/>
  <path d="m309.24 454.97c0 8.8203-7.1523 15.973-15.977 15.973-8.8203 0-15.973-7.1523-15.973-15.973 0-8.8242 7.1523-15.977 15.973-15.977 8.8242 0 15.977 7.1523 15.977 15.977"/>
  <path d="m280.02 522.21c2.8711 4.2539 7.7344 7.0469 13.25 7.0469 8.8281 0 15.98-7.1562 15.98-15.984 0-8.8242-7.1523-15.973-15.98-15.973-8.8242 0-15.98 7.1523-15.98 15.973 0.003906 3.3164 1.0078 6.3828 2.7305 8.9375z"/>
  <path d="m330.74 231.3h92.52c9.4336 0 17.105-7.6758 17.105-17.109 0-9.4375-7.6719-17.113-17.105-17.113h-5.8477c-0.29297-1.7422-0.66406-3.4531-1.168-5.1133-0.38281-1.25-0.84375-2.4727-1.3359-3.6719-6.1719-14.887-20.828-25.398-37.91-25.398s-31.734 10.512-37.891 25.395v0.003906c-0.49219 1.1992-0.95703 2.4219-1.332 3.6641-0.50781 1.6641-0.875 3.375-1.168 5.1211h-5.8633c-9.4336 0-17.105 7.6758-17.105 17.113-0.003906 9.4336 7.6719 17.109 17.102 17.109zm26.203-39.34c0.78906-1.3203 1.7422-2.5352 2.7617-3.6719 4.2734-4.7656 10.398-7.8203 17.289-7.8203 6.8945 0 13.023 3.0547 17.289 7.8203 1.0312 1.1406 1.9805 2.3477 2.7656 3.6719 0.95312 1.5898 1.6914 3.3086 2.2578 5.1133h-44.617c0.5625-1.8047 1.3008-3.5195 2.2539-5.1133z"/>
 </g>
</svg>
