<?xml version="1.0" encoding="utf-8"?>
<!-- Generator: Adobe Illustrator 25.4.1, SVG Export Plug-In . SVG Version: 6.00 Build 0)  -->
<svg version="1.1" id="Layer_1" xmlns="http://www.w3.org/2000/svg" xmlns:xlink="http://www.w3.org/1999/xlink" x="0px" y="0px"
	 viewBox="0 0 100 100" style="enable-background:new 0 0 100 100;" xml:space="preserve">
<style type="text/css">
	.st0{fill:#6FCE2B;}
	.st1{fill:#5B6571;}
</style>
<g>
	
		<rect x="34.2" y="55.3" transform="matrix(0.7071 -0.7071 0.7071 0.7071 -33.8764 44.8347)" class="st0" width="5.9" height="16.1"/>
	
		<rect x="34.5" y="53.6" transform="matrix(0.7071 -0.7071 0.7071 0.7071 -23.8628 55.2154)" class="st0" width="40.4" height="5.7"/>
</g>
<path class="st1" d="M76.2,12.4c0,1.1-0.4,2.1-1.1,2.8h3.9v70.9h4.4V15c0-3.1-2.6-5.7-5.7-5.7l0,0h-3C75.6,10,76.2,11.1,76.2,12.4z"
	/>
<path class="st1" d="M79.1,93.6L79.1,93.6H21V15.2h4.3c-0.7-0.7-1.1-1.7-1.1-2.8c0-1.3,0.6-2.4,1.5-3.1h-3.4c-3.1,0-5.7,2.6-5.7,5.7
	v78.8c0,3.1,2.6,5.7,5.7,5.7h55.5c3.1,0,5.7-2.6,5.7-5.7v-10h-4.4V93.6z"/>
<path class="st1" d="M24.2,12.4c0,1.1,0.4,2.1,1.1,2.8s1.7,1.2,2.8,1.2l0,0h44.1c1.1,0,2.1-0.5,2.8-1.2c0.7-0.7,1.1-1.7,1.1-2.8
	c0-1.3-0.6-2.4-1.5-3.1c-0.7-0.5-1.5-0.9-2.4-0.9H59.6c-0.1-0.4-0.2-0.8-0.3-1.2c0-0.2-0.1-0.5-0.3-0.8c-1.4-3.5-4.8-5.9-8.8-5.9
	s-7.4,2.4-8.8,5.9l0,0c-0.1,0.3-0.2,0.6-0.3,0.9C41,7.6,41,8,40.8,8.4H28.1c-0.9,0-1.8,0.3-2.4,0.9C24.8,10,24.2,11.1,24.2,12.4z
	 M45.6,7.3C45.8,7,46,6.7,46.2,6.4c1-1.1,2.4-1.8,4-1.8s3,0.7,4,1.8c0.2,0.3,0.5,0.5,0.6,0.9c0.2,0.4,0.4,0.8,0.5,1.2H45
	C45.2,8,45.5,7.6,45.6,7.3z"/>
</svg>
