<?xml version="1.0" encoding="utf-8"?>
<!-- Generator: Adobe Illustrator 25.4.1, SVG Export Plug-In . SVG Version: 6.00 Build 0)  -->
<svg version="1.1" id="Layer_1" xmlns="http://www.w3.org/2000/svg" xmlns:xlink="http://www.w3.org/1999/xlink" x="0px" y="0px"
	 viewBox="0 0 100 100" style="enable-background:new 0 0 100 100;" xml:space="preserve">
<style type="text/css">
	.st0{fill:#6FCE2B;}
	.st1{fill:#5B6571;}
</style>
<g>
	
		<rect x="32.5" y="47.9" transform="matrix(0.7071 -0.7071 0.7071 0.7071 -27.8884 40.2771)" class="st0" width="4.4" height="11.8"/>
	
		<rect x="32.8" y="46.6" transform="matrix(0.7071 -0.7071 0.7071 0.7071 -20.4716 47.945)" class="st0" width="29.7" height="4.2"/>
</g>
<path class="st1" d="M81.4,45.8c1.5,0.9,1.6,2.5,0.4,4.1c-0.4,0.5-0.5,1.2-0.8,1.8c-0.4,1.2-0.6,2.7-1.3,3.7c-1,1.4-0.8,2.8-0.5,4.2
	c0.1,0.6,1.1,1.2,1.8,1.5c2.6,1.1,5.3,1.8,7.8,3c2.7,1.3,4.4,3.4,3.9,6.7c-0.2,1.5,0,3.1,0,4.7c-12.5,0-24.8,0-37.2,0
	c0-2.5-0.2-5.1,0.1-7.5c0.1-1.1,1.3-2.2,2.2-3c2.5-2,5.5-3.3,8.6-3.7c2.9-0.4,3-3.1,2-5.5c-0.3-0.7-0.9-1.4-1.1-2.2
	c-0.4-1.7-0.5-3.3-1.6-4.8c-0.6-0.8-0.7-2.1,0.5-2.9c0.2-0.1,0.2-0.6,0.2-1c0.1-1.5-0.1-3.1,0.3-4.5c0.9-3.6,4.5-5.6,8.8-5
	c3.5,0.5,6.1,3.5,6,7.2C81.6,43.8,81.4,44.8,81.4,45.8z"/>
<path class="st1" d="M76.2,12.4c0,1.1-0.4,2.1-1.1,2.8H79v14h4.4V15c0-3.1-2.6-5.7-5.7-5.7l0,0h-3C75.6,10,76.2,11.1,76.2,12.4z"/>
<path class="st1" d="M79,93.6L79,93.6H20.9V15.2h4.3c-0.7-0.7-1.1-1.7-1.1-2.8c0-1.3,0.6-2.4,1.5-3.1h-3.4c-3.1,0-5.7,2.6-5.7,5.7
	v78.8c0,3.1,2.6,5.7,5.7,5.7h55.5c3.1,0,5.7-2.6,5.7-5.7v-10H79V93.6z"/>
<path class="st1" d="M74.6,9.3c-0.7-0.5-1.5-0.9-2.4-0.9H59.6c-0.1-0.4-0.2-0.8-0.3-1.2c0-0.2-0.1-0.5-0.3-0.8
	c-1.4-3.5-4.8-5.9-8.8-5.9s-7.4,2.4-8.8,5.9c-0.1,0.3-0.2,0.6-0.3,0.9C41,7.6,40.9,8,40.8,8.4H28.1c-0.9,0-1.8,0.3-2.4,0.9
	c-0.9,0.7-1.5,1.8-1.5,3.1c0,1.1,0.4,2.1,1.1,2.8s1.7,1.2,2.8,1.2h44.1c1.1,0,2.1-0.5,2.8-1.2s1.1-1.7,1.1-2.8
	C76.1,11.1,75.5,10,74.6,9.3z M45,8.5c0.2-0.5,0.4-0.9,0.6-1.2C45.8,7,46,6.7,46.2,6.4c1-1.1,2.4-1.8,4-1.8c1.6,0,3,0.7,4,1.8
	c0.2,0.3,0.5,0.5,0.6,0.9c0.2,0.4,0.4,0.8,0.5,1.2H45z"/>
</svg>
