<?xml version="1.0" encoding="utf-8"?>
<!-- Generator: Adobe Illustrator 25.4.1, SVG Export Plug-In . SVG Version: 6.00 Build 0)  -->
<svg version="1.1" id="Layer_1" xmlns="http://www.w3.org/2000/svg" xmlns:xlink="http://www.w3.org/1999/xlink" x="0px" y="0px"
	 viewBox="0 0 100 100" style="enable-background:new 0 0 100 100;" xml:space="preserve">
<style type="text/css">
	.st0{fill:#5B6571;stroke:#5B6571;stroke-width:2;stroke-miterlimit:10;}
	.st1{fill:#5B6571;}
</style>
<path class="st0" d="M68.7,67c0.9,1,0.5,2.5-0.7,2.8c-0.7,0.2-1.2-0.1-1.7-0.6c-2.8-2.8-5.6-5.6-8.4-8.4c-0.4-0.4-0.6-0.4-1.1-0.2
	c-2.8,1.1-5.9-0.2-7.1-3c-1.1-2.8,0.1-5.9,2.8-7.1c0.5-0.2,0.6-0.5,0.6-1c0-5.6,0-11.2,0-16.8c0-1.5,0.5-2.3,1.6-2.3
	c1.1,0,1.7,0.7,1.7,2.3c0,5.6,0,11.2,0,16.8c0,0.4,0.1,0.7,0.6,0.9c2.8,1.2,4,4.2,2.9,7.1c-0.2,0.5-0.1,0.7,0.3,1
	c1.4,1.4,2.8,2.8,4.2,4.2C65.8,64,67.3,65.5,68.7,67z M56.4,53.7c-0.9-0.9-2.3-0.9-3.2,0c-0.9,0.9-0.9,2.3,0,3.2
	c0.9,0.9,2.3,0.9,3.2,0C57.3,56.1,57.3,54.6,56.4,53.7z"/>
<path class="st0" d="M81.7,68c-1,0-1.9,0-2.8,0c-0.1,0-0.3,0.2-0.3,0.3c-2.2,3.6-5,6.6-8.6,8.9c-3.7,2.4-7.6,3.8-12,4.2
	c-7.5,0.7-14.2-1.3-20-6.1c-5.4-4.4-8.6-10.2-9.6-17.1c-2-14.2,7.4-27.5,21.5-30.4c14.4-3,28.8,6.5,31.9,20.8c0,0.1,0,0.2,0,0.3
	c-1.6,0-3.2,0-4.9,0c2.3,2.8,4.5,5.4,6.8,8.1c2.3-2.7,4.5-5.4,6.8-8.1c-0.3,0-0.4,0-0.5,0c-1.6,0-3.3,0-4.9,0
	c-0.3,0-0.5-0.1-0.5-0.4C82.3,37.7,74.3,29,63.7,25.8C47.5,21,30.5,30.5,26.3,46.9c-3,11.6,1.2,24,10.8,31.2
	c6.4,4.8,13.6,6.9,21.5,5.9c10.2-1.3,17.9-6.6,22.9-15.6c0.1-0.1,0.1-0.2,0.1-0.3C81.7,68.1,81.7,68.1,81.7,68z"/>
<path class="st1" d="M47.9,7.3c-0.2-0.3-0.4-0.6-0.6-0.9c-1-1.1-2.4-1.8-4-1.8c-1.6,0-3,0.7-4,1.8c-0.2,0.3-0.5,0.5-0.6,0.9
	c-0.2,0.4-0.4,0.8-0.5,1.2h10.4C48.3,8,48.1,7.6,47.9,7.3z"/>
<path class="st1" d="M72.1,93.6L72.1,93.6l-58.1,0V15.2h4.3c-0.7-0.7-1.1-1.7-1.1-2.8c0-1.3,0.6-2.4,1.5-3.1h-3.4
	c-3.1,0-5.7,2.6-5.7,5.7v78.8c0,3.1,2.6,5.7,5.7,5.7h55.5c3.1,0,5.7-2.6,5.7-5.7v-9.6h-4.4V93.6z"/>
<path class="st1" d="M69.3,12.4c0,1.1-0.4,2.1-1.1,2.8h3.9v9.4h4.4V15c0-3.1-2.6-5.7-5.7-5.7l0,0h-3C68.6,10,69.3,11.1,69.3,12.4z"
	/>
<path class="st1" d="M17.2,12.4c0,1.1,0.4,2.1,1.1,2.8c0.7,0.7,1.7,1.2,2.8,1.2l0,0h44.1c1.1,0,2.1-0.5,2.8-1.2
	c0.7-0.7,1.1-1.7,1.1-2.8c0-1.3-0.6-2.4-1.5-3.1c-0.7-0.5-1.5-0.9-2.4-0.9H52.6c-0.1-0.4-0.2-0.8-0.3-1.2c-0.1-0.3-0.2-0.6-0.3-0.9
	c-1.4-3.5-4.8-5.9-8.8-5.9s-7.4,2.4-8.8,5.9v0c-0.1,0.3-0.2,0.6-0.3,0.9C34,7.6,33.9,8,33.9,8.4H21.1c-0.9,0-1.8,0.3-2.4,0.9
	C17.8,10,17.2,11.1,17.2,12.4z M38.6,7.3c0.2-0.3,0.4-0.6,0.6-0.9c1-1.1,2.4-1.8,4-1.8c1.6,0,3,0.7,4,1.8c0.2,0.3,0.5,0.5,0.6,0.9
	c0.2,0.4,0.4,0.8,0.5,1.2H38.1C38.2,8,38.4,7.6,38.6,7.3z"/>
</svg>
