<?xml version="1.0" encoding="utf-8"?>
<!-- Generator: Adobe Illustrator 25.4.1, SVG Export Plug-In . SVG Version: 6.00 Build 0)  -->
<svg version="1.1" id="Layer_1" xmlns="http://www.w3.org/2000/svg" xmlns:xlink="http://www.w3.org/1999/xlink" x="0px" y="0px"
	 viewBox="0 0 100 100" style="enable-background:new 0 0 100 100;" xml:space="preserve">
<style type="text/css">
	.st0{fill:#5B6571;}
	.st1{fill:#FFFFFF;stroke:#FFFFFF;stroke-width:3;stroke-miterlimit:10;}
	.st2{fill:#FBFFFF;}
</style>
<g>
	<circle class="st0" cx="49.4" cy="49.7" r="49.2"/>
	<g>
		
			<rect x="40.4" y="49.5" transform="matrix(0.7071 -0.7071 0.7071 0.7071 -26.2705 45.9703)" class="st1" width="3.8" height="10.5"/>
		
			<rect x="40.6" y="48.4" transform="matrix(0.7071 -0.7071 0.7071 0.7071 -19.7676 52.7117)" class="st1" width="26.2" height="3.7"/>
	</g>
	<path class="st2" d="M27.9,66.7L22.2,69c1.2,1.9,2.7,3.7,4.3,5.3l3.9-4.6C29.5,68.7,28.6,67.7,27.9,66.7z"/>
	<path class="st2" d="M30.2,32l-3.9-4.6c-1.6,1.6-3,3.4-4.3,5.4l5.7,2.3C28.5,34,29.3,33,30.2,32z"/>
	<path class="st2" d="M24.3,41.5l-5.6-2.2c-0.9,2.5-1.5,5.2-1.8,7.9h6C23.2,45.3,23.7,43.4,24.3,41.5z"/>
	<path class="st2" d="M36.1,74.2l-3.9,4.6c2.5,1.6,5.3,2.9,8.2,3.8l1.1-6C39.6,76,37.7,75.2,36.1,74.2z"/>
	<path class="st2" d="M23,54.6h-6c0.3,2.7,1,5.4,1.9,7.9l5.6-2.2C23.8,58.4,23.3,56.5,23,54.6z"/>
	<path class="st2" d="M41.4,24.9l-1.1-6c-3,0.9-5.8,2.2-8.4,3.9l3.9,4.6C37.6,26.4,39.5,25.5,41.4,24.9z"/>
	<path class="st2" d="M50,17.5c-0.8,0-1.7,0-2.5,0.1l1.1,5.9c0.5,0,0.9,0,1.4,0c15,0,27.3,12.2,27.3,27.3C77.3,65.8,65.1,78,50,78
		c-0.5,0-0.9,0-1.4,0L47.6,84C48.4,84,49.2,84,50,84c18.4,0,33.3-14.9,33.3-33.3S68.4,17.5,50,17.5z"/>
</g>
</svg>
