<?xml version="1.0" encoding="utf-8"?>
<!-- Generator: Adobe Illustrator 25.4.1, SVG Export Plug-In . SVG Version: 6.00 Build 0)  -->
<svg version="1.1" id="Layer_1" xmlns="http://www.w3.org/2000/svg" xmlns:xlink="http://www.w3.org/1999/xlink" x="0px" y="0px"
	 viewBox="0 0 100 100" style="enable-background:new 0 0 100 100;" xml:space="preserve">
<style type="text/css">
	.st0{fill:#5B6571;}
	.st1{fill:#FFFFFF;stroke:#FFFFFF;stroke-width:2;stroke-miterlimit:10;}
</style>
<circle class="st0" cx="50" cy="50" r="49.2"/>
<g>
	<path class="st1" d="M62.9,63.5c0.9,1,0.5,2.5-0.7,2.8c-0.7,0.2-1.2-0.1-1.7-0.6c-2.8-2.8-5.6-5.6-8.4-8.4
		c-0.4-0.4-0.6-0.4-1.1-0.2c-2.8,1.1-5.9-0.2-7.1-3c-1.1-2.8,0.1-5.9,2.8-7.1c0.5-0.2,0.6-0.5,0.6-1c0-5.6,0-11.1,0-16.7
		c0-1.5,0.5-2.3,1.6-2.3s1.7,0.7,1.7,2.3c0,5.6,0,11.1,0,16.7c0,0.4,0.1,0.7,0.6,0.9c2.8,1.2,4,4.2,2.9,7.1c-0.2,0.5-0.1,0.7,0.3,1
		c1.4,1.4,2.8,2.8,4.2,4.2C60,60.5,61.5,62,62.9,63.5z M50.6,50.3c-0.9-0.9-2.3-0.9-3.2,0s-0.9,2.3,0,3.2s2.3,0.9,3.2,0
		C51.5,52.6,51.5,51.2,50.6,50.3z"/>
	<path class="st1" d="M77.7,64c-1.1,0-2.1,0-3,0c-0.1,0-0.3,0.2-0.3,0.3c-2.4,3.9-5.4,7.1-9.3,9.6c-4,2.6-8.2,4.1-13,4.5
		C44,79.2,36.8,77,30.5,71.9c-5.8-4.8-9.3-11-10.4-18.5C18,38,28.1,23.7,43.4,20.5c15.6-3.2,31.1,7,34.5,22.5c0,0.1,0,0.2,0,0.3
		c-1.7,0-3.5,0-5.3,0c2.5,3,4.9,5.8,7.3,8.8c2.5-2.9,4.9-5.8,7.3-8.8c-0.3,0-0.4,0-0.5,0c-1.7,0-3.6,0-5.3,0c-0.3,0-0.5-0.1-0.5-0.4
		c-2.5-11.7-11.1-21.1-22.6-24.5c-17.5-5.2-35.9,5.1-40.4,22.8c-3.2,12.5,1.3,25.9,11.7,33.7c6.9,5.2,14.7,7.5,23.2,6.4
		c11-1.4,19.3-7.1,24.7-16.9c0.1-0.1,0.1-0.2,0.1-0.3C77.7,64.1,77.7,64.1,77.7,64z"/>
</g>
</svg>
