<?xml version="1.0" encoding="utf-8"?>
<!-- Generator: Adobe Illustrator 25.4.1, SVG Export Plug-In . SVG Version: 6.00 Build 0)  -->
<svg version="1.1" id="Layer_1" xmlns="http://www.w3.org/2000/svg" xmlns:xlink="http://www.w3.org/1999/xlink" x="0px" y="0px"
	 viewBox="0 0 373.2 90.1" style="enable-background:new 0 0 373.2 90.1;" xml:space="preserve">
<style type="text/css">
	.st0{fill:#5B6571;}
	.st1{fill:none;stroke:#5B6571;stroke-width:6;stroke-miterlimit:10;}
</style>
<g>
	<path class="st0" d="M111.1,60.7c-0.2,1-0.4,1.9-0.5,2.7c-0.1,0.8-0.2,1.7-0.2,2.7c0,1.3,0.2,2.5,0.5,3.6s0.8,2,1.6,2.7
		c0.8,0.7,1.8,1.3,3.1,1.7c1.3,0.4,2.9,0.6,4.8,0.6c1.3,0,2.5-0.1,3.6-0.3c1-0.2,1.9-0.4,2.6-0.7c0.7-0.3,1.2-0.7,1.6-1.1
		c0.4-0.4,0.6-0.9,0.6-1.4s-0.2-1-0.5-1.3c-0.3-0.4-0.6-0.8-1-1.1s-0.7-0.8-1-1.3s-0.5-1.2-0.5-1.9c0-0.7,0.1-1.4,0.4-2
		s0.6-1.1,1.1-1.6c0.5-0.4,1-0.8,1.6-1s1.3-0.4,1.9-0.4c1,0,1.8,0.3,2.6,0.8s1.5,1.5,2.2,2.8c0.6,1.1,1.1,2,1.5,2.6
		c0.4,0.7,0.9,1.2,1.3,1.7c0.5,0.4,1,0.7,1.6,0.8c0.6,0.2,1.4,0.2,2.4,0.2v3h-1.2c-0.9,0-1.6-0.1-2.3-0.3s-1.3-0.6-1.9-1.1
		s-1.1-1.1-1.7-1.9c-0.6-0.8-1.1-1.8-1.7-3c-0.3-0.5-0.5-1-0.7-1.3c-0.2-0.4-0.5-0.6-0.7-0.9c-0.2-0.2-0.5-0.4-0.7-0.5
		s-0.5-0.1-0.8-0.1c-0.6,0-1.2,0.2-1.6,0.6c-0.4,0.4-0.6,0.9-0.6,1.5c0,0.4,0.1,0.7,0.2,1c0.1,0.3,0.3,0.5,0.5,0.8s0.4,0.5,0.7,0.8
		s0.5,0.5,0.7,0.8s0.4,0.7,0.5,1c0.1,0.4,0.2,0.8,0.2,1.3c0,1.1-0.3,2.1-0.9,2.9c-0.6,0.8-1.4,1.6-2.5,2.1c-1.1,0.6-2.3,1-3.8,1.3
		s-3,0.4-4.7,0.4c-2.2,0-4.1-0.3-5.6-0.8s-2.7-1.3-3.7-2.3c-0.9-1-1.6-2.1-2-3.5s-0.6-2.9-0.6-4.5c0-1,0.1-1.9,0.2-2.8
		s0.3-1.9,0.6-3h2.8V60.7z M119.4,84.2h-3.3V81h3.3V84.2z M125.3,84.2H122V81h3.3V84.2z"/>
	<path class="st0" d="M152.5,55.2v9.2c0,1.6-0.2,2.8-0.6,3.8c-0.4,1-0.9,1.8-1.6,2.4s-1.5,1-2.4,1.2s-1.9,0.4-2.9,0.4h-2.5
		c-0.5,0-0.9-0.1-1.2-0.4s-0.4-0.6-0.4-1.1c0-0.4,0.1-0.8,0.4-1c0.3-0.3,0.7-0.4,1.2-0.4h2.6c0.8,0,1.5-0.1,2-0.2
		c0.6-0.2,1.1-0.4,1.4-0.8c0.4-0.4,0.7-0.9,0.9-1.5s0.3-1.4,0.3-2.3v-9.2L152.5,55.2L152.5,55.2z M149.8,50.7h-3.3v-3.2h3.3V50.7z
		 M155.6,50.7h-3.3v-3.2h3.3V50.7z"/>
	<path class="st0" d="M160.2,37.6h2.7v34.3h-2.7V37.6z"/>
	<path class="st0" d="M168.6,68.9c1.3,0.2,2.5,0.3,3.8,0.4s2.4,0.1,3.4,0.1c1.2,0,2.2-0.1,3-0.2s1.5-0.3,2-0.6
		c0.5-0.3,0.9-0.6,1.1-1.1c0.2-0.4,0.3-1,0.3-1.5c0-0.6-0.1-1.4-0.3-2.4s-0.5-2.1-0.8-3.4c-0.3-1.3-0.7-2.7-1.2-4.2s-1-3.1-1.6-4.8
		h2.9c0.4,1.1,0.7,2.2,1,3.3s0.6,2.2,0.9,3.2c0.3,1.1,0.6,2.1,0.8,3.2s0.6,2.1,0.8,3.2c0.2,0.8,0.5,1.5,0.7,2.1s0.6,1.2,1,1.6
		c0.4,0.5,0.9,0.8,1.4,1c0.6,0.2,1.2,0.4,2,0.4v3h-1c-0.5,0-1-0.1-1.4-0.2c-0.5-0.1-0.9-0.3-1.3-0.6c-0.4-0.3-0.8-0.6-1.2-1
		c-0.3-0.4-0.6-0.9-0.9-1.5h-0.1c-0.7,1.3-1.7,2.2-3,2.8c-1.4,0.5-3.1,0.8-5.2,0.8c-0.9,0-2,0-3.1-0.1s-2.3-0.2-3.4-0.4L168.6,68.9z
		 M181,45.3h-3.3v-3.2h3.3V45.3z"/>
	<path class="st0" d="M192.6,69.2c0.8,0,1.5-0.1,2.1-0.2s1.1-0.4,1.5-0.7c0.4-0.3,0.7-0.8,0.8-1.4s0.3-1.3,0.3-2.2V37.6h2.7v27.3
		c0,1.4-0.2,2.6-0.5,3.6c-0.4,0.9-0.9,1.7-1.5,2.2c-0.7,0.6-1.5,0.9-2.4,1.2c-0.9,0.2-1.9,0.3-3,0.3h-2.5c-1.1,0-1.6-0.5-1.6-1.5
		s0.5-1.5,1.6-1.5C190.1,69.2,192.6,69.2,192.6,69.2z"/>
	<path class="st0" d="M207.8,37.6h2.7v34.3h-2.7V37.6z"/>
	<path class="st0" d="M233.6,66.3c-0.2,1.1-0.3,2.1-0.4,3c-0.1,0.9-0.1,1.8-0.1,2.6c0,1.4,0.1,2.7,0.4,3.7c0.3,1,0.8,1.8,1.4,2.5
		c0.6,0.6,1.5,1.1,2.5,1.4s2.2,0.5,3.7,0.5s2.7-0.2,3.8-0.5s2-0.9,2.7-1.7s1.3-1.8,1.6-3.1c0.4-1.3,0.5-2.8,0.5-4.6
		c0-1.3-0.1-2.6-0.2-4c-0.2-1.4-0.4-3-0.7-4.7h2.7c0.1,0.4,0.1,0.8,0.2,1.2c0.1,0.4,0.1,0.7,0.2,1.1c0.1,0.4,0.1,0.7,0.1,1.1
		s0.1,0.7,0.1,1.1c0.2,1.2,0.6,2.1,1.5,2.6c0.8,0.6,2,0.8,3.5,0.8c0.6,0,1.2-0.1,1.8-0.2s1-0.4,1.4-0.8s0.7-0.9,1-1.5
		c0.2-0.6,0.3-1.4,0.3-2.3V59h2.7v4.7c0,1,0.1,1.8,0.2,2.5c0.2,0.7,0.4,1.3,0.8,1.7c0.4,0.5,0.9,0.8,1.5,1s1.4,0.3,2.3,0.3
		c0.7,0,1.3-0.1,1.9-0.2c0.5-0.2,1-0.4,1.4-0.8s0.6-0.9,0.8-1.5c0.2-0.6,0.3-1.3,0.3-2.2v-8.4h2.7v8.1c0,0.9,0.1,1.6,0.3,2.3
		c0.2,0.6,0.5,1.2,0.9,1.6s0.9,0.7,1.6,0.9c0.6,0.2,1.4,0.3,2.3,0.3v3h-0.7c-1.4,0-2.6-0.2-3.5-0.7c-1-0.4-1.7-1.1-2.1-2h-0.1
		c-0.6,1-1.4,1.7-2.4,2.1s-2.1,0.6-3.2,0.6c-3,0-5.1-1-6.1-3.1h-0.1c-0.6,1.1-1.5,1.8-2.5,2.3s-2.2,0.8-3.4,0.8
		c-1.1,0-2-0.2-2.7-0.5s-1.3-0.7-1.8-1.2c0,0,0,0-0.1,0s0,0-0.1,0c0,4.1-1,7.2-2.9,9.3S244.8,83,241,83c-1.8,0-3.4-0.2-4.8-0.7
		s-2.4-1.2-3.3-2c-0.9-0.9-1.5-2-1.9-3.3s-0.6-2.8-0.6-4.5c0-0.9,0.1-1.9,0.2-2.8s0.3-2,0.5-3.2h2.5V66.3z M261.8,52.5h-3.3v-3.2
		h3.3V52.5z M264.7,47.3h-3.3v-3.2h3.3V47.3z M267.7,52.5h-3.3v-3.2h3.3V52.5z"/>
	<path class="st0" d="M291.2,64.2c0,1,0.1,1.8,0.3,2.5c0.2,0.6,0.5,1.2,0.9,1.5c0.4,0.4,1,0.6,1.7,0.8c0.7,0.2,1.6,0.2,2.6,0.2v3
		h-1.2c-1.5,0-2.8-0.2-3.7-0.7c-1-0.5-1.6-1.2-2-2.1h-0.1c-0.6,1-1.4,1.7-2.3,2.1c-1,0.5-2.1,0.7-3.2,0.7h-2.9
		c-0.5,0-0.9-0.1-1.2-0.4c-0.3-0.3-0.4-0.6-0.4-1.1c0-0.4,0.1-0.8,0.4-1c0.3-0.3,0.7-0.4,1.2-0.4h2.8c0.6,0,1.2-0.1,1.7-0.2
		c0.5-0.2,1-0.4,1.4-0.7c0.4-0.3,0.7-0.8,1-1.3c0.2-0.5,0.3-1.2,0.3-2v-9.8h2.7L291.2,64.2L291.2,64.2z M288.4,79.3h-3.3v-3.2h3.3
		V79.3z M294.3,79.3H291v-3.2h3.3V79.3z"/>
	<path class="st0" d="M306.7,64.2c0,1,0.1,1.8,0.3,2.5c0.2,0.6,0.5,1.2,0.9,1.5c0.4,0.4,1,0.6,1.7,0.8c0.7,0.2,1.6,0.2,2.6,0.2v3
		H311c-1.5,0-2.8-0.2-3.7-0.7c-1-0.5-1.6-1.2-2-2.1h-0.1c-0.6,1-1.4,1.7-2.3,2.1c-1,0.5-2.1,0.7-3.2,0.7h-2.9
		c-0.5,0-0.9-0.1-1.2-0.4c-0.3-0.3-0.4-0.6-0.4-1.1c0-0.4,0.1-0.8,0.4-1c0.3-0.3,0.7-0.4,1.2-0.4h2.8c0.6,0,1.2-0.1,1.7-0.2
		c0.5-0.2,1-0.4,1.4-0.7c0.4-0.3,0.7-0.8,1-1.3c0.2-0.5,0.3-1.2,0.3-2v-9.8h2.7L306.7,64.2L306.7,64.2z M304,50.7h-3.3v-3.2h3.3
		V50.7z M309.9,50.7h-3.3v-3.2h3.3V50.7z"/>
	<path class="st0" d="M321.4,69c-1.9-0.8-3.2-1.7-4.1-2.9c-0.8-1.1-1.2-2.4-1.2-3.7c0-1,0.2-2,0.5-3c0.4-1,0.8-2,1.4-2.8
		s1.3-1.5,2.1-2c0.8-0.5,1.6-0.8,2.5-0.8s1.8,0.3,2.7,0.9c0.9,0.6,1.7,1.5,2.5,2.6c0.6,0.9,1.2,2,1.6,3.1s0.6,2.4,0.6,3.6
		c0,1-0.2,2-0.5,2.8c-0.3,0.8-0.8,1.5-1.5,2.2c0.3,0.1,0.7,0.1,1,0.1s0.7,0.1,1.1,0.1s0.9,0,1.4,0s1.1,0,1.8,0v3h-0.6
		c-1.3,0-2.7-0.1-4-0.3s-2.5-0.5-3.5-0.9c-0.6,0.3-1.2,0.5-1.9,0.6c-0.7,0.2-1.4,0.3-2.2,0.4s-1.6,0.2-2.4,0.2s-1.6,0-2.5,0h-4.1
		c-0.5,0-0.9-0.1-1.2-0.4c-0.3-0.3-0.4-0.6-0.4-1.1c0-0.4,0.1-0.8,0.4-1c0.3-0.3,0.7-0.4,1.2-0.4h4.4c0.9,0,1.8,0,2.6,0
		c0.8,0,1.5,0,2.1,0L321.4,69z M327.4,64.1c0-0.5-0.1-1-0.2-1.5s-0.3-1.1-0.5-1.6s-0.5-1.1-0.8-1.6s-0.6-0.9-1-1.3
		c-0.4-0.4-0.7-0.7-1.1-0.9s-0.8-0.3-1.2-0.3c-0.4,0-0.9,0.2-1.3,0.5s-0.8,0.7-1.2,1.3c-0.4,0.5-0.7,1.1-0.9,1.7
		c-0.2,0.6-0.3,1.3-0.3,1.9c0,0.5,0.1,1,0.3,1.5c0.2,0.5,0.6,1,1.1,1.5s1.2,1,2,1.5s1.8,1.1,3,1.6c0.8-0.4,1.3-0.9,1.7-1.7
		S327.4,65.1,327.4,64.1z M323.8,48.5h-3.3v-3.2h3.3V48.5z"/>
	<path class="st0" d="M343.4,64.2c0,1,0.1,1.8,0.3,2.5c0.2,0.6,0.5,1.2,0.9,1.5c0.4,0.4,1,0.6,1.7,0.8c0.7,0.2,1.6,0.2,2.6,0.2v3
		h-1.2c-1.5,0-2.8-0.2-3.7-0.7c-1-0.5-1.6-1.2-2-2.1h-0.1c-0.6,1-1.4,1.7-2.3,2.1c-1,0.5-2.1,0.7-3.2,0.7h-2.9
		c-0.5,0-0.9-0.1-1.2-0.4c-0.3-0.3-0.4-0.6-0.4-1.1c0-0.4,0.1-0.8,0.4-1c0.3-0.3,0.7-0.4,1.2-0.4h2.8c0.6,0,1.2-0.1,1.7-0.2
		c0.5-0.2,1-0.4,1.4-0.7c0.4-0.3,0.7-0.8,1-1.3c0.2-0.5,0.3-1.2,0.3-2v-9.8h2.7L343.4,64.2L343.4,64.2z M340.6,50.7h-3.3v-3.2h3.3
		V50.7z M346.5,50.7h-3.3v-3.2h3.3V50.7z"/>
	<path class="st0" d="M351.5,69.2c0.8,0,1.5-0.1,2.1-0.2s1.1-0.4,1.5-0.7c0.4-0.3,0.7-0.8,0.8-1.4s0.3-1.3,0.3-2.2V37.6h2.7v27.3
		c0,1.4-0.2,2.6-0.5,3.6c-0.4,0.9-0.9,1.7-1.5,2.2c-0.7,0.6-1.5,0.9-2.4,1.2c-0.9,0.2-1.9,0.3-3,0.3H349c-1.1,0-1.6-0.5-1.6-1.5
		s0.5-1.5,1.6-1.5C349,69.2,351.5,69.2,351.5,69.2z"/>
	<path class="st0" d="M366.6,37.6h2.7v34.3h-2.7V37.6z"/>
</g>
<path class="st0" d="M55.8,60.1c-0.1,0.2-0.1,0.4,0,0.5c0.2,0.5,0.4,1.1,0.6,1.6c0.1,0.2,0.1,0.4,0,0.7c-3.4,7.3-6.8,14.6-10.2,21.9
	c-0.2,0.4-0.4,0.9-0.6,1.3c-2.1-1-4.2-2-6.3-3c0-0.1,0.1-0.2,0.2-0.3c0.6-1.2,1.1-2.4,1.7-3.7c3-6.4,5.9-12.7,8.9-19.1
	c0.1-0.3,0.3-0.5,0.6-0.6c0.6-0.2,1.1-0.4,1.7-0.6c0.1,0,0.2-0.1,0.3-0.2c0.3-0.5,0.5-1.1,0.8-1.6c-9.9-5.6-13.1-18.4-7.5-27.9
	c5.3-9.1,16.9-12.8,26.4-8.3c9.6,4.5,14.1,15.7,10.4,25.6c-3.8,10.3-15.5,15.8-26.1,12C56.2,59,56,59.5,55.8,60.1z M77,34
	c-2.9-7.5-11.2-11.1-18.8-8.2c-7.4,2.9-11.4,11.2-8.2,19c3,7.3,10.9,10.9,18.5,8.1C76.3,50.1,80,41.6,77,34z"/>
<path class="st1" d="M19.2,29.1c0,0,40-42,87,2c0,0-33,32-48,25"/>
</svg>
