<?xml version="1.0" encoding="utf-8"?>
<!-- Generator: Adobe Illustrator 25.4.1, SVG Export Plug-In . SVG Version: 6.00 Build 0)  -->
<svg version="1.1" id="Layer_1" xmlns="http://www.w3.org/2000/svg" xmlns:xlink="http://www.w3.org/1999/xlink" x="0px" y="0px"
	 viewBox="0 0 162.9 43.1" style="enable-background:new 0 0 162.9 43.1;" xml:space="preserve">
<style type="text/css">
	.st0{fill:#FFFFFF;}
	.st1{fill:#DF1F26;}
	.st2{fill:#1B1613;}
</style>
<path class="st0" d="M30.6,21.5c0.1-8.1-1.7-12.6-3.2-14.9c0.5-0.7,0.9-1.1,0.9-1.1c0.2-0.2,0.4-0.4,1-0.5c0.2-1.1,0.6-2.3,0.6-2.3
	s-1.1,0.8-2.1,1.2c0.1,0.5-0.1,0.9-0.2,1.1c0,0-0.3,0.4-0.7,0.9c-0.7-0.8-1.5-1.5-2.6-2.2c-0.3-0.2-0.6-0.3-0.9-0.5
	c0-0.4-0.1-0.8-0.4-1.1c0-0.3-0.2-0.6-0.5-0.7v0c-0.3-0.1-0.7,0.1-0.9,0.2c-0.4,0.1-0.9,0.3-1.2,0.6c-0.9-0.2-2-0.3-3.3-0.4
	c-0.1-0.6-0.5-1-1-1.3C16,0.3,15.6,0,15.3,0h0c-0.3,0-0.7,0.3-0.8,0.5c-0.5,0.2-0.9,0.7-1,1.3c-1.2,0.1-2.3,0.2-3.2,0.4
	C9.9,1.9,9.5,1.7,9.1,1.6C8.9,1.4,8.5,1.3,8.2,1.4v0C8,1.5,7.8,1.8,7.7,2C7.5,2.3,7.3,2.7,7.3,3.2C7,3.3,6.7,3.5,6.4,3.6
	C5.3,4.3,4.6,4.9,3.9,5.8C3.5,5.3,3.3,5,3.3,4.9C3.1,4.8,3,4.4,3.1,3.9C2.1,3.5,1,2.7,1,2.7S1.4,4,1.5,5c0.5,0.1,0.8,0.3,1,0.5
	c0,0,0.3,0.4,0.8,1C1.7,8.7-0.1,13.3,0,21.5c0,0.8-0.3,7.8,2,12.6c0.3,0.5,1,1.8,2.2,2.9c1,1,2.3,1.7,3.7,2c0,0,0.1,0,0.2,0
	c1.7,0.5,3.2,0.2,3.8-0.1l-0.1,0.2c0,0.1-0.1,0.1-0.1,0.2c-0.3,0.9-0.1,1.8,1.1,1.9c0.3,0,0.7,0,1.1,0.2c0.3,0.1,0.6,0.4,1,0.7
	c0.1,0.2,0.5,0.5,0.6,0.9l0,0v0c0.1-0.3,0.5-0.7,0.6-0.9c0.4-0.4,0.7-0.6,1-0.7c0.4-0.2,0.8-0.2,1.1-0.2c1.2-0.1,1.4-1,1.1-1.9
	c0-0.1-0.1-0.1-0.1-0.2c0-0.1-0.1-0.2-0.1-0.2c0.8,0.5,3.3,0.8,5.8-0.7c1.7-1.1,2.9-2.2,3.8-4.2C30.9,29.3,30.6,22.1,30.6,21.5
	 M19.9,14.9c0,0-0.1,0.1-0.2,0.2c-0.1,0.1-0.3,0.1-0.4,0.1c-0.2,0-0.3-0.1-0.4-0.2c-0.3-0.4-0.4-0.8-0.7-1.5
	c-0.2-0.6-0.2-0.5-0.6-1.4c-0.2-0.4-0.5-1.1-0.7-1.4c-0.3-0.4-0.8-0.7-1-0.8c-0.2-0.1-0.5-0.2-0.9-0.2c-0.6,0-1.2,0-1.4,0.1
	c-0.2,0.1-0.5,0.2-0.7,0.4c0,0-0.1,0.1-0.2,0.2c-0.3,0.1-0.3,0.1-0.6,0.4c-0.5,0.4-0.5,1-0.2,1.2c0,0,0,0,0,0c0-0.2,0-0.3,0-0.3
	c0,0,0.3,0.2,0.7,0.1c0.3,0,0.5,0.4,0.5,0.4l0-0.1c0,0,0.1,0.3,0.2,0.3c0,0,0,0,0-0.1c0.1,0.1,0.2,0.2,0.2,0.4
	c0,0.2-0.1,0.3-0.3,0.5c-0.1,0.1-0.5,0.5-1,1c-0.3,0.3-0.4,0.4-0.6,0.7c-0.1,0.1-0.3,0.2-0.4,0.2c0,0,0,0-0.1,0
	c-0.2,0-0.3-0.1-0.3-0.1c-0.1-0.1-2.6-3.4-3.8-5C9.3,8,13,7.6,13.9,7.7c0.2,0,0.5,0.2,0.2,0.5c0.2,0.1,0.9,0,1.2-0.2
	c0.3,0.3,1,0.3,1.2,0.2c-0.3-0.3,0-0.5,0.2-0.5c0.9-0.1,4.4,0.1,6.8,2.5C22.3,11.7,20.7,13.7,19.9,14.9"/>
<path class="st1" d="M30.1,19.2c-0.7,0.5-1.3,1.1-3.4,2.3l-0.5,0.3l0-0.4c0,0,0.2-5.4-2.5-10c-0.2,0.2-0.7,0.9-1.3,1.6
	c0.3,0,0.7,0,1,0.3c0.5,0.5,1.4,1.8,1.9,3.1c0.3,0.8,0.5,2,0.4,2.9v0c0,0-0.3,5.5-0.9,10.7c-0.6,4.7-0.9,5.4-0.9,5.4
	c-0.4-0.4-0.5-1-0.6-1.3l0,0c0,0-0.3-0.5-0.5-1.4c-0.2-1.1-0.3-3-0.2-3.9v0c0,0,0-0.3-0.2-0.7c-0.1-0.2-0.2-0.4-0.2-0.7c0,0,0,0,0,0
	c-0.3-1.5-1-1.9-1.4-2.3c-0.4-0.5-0.8-1.1-1-1.6c0,0,0,0,0,0c-0.2,0.2-0.4,0.5-0.4,0.6c0.1,0.9,0.2,1.5,0,1.9
	c-0.1,0-0.1-0.1-0.2-0.1c0.1,0.6-0.2,1.2,0,1.7l-0.3,0c0,0,0,0.1,0,0.1c0,0.1,0.1,0.1,0.2,0.1c0,0,0.1,0,0.1,0.1c0,0,0.1,0,0.3,0.1
	c0.2-0.4,0-0.8-0.1-1.1c-0.2-0.2,0-0.5,0.4-0.3c0.4,0.2,0.9,0.5,1.4,0.9c0.7,0.7,0.9,1.3,0.8,1.4c-0.1,0.1-0.2,0.1-0.3,0
	c0,0,0,0,0,0.1c0,0.1-0.1,0.2-0.3,0.3l0,0c-0.1,0.1-0.2,0.1-0.4,0.1c-0.2,0-0.4-0.1-0.4-0.1c0,0-0.1,0-0.1-0.1c0,0-0.1,0.1-0.1,0.1
	c0.6,0.7,1.6,2,2.4,3.3c0.5,1,0.8,1.8,0.8,1.8s-0.3,0.1-0.7,0c0.1,0.4,0.2,0.7,0.2,1c-0.3,0-0.7,0-1.1-0.3c0,0.1,0,0.1,0,0.2
	c0.3,0.2,0.7,0.5,0.9,0.6c-1.7,0.8-4.1,0.4-4.1,0.4c-0.1,0-0.2,0-0.3,0c0,0,0,0.1-0.1,0.1c0.2,0.4,0.5,1.3,0.6,1.5
	c1,0.5,2,0.8,3.5,0.5c0,0,0.3,0,0.9-0.2c0.7-0.2,1.9-0.9,2.8-1.8c1.2-1.1,1.9-2.3,2.1-2.7c1.8-3.6,2.1-8.9,2.1-11v-1.1
	C30.1,21,30.1,19.8,30.1,19.2"/>
<path class="st1" d="M12.2,38c0.1-0.2,0.4-1,0.6-1.4c0-0.1,0-0.1-0.1-0.2c-0.2,0-0.5,0.1-0.7,0.1c-0.2,0-2.4,0.4-4.1-0.4
	c0.2-0.1,0.6-0.5,1.1-0.8c0,0,0-0.1,0-0.1c-0.4,0.2-0.8,0.3-1.1,0.2c0-0.3,0-0.6,0.2-1c-0.4,0.1-0.7,0-0.7,0s0.2-0.8,0.8-1.8
	c0.5-0.9,1.2-1.8,1.8-2.6c0.1-0.3,0.3-0.5,0.3-0.6c0,0,0.1-0.1,0.1-0.1c-0.1-0.1-0.1-0.1-0.2-0.2c-0.1,0.1-0.1,0.1-0.2,0.1
	c-0.2,0.1-0.3,0.1-0.4,0.1c-0.2,0-0.3,0-0.4-0.1l0,0c-0.2,0-0.3-0.1-0.3-0.3c0,0,0-0.1,0-0.1c-0.1,0-0.2,0-0.3,0
	c-0.1-0.1,0.1-0.8,0.8-1.4c0.5-0.5,0.9-0.7,1.4-0.9c0.3-0.1,0.5,0.1,0.4,0.3c-0.2,0.2-0.3,0.6-0.1,1.1c0.2-0.1,0.3-0.1,0.3-0.1
	c0.1,0,0.2-0.1,0.3-0.2c0,0,0,0,0-0.1l-0.3,0c0.1-0.4-0.1-1.3,0.1-1.8c0,0-0.1,0.1-0.2,0.1c-0.1-0.5-0.1-1.4,0-1.8
	c0-0.1-0.2-0.3-0.4-0.5c-0.2,0.4-0.4,0.9-0.9,1.5c-0.4,0.5-1,0.9-1.4,2.3v0c-0.1,0.2-0.1,0.4-0.2,0.7C8.1,28.7,8.1,29,8.1,29v0
	c0,0.9,0,2.8-0.2,3.9c-0.2,0.9-0.5,1.4-0.5,1.4l0,0c-0.1,0.3-0.2,0.9-0.6,1.3c0,0-0.3-0.6-0.9-5.4C5.2,25,4.9,19.5,4.9,19.5h0
	c-0.1-1,0.2-2.1,0.4-2.9c0.5-1.3,1.4-2.6,1.9-3.1c0.3-0.3,0.7-0.4,1.1-0.3c-0.1-0.1-0.2-0.3-0.2-0.3c-0.4-0.5-0.8-1-1.1-1.5
	c-2.6,4.5-2.5,9.9-2.5,9.9l0,0.6L4,21.6c-2-1.1-2.9-1.8-3.5-2.4c0,0.5-0.1,2.4-0.1,2.4c0,0,0,0.4,0,1.1c0,2.1,0.4,7.4,2.1,11
	c0.2,0.4,0.9,1.7,2.1,2.8c0.9,0.8,1.9,1.4,3.1,1.8c0.1,0,0.2,0.1,0.3,0.1C9.3,38.9,10.8,38.8,12.2,38L12.2,38z"/>
<path class="st1" d="M13.3,39.4c0-0.6,0.1-1.6,0.3-2.4c-0.2,0.2-0.4,0.3-0.4,0.3c0,0-0.1,0-0.1-0.1c-0.4,1-1,2.3-1,2.4
	C12.4,39.3,12.8,39.2,13.3,39.4"/>
<path class="st1" d="M17.2,40c0-0.7-0.2-2.4-0.4-3.5c0,0,0-0.1-0.1-0.1c0,0-0.1-0.1-0.1-0.1c-0.1,0.2-0.1,0.4-0.2,0.6
	c-0.1,0.2-0.3,0.5-0.3,0.5c0,0-0.5-0.3-0.8-1c-0.3,0.7-0.8,1-0.8,1c0,0-0.2-0.3-0.3-0.5c-0.1-0.1-0.1-0.2-0.1-0.3
	c-0.2,1.1-0.4,2.8-0.4,3.4c-1-0.6-1.6,0-1.4,0.5c0,0,0,0.1,0.1,0.1c0.1,0.2,0.3,0.2,0.5,0.3c0.3,0,0.7,0.1,1.2,0.3
	c0.4,0.2,0.9,0.5,1.4,1.1c0.5-0.6,1-0.9,1.4-1.1c0.5-0.2,0.9-0.3,1.2-0.3c0.2,0,0.4-0.1,0.5-0.3c0,0,0-0.1,0.1-0.1
	C18.8,40,18.2,39.4,17.2,40"/>
<path class="st1" d="M17.6,37.3c0,0-0.2-0.1-0.3-0.2c0.1,0.7,0.3,1.7,0.3,2.3c0.5-0.2,0.9-0.1,1.2,0.2c0,0-0.6-1.6-1-2.5
	C17.7,37.2,17.6,37.3,17.6,37.3"/>
<path class="st2" d="M13.8,17.5L13.8,17.5C13.8,17.5,13.8,17.5,13.8,17.5"/>
<path class="st2" d="M13.2,17.7L13.2,17.7C13.2,17.7,13.2,17.7,13.2,17.7"/>
<path class="st2" d="M22.2,20.4c-0.1,0.4-0.2,0.5-0.5,0.7c-0.2-0.5-0.3-0.9,0.5-2.5c-0.5,1.5-0.3,2-0.3,2S22.1,20.5,22.2,20.4
	 M21.4,19.3c0,0-0.2-0.3,0.3-1.7c-0.8,1.3-0.5,2.1-0.5,2.1s0.4-0.2,0.5-0.7C21.6,19.2,21.4,19.3,21.4,19.3 M24.4,17
	c-0.1,1.3-0.2,1.6-0.4,1.8c-0.1-0.1-0.2-0.4-0.2-0.4c0,0.2,0,0.6,0.2,0.8C24.3,19,24.4,18.3,24.4,17 M24.1,16.2
	c-0.2,1.5-0.4,1.8-0.6,2.1c-0.1-0.1-0.2-0.5-0.2-0.5c-0.1,0.3,0,0.7,0.2,0.9C23.8,18.3,24.1,17.5,24.1,16.2 M23,17.6
	c-0.1-0.4-0.1-0.8-0.1-0.8c-0.2,0.6-0.1,1.1,0.1,1.3c0.3-0.4,0.8-1.5,0.8-2.5C23.5,16.8,23.2,17.4,23,17.6 M22.4,16.8
	c-0.1-0.4,0-1,0-1c-0.3,0.6-0.2,1.3,0,1.6c0.4-0.3,0.9-1.3,0.9-2.3C23,16.2,22.6,16.5,22.4,16.8 M24.3,19.3c0,0.3,0.2,0.5,0.2,0.5
	s0.4-0.6,0.3-1.7c-0.1,1-0.3,1.3-0.3,1.3S24.3,19.3,24.3,19.3 M24.8,19.7c0,0.3,0.2,0.4,0.2,0.4s0.4-0.6,0.2-1.5
	c0,0.9-0.3,1.2-0.3,1.2S24.8,19.8,24.8,19.7 M6.6,18.9c-0.1-0.2-0.2-0.5-0.4-1.8c-0.1,1.2,0.1,1.9,0.4,2.3c0.2-0.2,0.3-0.6,0.2-0.8
	C6.8,18.6,6.7,18.8,6.6,18.9 M7.1,18.3c-0.2-0.3-0.4-0.6-0.6-2.1c0,1.4,0.3,2.2,0.6,2.5c0.2-0.2,0.3-0.6,0.2-0.9
	C7.3,17.8,7.2,18.2,7.1,18.3 M7.6,17.6c-0.2-0.2-0.5-0.8-0.7-2c-0.1,1,0.4,2.1,0.8,2.5c0.2-0.2,0.3-0.7,0.1-1.3
	C7.7,16.8,7.7,17.2,7.6,17.6 M8.1,16.8c-0.2-0.2-0.5-0.6-0.8-1.8c0,1,0.6,2,0.9,2.3c0.2-0.3,0.2-1,0-1.6C8.2,15.8,8.2,16.4,8.1,16.8
	 M6.1,19.5c0,0-0.2-0.3-0.3-1.3c-0.2,1.1,0.3,1.7,0.3,1.7s0.3-0.2,0.2-0.5C6.3,19.4,6.1,19.5,6.1,19.5 M5.7,19.9
	c0,0-0.2-0.3-0.3-1.2c-0.2,0.9,0.2,1.5,0.2,1.5s0.2-0.2,0.2-0.4C5.8,19.8,5.7,19.9,5.7,19.9 M8.7,20.7c0,0-0.2-0.1-0.3-0.3
	c0.1,0.4,0.2,0.5,0.5,0.7c0.2-0.5,0.3-0.9-0.5-2.5C8.9,20.2,8.7,20.7,8.7,20.7 M9.2,19.3c0,0-0.2-0.1-0.4-0.2
	c0.1,0.5,0.6,0.7,0.6,0.7s0.4-0.9-0.5-2.1C9.4,19,9.2,19.3,9.2,19.3 M12.9,25.7c0.1-0.7-0.3-1.3-0.3-1.6c-0.1,0.1-0.1,0.3-0.1,0.3
	c-0.2-0.3-0.3-0.7-0.4-0.9c-0.1,0.5-0.2,0.7-0.3,0.9c0.1,0,0.2,0,0.3-0.1C12.3,25,12.8,25.1,12.9,25.7 M17.9,24.5c0,0,0-0.2-0.1-0.3
	c-0.1,0.3-0.4,0.9-0.3,1.6c0.2-0.6,0.6-0.7,0.8-1.3c0.1,0.1,0.2,0.1,0.3,0.1c-0.1-0.2-0.2-0.5-0.3-0.9
	C18.2,23.8,18.2,24.3,17.9,24.5 M14.2,23.9c-0.1-0.2-0.2-1-0.5-1.3C13.6,23.1,14,23.6,14.2,23.9 M16.1,24.6c0.1-0.3,0.4-0.6,0.4-1.6
	C16.2,23.3,16.1,24.2,16.1,24.6 M15.5,25c0.2-0.4,0.1-0.9,0-1.1C15.3,24.3,15.3,24.7,15.5,25 M15.1,23.8c0.2-0.5,0.1-1-0.1-1.3
	C14.8,23,14.8,23.4,15.1,23.8 M18.3,19.6C18,20,18,20.8,17.9,21.1C18,21,18.5,19.8,18.3,19.6 M18.4,18.2c0,0,0.5-0.8,0.2-1.3
	C18.2,17,18.4,18.2,18.4,18.2 M17,20.2c0,0,0.7-0.7,0.7-1.6c-0.2,0.6-0.7,0.8-0.7,0.8c0,0-0.3-0.2-0.4-0.6
	C16.5,19.8,17,20.2,17,20.2 M18.4,19.2c0.2-0.3,0.5-0.8,0.2-1.1C18.6,18.4,18.5,18.8,18.4,19.2 M16.2,22.7c0.1-0.3,0.5-0.8,0.4-1.5
	C16.3,21.4,16.1,22.3,16.2,22.7 M17.2,21.7c0.4-0.5,0.7-1.2,0.5-1.8C17.3,20.5,17.3,21.2,17.2,21.7 M16.3,19.8
	c-0.1,0.4-0.3,0.7-0.6,1c-0.1-0.1-0.3-0.3-0.5-0.6c-0.1,0.7,0.3,1.1,0.6,1.3C15.9,21.4,16.4,20.7,16.3,19.8 M14.4,21.6
	c-0.1,0-0.5-0.4-0.7-0.7c0.1,0.4,0.6,1.2,0.9,1.4c0.1-0.1,0.4-0.8,0.1-1.8C14.6,21.1,14.5,21.5,14.4,21.6 M11.8,16.8
	c-0.1-0.4,0.4-0.7,0.2-1.2C11.6,16,11.7,16.5,11.8,16.8 M12.7,21c0.2,0.4,0.4,0.6,0.6,0.8c-0.3-0.5-0.6-1.3-0.9-1.6
	C12.4,20.3,12.5,20.7,12.7,21 M12.5,19.1c-0.2,0.7,0.5,1.4,0.5,1.4C13,20.5,13,19.6,12.5,19.1 M13,17.7c0,0.3,0,0.6-0.1,0.9
	c-0.2,0-0.3-0.2-0.4-0.3c0.1,0.4,0.6,0.9,0.7,1C13.2,18.8,13.2,18.1,13,17.7 M12.7,15.9c0.2-0.7,0.6-1.1,0.7-1.5
	C12.7,14.8,12.5,15.6,12.7,15.9 M12,19c-0.1-0.6-0.1-1-0.4-1.6C11.6,18.1,12,18.9,12,19 M13.8,16.6c-0.5,0.6,0.3,1.4,0.3,1.4
	C14.1,18,14.1,16.9,13.8,16.6 M14.2,15c-0.7,0.5-0.4,1-0.2,1.3C14.1,15.8,14.1,15.6,14.2,15 M14.6,19.8c0.1-0.3,0.5-0.8,0.3-1.6
	c-0.1,0.6-0.5,0.9-0.5,0.9c0,0-0.2-0.1-0.4-0.5C14.1,19.4,14.4,19.6,14.6,19.8 M18.3,15.1c-0.1,0.4,0.4,1.3,0.4,1.4
	C18.7,16.4,19,15.6,18.3,15.1 M17.3,13.5c-0.1,0.3,0.5,0.9,0.5,0.9C17.8,14.3,17.9,13.7,17.3,13.5 M18.1,16.1
	c-0.2,0.8-0.5,1.1-0.5,1c0,0-0.3-0.2-0.5-0.5c0,0.6,0.5,1.2,0.5,1.2C17.6,17.9,18.3,17.3,18.1,16.1 M16.6,14.7
	c-0.3,0.3,0,0.9,0.1,1.5C16.9,15.9,17.1,15,16.6,14.7 M16.8,13.8c0-0.3-0.1-0.8-0.7-0.8C16.1,13.3,16.6,13.5,16.8,13.8 M16.1,12.6
	c0.1,0.1,0.6,0.2,0.9,0.5C17,12.7,16.6,12.5,16.1,12.6 M15.5,14.4c-0.4,0.5-0.2,0.9-0.2,0.9C15.3,15.3,15.9,14.7,15.5,14.4 M16.2,19
	c0,0,0.6-0.5,0.6-1.6c-0.3,0.5-0.7,0.8-0.7,0.8c0,0-0.3-0.2-0.5-0.5C15.6,18.4,16.2,19,16.2,19 M15.4,16c-0.5,0.7,0,1.5,0,1.5
	C15.3,17.5,15.7,16.5,15.4,16 M15.5,10.8c0.1,0.1,0.6,0.3,0.8,0.5C16.3,11,16,10.8,15.5,10.8 M15.7,11.2c-0.2-0.3-0.6-0.4-0.8-0.4
	C15.2,11,15.4,11.2,15.7,11.2 M16.6,12c0-0.1-0.2-0.4-0.7-0.5c0.1,0.1,0.2,0.3,0.2,0.4c-0.1,0-0.3,0.1-0.4,0.1
	C16,12.1,16.3,12.1,16.6,12 M12.8,10.9c0,0-0.1,0.1,0.1,0.2c0.1,0,0.1-0.1,0.1-0.1S12.8,10.9,12.8,10.9 M16.5,3.6
	c-0.1-0.1-0.2-0.2-0.4-0.3c-0.1,0.1-0.3,0.2-0.4,0.3c0.1,0.1,0.2,0.2,0.4,0.3C16.3,3.7,16.3,3.7,16.5,3.6 M14.2,10.6
	c0,0,0,0.1,0,0.2c0,0.1-0.1,0.3-0.3,0.3c-0.2,0.1-0.5-0.1-0.5-0.3c0-0.1,0-0.1,0-0.2c-0.1,0-0.1,0.1-0.2,0.2c0,0.1-0.1,0.1-0.2,0.1
	c0-0.1,0.2-0.4,0.3-0.4c0.3-0.1,1.2-0.2,1.8,0.2c-0.2,0-0.4,0-0.6,0C14.4,10.6,14.2,10.6,14.2,10.6 M14.1,10.6c0,0-0.2,0-0.2,0
	c0,0,0.1,0.1,0.2,0.1c0,0,0.1,0,0.1,0C14.1,10.7,14.1,10.6,14.1,10.6 M17.1,5.3c-1.8-0.1-5.2,0.1-6.9,0.6c0,0-0.2-0.4-0.3-0.6
	c-0.5-0.5-0.6,0-0.6,0.1c0.6,0,0.7,0.3,0.7,0.3C9.7,6,9.6,6,9.3,6.3c-0.1,0.1-0.5,0.3-1,0.3c-1.1,0-0.8-1.1-0.1-1.5
	C8.2,5.2,7.8,5.8,8,6.1c0.3,0.3,1.2,0.1,1.5-0.2C9.4,5.7,9.1,5.7,8.8,5.7c0-0.2,0.1-0.6,0.6-1.1c0.2,0,0.7,0.3,0.9,0.8
	c1.6-0.4,4.4-0.5,4.5-0.5c0-0.3-0.1-1.3-0.1-1.4c0-0.2,0.1-0.2,0.2-0.3c0.1,0.2,0.2,0.3,0.5,0.4c-0.1,0.1-0.2,0.2-0.3,0.3
	c0,0.2,0,0.6,0,0.7c0.2-0.1,0.6-0.3,1-0.4c0.2,0,0.3-0.1,0.5,0c0.2,0,0.3,0.1,0.4,0.2c0.1,0.1,0.2,0.2,0.2,0.3
	C17.2,4.9,17.2,5.2,17.1,5.3 M16.7,4.7c-0.2-0.4-1,0-1.6,0.2c0.3,0,0.6,0,0.9,0c0.1,0,0.5,0,0.7,0C16.8,4.8,16.8,4.8,16.7,4.7
	 M9.4,6.6c-0.1,0-0.2-0.1-0.3-0.1C9,6.6,8.9,6.8,8.8,6.9C9,6.9,9.1,6.9,9.3,7c0.1-0.1,0.1-0.2,0.2-0.3c0.1,0,0.2,0.1,0.3,0.1
	C9.8,6.7,9.9,6.6,10,6.5C9.8,6.4,9.7,6.4,9.5,6.3C9.5,6.4,9.4,6.5,9.4,6.6 M22.4,5.3c0.3,0,0.7,0.1,0.8-0.1C23,5.1,22.8,5,22.7,4.9
	C22.8,4.9,22.9,5,23,5C23,5,23.1,5,23.1,4.9c-0.2-0.2-0.6-0.1-0.7,0.1c0.1,0,0.2,0.1,0.2,0.1C22.6,5.2,22.5,5.2,22.4,5.3 M22.2,5.9
	c-0.1,0.3-0.3,0.7-0.4,1c0.1,0,0.2,0,0.3-0.1c0.4-0.3,0.7-1,0.9-1.4c0,0-0.3,0.1-0.4,0.1C22.4,5.6,22.3,5.6,22.2,5.9 M18.9,6.1
	c0.1,0.1,0.2,0.2,0.3,0.3c0.2-0.1,0.2-0.1,0.4-0.2C19.5,6,19.4,6,19.3,5.8C19.2,5.9,19,6,18.9,6.1 M21.8,5.7
	c-0.1,0.2-0.2,0.4-0.4,0.5c-0.6-0.2-1.9-0.6-2.7-0.6c-0.2,0.2-0.5,0.5-0.8,0.6C17.6,6.1,17.3,6,17,5.9c0.2,0,0.2,0,0.4,0
	c0.4,0,0.8-0.2,1.1-0.3c-0.6-0.1-0.8-0.3-0.5-0.7c0.1-0.2,0.4-0.5,0.7-0.4C18.9,4.5,19,4.9,19,5.2c0.7,0.1,1.7,0.3,2.4,0.6
	c0-0.2-0.1-0.3-0.2-0.5c0.1-0.1,0.3-0.2,0.4-0.3C21.8,5.1,21.9,5.5,21.8,5.7 M18.3,4.8c0,0-0.1,0.1-0.2,0.2c0.1,0.1,0.2,0.1,0.3,0.1
	c0,0,0.1,0,0.1,0C18.7,5,18.5,4.7,18.3,4.8 M10.4,6.3c0.1,0.1,0.3,0.1,0.4,0.2c0.1-0.1,0.2-0.2,0.3-0.3C10.9,6.1,10.8,6,10.7,6
	C10.6,6.1,10.5,6.2,10.4,6.3 M28.6,34.1c-1,1.9-2.2,3.1-3.8,4.2c-2.4,1.5-4.9,1.2-5.8,0.7c0,0,0.1,0.2,0.1,0.2
	c0,0.1,0.1,0.1,0.1,0.2c0.3,0.9,0.1,1.8-1.1,1.9c-0.3,0-0.7,0-1.1,0.2c-0.3,0.1-0.6,0.4-1,0.7c-0.1,0.2-0.5,0.5-0.6,0.9v0l0,0
	c-0.2-0.3-0.5-0.7-0.6-0.9c-0.3-0.4-0.7-0.6-1-0.7c-0.4-0.2-0.8-0.2-1.1-0.2c-1.2-0.1-1.4-1-1.1-1.9c0,0,0.1-0.1,0.1-0.2l0.1-0.2
	c-0.6,0.4-2.1,0.6-3.8,0.1c0,0-0.1,0-0.2,0c-1.4-0.4-2.6-1.1-3.7-2c-1.3-1.2-2-2.5-2.2-2.9c-2.3-4.8-2-11.8-2-12.6
	C-0.1,13.3,1.7,8.7,3.3,6.5c-0.5-0.6-0.8-1-0.8-1C2.4,5.3,2.1,5.1,1.5,5C1.4,4,1,2.7,1,2.7s1.1,0.8,2.1,1.2C3,4.4,3.1,4.8,3.3,4.9
	c0,0,0.2,0.3,0.6,0.8c0.7-0.9,1.4-1.5,2.6-2.1C6.7,3.5,7,3.3,7.3,3.2c0-0.4,0.1-0.8,0.4-1.1c0-0.3,0.2-0.6,0.5-0.7v0
	c0.3-0.1,0.7,0.1,0.9,0.2c0.4,0.1,0.8,0.3,1.2,0.6c0.9-0.2,2-0.4,3.2-0.4c0.1-0.6,0.5-1,1-1.3C14.6,0.3,15,0,15.3,0h0
	c0.3,0,0.7,0.3,0.8,0.5c0.5,0.2,0.9,0.7,1,1.3c1.2,0.1,2.3,0.2,3.3,0.4c0.3-0.3,0.7-0.6,1.2-0.6c0.2-0.2,0.6-0.3,0.9-0.2v0
	c0.3,0.1,0.5,0.4,0.5,0.7c0.3,0.3,0.4,0.7,0.4,1.1c0.3,0.1,0.6,0.3,0.9,0.5c1.2,0.7,2,1.4,2.6,2.2c0.4-0.5,0.7-0.9,0.7-0.9
	c0.1-0.2,0.3-0.5,0.2-1.1c1-0.4,2.1-1.2,2.1-1.2S29.3,3.9,29.2,5c-0.6,0.1-0.8,0.3-1,0.5c0,0-0.3,0.4-0.9,1.1
	c1.5,2.2,3.3,6.8,3.2,14.9C30.6,22.1,30.9,29.3,28.6,34.1 M27.8,8.5c-1,0.2-1.6,0.2-2,0.2c-0.3,0.5-0.4,1-0.4,1.9
	c-0.4-0.1-0.6-0.2-0.8-0.5c-0.3,0.4-0.4,0.6-0.7,1c2.6,4.6,2.6,8.8,2.6,10c2-1.1,3.3-2.2,3.5-2.4C29.8,14.4,29.1,11.2,27.8,8.5
	 M23.8,21.2c-0.1,0.5-0.1,0.9,0.1,1.3c0.2-0.3,0.4-0.6,0.6-1.1c0,0.4,0.1,0.9,0.2,1.1c0.3-0.4,0.5-2.2,0.5-2.2s0,0,0.2,0.1
	c0.2-0.6,0.1-2-0.1-2.6c-0.2-1.1-0.7-2.4-2-4C22.5,13,22,13.4,21.4,14c-0.9,1-1.1,1.5-2.2,1.7c0,0,0,0,0,0c-0.1,0,0,0.1,0.2,0.1
	c1.3,0,1.8-0.9,2.2-1.4c0.3-0.3,0.6-0.6,0.9-0.4c0.1,0.1,0.5,0.5,0.1,1.5c0-0.2-0.1-0.4-0.1-0.5c-0.2,0.7-0.4,1.3-0.7,1.7
	c0-0.1-0.1-0.2-0.1-0.4c-0.1,0.8-0.9,1.7-1,2.9c-0.1-0.1-0.1-0.2-0.2-0.5c-0.6,1.1-1.2,3-0.8,3.9c0-1,0.6-2.4,0.9-2.8
	c-0.4,1.2-0.9,2.8-0.5,3.7c0-0.8,0.5-2.1,0.8-2.6c-0.5,2-0.8,3.1-0.2,3.9c-0.1-0.8,0.2-1.9,0.6-2.9c-0.3,1.6-0.7,3,0.1,3.7
	c-0.1-1,0.3-2.4,0.5-2.9c-0.2,1.5-0.5,3,0,3.8c0-0.5,0.1-1.1,0.2-1.6c0.1-0.7,0.3-1.3,0.3-1.3s-0.2,1.1-0.2,2.4c0,0.2,0,0.4,0,0.7
	c0,0.3,0,0.5,0.1,0.8c0,0.2,0.1,0.5,0.2,0.7c0.1-1.7,0.3-3.2,0.6-3.9c0,0-0.2,1.6-0.3,4.1c0,0.1,0,0.2,0,0.3
	c-0.2,3.6,0.3,4.7,0.5,5.1c0,0,0-0.1,0-0.5c0-0.4,0-0.4,0-0.8c0-0.1-0.3-0.8-0.3-1.7c0-0.5,0.1-1.1,0.1-1.6c0-0.5,0.1-0.9,0.1-1.4
	c0.1-0.4,0.1-0.8,0.2-1.2c0.1-0.6,0.2-1.2,0.3-1.7c0.1-0.5,0-0.1,0,0.1c0,0.5-0.1,1.6-0.2,2.8c-0.1,0.9-0.3,2.6-0.2,3.4
	c0,0.7,0.2,1,0.2,1.1c0,1.4,0.1,2,0.3,2.5c0,0,0.1-0.5,0.3-1.1c0,0-0.1,0.1-0.1,0.1c-0.2-0.5-0.3-1.2-0.2-2.1c0-0.1-0.2-0.3-0.2-1
	c0-1,0.2-2.1,0.3-3.1c0-0.3,0.1-0.7,0.1-1c0-0.2,0.1-0.4,0.1-0.6c0-0.3,0.1-0.6,0.2-1c0-0.1,0-0.1,0-0.1c0,0,0,0.2,0,0.5
	c-0.1,1.4-0.4,4.9-0.4,5.2c0,0.7,0.2,0.9,0.2,1c0,0.5,0,1.4,0,1.6c0.1-0.2,0.1-0.6,0.1-0.6s0.2-1.4,0.4-3.5c0-0.3,0.1-0.6,0.1-0.9
	c0-0.3,0.1-0.6,0.1-0.9c0-0.4,0.1-0.7,0.1-1.1c0-0.2,0-0.3,0-0.5c0.1-1,0.2-2,0.3-3c0,0,0.1-1.6,0.2-2c0,0-0.1-0.1-0.1-0.1
	s-0.2,1.9-0.7,2.6c-0.1-0.1-0.3-0.8-0.3-1.1c-0.1,0.4-0.6,0.9-0.6,0.9s-0.2-0.4-0.1-1c-0.2,0.2-0.3,0.4-0.5,0.5
	c-0.1-0.2-0.2-0.5-0.2-1.1c-0.1,0.1-0.2,0.2-0.4,0.4c-0.1-0.1-0.4-0.7,0.2-2.7c-0.2,1.8-0.1,2.1-0.1,2.2c0.1,0,0.2-0.1,0.3-0.2
	c0-0.3,0.1-0.8,0.2-1.3c-0.1,1.5,0,1.9,0.1,2.2C23.3,22.1,23.5,21.8,23.8,21.2 M19.3,21.8c0.1-1.9,0.5-3,0.7-4
	C19,18.9,19.2,21.4,19.3,21.8 M19.5,17.7c0.3-1,0-1.4-0.1-1.5C19.3,16.6,19.4,16.8,19.5,17.7 M20.3,18.5c0.2-0.9,0.4-1.4,0.4-2.1
	C20.4,16.6,20.3,17.5,20.3,18.5 M21.2,16.6c0.1-0.3,0.1-0.7,0-1.1c-0.1,0.3-0.3,1-0.3,1.7C21,17,21.1,16.8,21.2,16.6 M18.9,23.8
	C18.9,23.8,18.9,23.7,18.9,23.8L18.9,23.8C18.9,23.7,18.9,23.7,18.9,23.8c0.1-0.1,0.1,0,0.2,0c0,0,0.1,0,0.1,0.1
	c-0.1-0.2-0.1-0.4-0.1-0.7c0-0.3,0-0.6-0.1-0.9c0,0,0,0,0,0c0,0.1-0.1,0.3-0.2,0.4c-0.1,0.2-0.3,0.4-0.3,0.7l0,0.1l0,0
	c0.1,0.1-0.2-0.3-0.2-0.3c-0.1,0.4-0.8,1.3-1,1.5c0,0-0.3,0.4-0.4,1.4c-0.1,1,0,1.5,0,1.5l0.3-0.3c0,0,0,0.3,0,0.6
	c0,0.2-0.1,0.4-0.1,0.4s0.5,0.1,0.9-0.4l0.1,0.2c0.1,0.2,0.1,0.4,0,0.5c0,0-0.3,0.2-0.2,0.4c0,0.1,0.1,0.1,0.1,0.2l0,0v0
	c0,0.1,0.1,0.2,0.2,0.2c0-0.1,0-0.2,0-0.2c0.1-0.1,0.1-0.2,0.2-0.2c0.1,0,0.1,0,0.1,0s0.1,0.6,0.1,0.8c0,0.2,0.1,0.5,0.1,0.8
	c0,0.1,0,0.1,0,0.2c0,0.2,0.1,0.2,0.2,0.2c0.1,0,0.2,0,0.2,0l0,0l0,0c-0.2,0-0.1,0.1-0.1,0.1c0,0.1,0.1,0.2,0,0.4l0,0
	c0.2-0.1,0.2-0.3,0.2-0.5v0l0,0c0.2-0.1,0.1-0.4-0.1-1c-0.1-0.2-0.2-0.7-0.1-0.7c0,0,0,0,0,0c0,0,0.1,0,0.2,0.2
	c0.1,0.1,0.2,0.2,0.3,0.3c0.1,0.1,0.2,0.2,0.2,0.3c0,0,0,0.1,0,0.1c0,0,0,0-0.1,0c0,0-0.1,0-0.2,0c0.1,0.1,0.3,0.3,0.3,0.2
	c0.2-0.2,0,0.1,0.3,0.1c0.2,0,0.3-0.1,0.3-0.3c0-0.1,0-0.1,0-0.2c0-0.2-0.2-0.4-0.3-0.5l-0.1-0.1c-0.5-0.5-0.4-0.6-0.4-0.7
	c0-0.1,0.1-0.1,0.2-0.1c0.2,0,0.4,0,0.4,0c0.2,0,0.5,0.1,0.5,0.2c0,0,0,0,0,0.1c-0.1,0-0.2,0.1-0.2,0c0,0,0.1,0.1,0.2,0.1
	c0.1,0,0.4,0.1,0.5,0l0-0.1c0.1,0,0.2,0,0.2-0.1c0-0.1-0.1-0.2-0.2-0.3c-0.1-0.1-0.4-0.2-0.7-0.3c-0.1,0-0.2-0.1-0.3-0.1l-0.6-0.1
	c0,0-0.3-0.1-0.4-0.1c-0.1,0-0.1,0-0.1-0.1c-0.1-0.1-0.2-0.1-0.2-0.2c-0.1-0.1-0.1-0.3-0.2-0.6c0.1,0,0.2,0.1,0.4,0.2
	c0-0.1,0-0.4,0-0.5c0.1-0.9,0.1-1.4,0.1-1.4s0.2,0.2,0.2,0.2c0-0.2,0-0.5-0.1-0.9v0C19,24.6,18.9,24.1,18.9,23.8 M19.5,28.1l0.4,0.1
	c0.1,0,0.1,0,0.2,0c0.1-0.2,0.1-0.4,0.1-0.6c0-0.2,0.5,0.3,0.9,0.6c0.2,0.2,0.2,0.1,0.1,0c-0.4-0.5-1.1-1-1.3-1.1
	c-0.3-0.2-0.5-0.2-0.4,0C19.7,27.4,19.7,27.8,19.5,28.1 M20.2,31.7c0.4,0.5,1.1,1.5,1.3,1.7c0.5,0.6,0.8,0.6,1.2,0.6
	c-0.1-0.4-0.3-0.8-0.9-1.8c-0.3-0.5-0.9-1.4-1.4-2c0,0.1,0,0.2,0,0.3c0,0,0,0,0,0.1c0,0.1-0.1,0.1-0.2,0.2c-0.1,0.1-0.2,0.1-0.3,0.1
	c-0.1,0-0.2-0.1-0.3-0.1c-0.1,0-0.1,0-0.2-0.1c0,0.2,0,0.3-0.1,0.4c0,0.1,0,0.4-0.2,0.5c0,0,0,0,0,0c0.1,0.2,0.1,0.4,0,0.4
	c-0.1,0.1-0.7,0.8-0.9,0.9c-0.2,0.2-0.4,0-0.4,0L17.7,33c0,0-0.2,0.2-0.3,0.3c0,0,0,0,0,0v0c0.2,0.2,0.5,0.3,0.7,0.4
	c0.2,0.1,0.9,0.4,1.4,0.5c-0.1-0.3-0.2-0.7-0.4-1.1c0.1,0.2,0.5,0.8,0.7,1.3c0,0,0,0,0,0c0.4,0.2,0.9,0.4,1.2,0.6
	c0-0.1-0.1-0.2-0.1-0.2s-0.3-0.4-0.6-0.7c-0.5-0.7-0.8-1.4-0.9-1.9c0.5,0.8,0.7,1,0.9,1.3c0.7,0.9,1.4,1.3,1.7,1.3
	c-0.1-0.5-0.3-0.6-0.3-0.6s-0.3-0.3-0.7-0.8c0.1,0.1,0.2,0.2,0,0c-0.1-0.2-0.1-0.1,0,0C20.9,33.2,20.5,32.6,20.2,31.7 M18.3,36.2
	c0.9,0.1,2.9,0.1,3.6-0.2c-0.3-0.2-1.4-0.9-3.1-1.6c-0.4-0.1-0.8-0.3-1.1-0.5c-0.2-0.1-0.3-0.2-0.5-0.4c-0.6-0.5-2-2.1-2.3-2.4
	l-1,0.9c0,0,2.6,2.5,3.3,2.9c0.8,0.5,3.2,1,3.2,1s-1.8-0.1-3.2-0.7c-0.8-0.3-3.5-3-3.5-3L13,32.8c0.3,0.4,1,1.2,2.2,2.1
	C16,35.6,17,36,18.3,36.2 M15.5,35.6c0,0.5,0.4,1,0.5,1.1c0,0,0.2-0.2,0.2-0.7C15.9,35.9,15.6,35.7,15.5,35.6 M11,32.4
	c-0.2,0.5-0.5,1.2-0.9,1.9c-0.2,0.3-0.6,0.7-0.6,0.7s0,0.1,0,0.2l-0.1,0l0.4-0.2c0.1,0,0.1-0.1,0.2-0.1c0.3-0.1,0.5-0.3,0.8-0.4
	c0.3-0.5,0.6-1.1,0.7-1.3c0,0.1-0.1,0.5-0.4,1.1l0.2-0.1c0.4-0.2,0.8-0.3,1-0.4c0.3-0.1,0.4-0.3,0.6-0.3c0,0,0.1-0.1,0.1-0.1
	c0,0-0.3-0.3-0.3-0.3l-0.1,0.1c0,0-0.2,0.2-0.4,0c-0.1-0.1-0.8-0.9-0.9-0.9c-0.1-0.1-0.1-0.2,0-0.4c0,0,0,0,0,0
	c-0.2-0.2-0.2-0.4-0.2-0.6c-0.1-0.1-0.1-0.2-0.1-0.4c-0.1,0-0.1,0.1-0.2,0.1c-0.1,0.1-0.2,0.1-0.3,0.1c0,0,0,0,0,0
	c-0.1,0-0.2,0-0.3-0.1c-0.1-0.1-0.1-0.1-0.2-0.2c0,0,0,0,0,0c-0.4,0.4-0.7,0.9-1.2,1.7c-0.6,1-0.8,1.4-0.9,1.7
	c0.4,0,0.6-0.1,1.2-0.7c0.2-0.3,0.9-1.2,1.3-1.7c-0.3,0.9-0.7,1.5-1,1.9c-0.4,0.5-0.7,0.8-0.7,0.8S8.6,34.5,8.5,35
	c0.3,0,1-0.4,1.7-1.3C10.3,33.4,10.5,33.2,11,32.4 M10.6,29.7c-0.2,0.2-0.3,0.4-0.4,0.7c0,0.2,0.1,0.3,0.3,0.3
	c0.3,0,0.1-0.3,0.3-0.1c0.1,0.1,0.3-0.2,0.3-0.2c-0.1,0-0.3,0-0.3-0.1c0-0.1,0.1-0.2,0.2-0.3c0.1-0.1,0.3-0.5,0.4-0.5
	c0.1,0,0,0.5-0.1,0.7c-0.2,0.5-0.3,0.9-0.1,1l0,0l0,0c0,0.2,0,0.4,0.2,0.5l0,0c-0.1-0.2,0-0.3,0-0.4c0,0,0-0.1-0.1-0.1l0,0l0,0
	c0.1,0,0.2,0,0.2,0c0.1,0,0.2,0,0.2-0.2c0-0.1,0-0.1,0-0.2c0-0.3,0.1-0.6,0.1-0.8c0.1-0.2,0.1-0.8,0.1-0.8s0.1,0,0.1,0
	c0.1,0,0.2,0,0.2,0.2c0,0,0,0.1,0,0.2c0.1,0,0.1-0.1,0.2-0.2l0,0l0,0c0.1-0.1,0.1-0.1,0.1-0.2c0-0.2-0.2-0.4-0.2-0.4
	c-0.1-0.1-0.1-0.3,0-0.5l0.1-0.2c0.1,0.1,0.2,0.2,0.3,0.2c0.3,0.2,0.7,0.2,0.7,0.2s-0.1-0.2-0.1-0.4c0-0.3,0-0.6,0-0.6l0.3,0.3
	c0,0,0.2-0.5,0.1-1.5c-0.1-1.1-0.3-1.5-0.4-1.7c-0.1-0.2-0.2-0.5-0.2-0.5s0,0.1-0.2,0.3c-0.2-0.3-0.6-0.8-0.7-1.1
	c-0.1,0.1-0.1,0.2-0.2,0.3l0,0l0-0.1c0-0.3-0.2-0.5-0.3-0.7c-0.1-0.1-0.2-0.3-0.3-0.4c-0.1,0.3-0.1,0.6-0.1,0.9c0,0.3,0,0.5-0.1,0.7
	c0.1,0,0.1-0.1,0.1-0.1c0.1,0,0.1-0.1,0.1-0.1l0,0l0,0c0,0,0,0,0,0c-0.1,0.4-0.2,0.8-0.2,1.1c0,0.4,0,0.7,0,0.9c0,0,0.3-0.2,0.3-0.2
	s-0.2,0.6-0.1,1.5c0,0.1,0,0.4,0,0.5c0.2,0,0.3-0.1,0.4-0.2c-0.1,0.2-0.1,0.5-0.2,0.6c-0.2,0.3-0.7,0.4-1.1,0.5
	c-0.4,0.1-0.9,0.2-1.3,0.4c-0.1,0.1-0.3,0.2-0.2,0.3c0,0.1,0.2,0.1,0.2,0.1l0,0.1c0.1,0.1,0.4,0.1,0.5,0c0.1,0,0.2-0.1,0.2-0.1
	c0,0-0.1,0-0.2,0c0,0,0,0,0-0.1c0-0.2,0.8-0.2,0.9-0.2c0.1,0,0.2,0,0.2,0.1C11.1,29.1,11.1,29.2,10.6,29.7 M10.9,27.2
	c0.1-0.2-0.1-0.2-0.4,0c-0.2,0.1-0.9,0.6-1.3,1.1c-0.1,0.1-0.1,0.2,0.1,0c0.4-0.4,0.9-0.9,0.9-0.6c0,0.2,0,0.4,0.1,0.6
	c0.1,0,0.1,0,0.2,0l0.5-0.1C10.8,27.8,10.7,27.4,10.9,27.2 M10.1,20c0.3,0.4,0.9,1.8,0.9,2.8c0.4-1-0.2-2.9-0.8-3.9
	c0,0.3-0.1,0.4-0.2,0.5c-0.1-1.2-0.9-2.1-1-2.9c0,0.1,0,0.3-0.1,0.4c-0.3-0.5-0.5-1-0.7-1.7c0,0.1-0.1,0.3-0.1,0.5
	c-0.4-1,0-1.5,0.1-1.5c0.3-0.2,0.6,0.1,0.9,0.4c0.4,0.4,0.8,1.3,2.2,1.4c0.2,0,0.3,0,0.2-0.1c0,0,0,0,0,0c-1.1-0.2-1.3-0.7-2.2-1.7
	c-0.6-0.6-1.2-1-1.8-0.2c-1.3,1.6-1.8,2.9-2,4c-0.1,0.6-0.2,1.9-0.1,2.6c0.2-0.1,0.2-0.1,0.2-0.1s0.2,1.8,0.5,2.2
	c0.1-0.2,0.2-0.7,0.2-1.1c0.2,0.5,0.3,0.8,0.6,1.1c0.1-0.4,0.1-0.9,0.1-1.3c0.3,0.6,0.5,0.9,0.6,1C7.5,22,7.6,21.5,7.5,20
	c0.1,0.6,0.2,1,0.2,1.3c0.1,0.1,0.2,0.1,0.3,0.2c0.1-0.1,0.2-0.4,0-2.2c0.6,2,0.3,2.5,0.2,2.7c-0.2-0.1-0.3-0.3-0.4-0.4
	c0,0.6-0.1,0.8-0.2,1.1c-0.2-0.1-0.4-0.3-0.5-0.5c0,0.6-0.1,1-0.1,1s-0.5-0.5-0.6-0.9c0,0.2-0.2,1-0.3,1.1c-0.5-0.7-0.7-2.6-0.7-2.6
	s0,0-0.1,0.1c0,0.5,0.1,1.2,0.2,2v0c0.1,1,0.2,2,0.3,3c0.2,2.3,0.5,4.6,0.8,6.9c0,0,0,0.4,0.1,0.6c0.1-0.2,0.1-1.1,0-1.6
	c0-0.1,0.2-0.3,0.2-1c0-0.3-0.3-3.8-0.4-5.2c0-0.2,0-0.5,0-0.5c0,0,0,0.1,0,0.1c0.1,0.5,0.2,1,0.3,1.6c0,0.3,0.1,0.6,0.1,1
	c0.1,1,0.3,2.1,0.3,3.1c0,0.7-0.2,0.8-0.2,1c0.1,0.8,0,1.6-0.2,2.1c-0.1,0-0.1-0.1-0.1-0.1c0.1,0.6,0.3,1.1,0.3,1.1
	c0.2-0.5,0.4-1.1,0.3-2.5c0-0.1,0.2-0.4,0.2-1.1c0-0.2,0-0.9-0.1-1.7c-0.1-1.5-0.2-3-0.4-4.5c0-0.1,0-0.2,0-0.3c0,0.1,0,0.1,0,0.2
	c0.4,1.9,0.6,3.9,0.7,5.9c0,0.9-0.3,1.5-0.3,1.7c0,0.4,0,0.4,0,0.8c0,0.5,0,0.5,0,0.5c0.2-0.3,0.6-1.5,0.5-5.1c0-0.1,0-0.2,0-0.3
	c-0.1-2.5-0.3-4.1-0.3-4.1c0.2,0.7,0.4,2.2,0.6,3.9c0,0,0-0.1,0-0.1c0.3-0.7,0.3-1.3,0.3-2c-0.1-1.3-0.2-2.4-0.2-2.4
	c0,0,0,0.1,0,0.1c0,0.1,0.2,0.5,0.3,1.2c0.1,0.5,0.2,0.9,0.2,1.4c0,0.1,0,0.1,0,0.2c0.5-0.7,0.3-2.2,0-3.8c0.2,0.5,0.6,1.9,0.5,2.9
	c0.7-0.7,0.3-2.1,0.1-3.7c0.4,1,0.7,2.1,0.6,2.9c0.6-0.8,0.4-1.8-0.2-3.9c0.3,0.5,0.8,1.8,0.8,2.6C10.9,22.8,10.5,21.2,10.1,20
	 M16.8,24.5c0,0,0.3-0.3,0.4-1.3c0.1,0.1,0.2,0.1,0.2,0.3c0.2-0.2,0.6-1.6,0.7-2.1c0.1,0.1,0,0,0.2,0.1c0.1-0.2,0.3-1,0.4-2
	c0.1,0,0.1,0,0.2,0.1c0.1-0.5,0.1-1.3,0.2-1.8c0-0.5,0-1.4-0.2-2c-0.2-0.6-0.3-0.9-0.6-1.4c0,0-0.1,0.1-0.2,0.1
	c-0.1-0.3-0.3-0.9-0.5-1.2c-0.3-0.6-0.5-1-0.8-1.2c0.1,0,0.2,0,0.4,0C17,12,17,11.9,16.7,11.7c0.1-0.1,0.2,0,0.4,0
	c-0.3-0.3-0.4-0.7-1.2-1c0.1,0,0.3,0,0.4,0c-0.1-0.2-0.4-0.4-0.7-0.5c-0.8-0.2-2-0.2-2.5,0.4c0,0-0.2,0.1-0.3,0.1
	c-0.1,0-0.1,0.1-0.2,0.1c-0.1,0.1-0.1,0.2,0.1,0.4c-0.2,0-0.3-0.3-0.3-0.2c-0.1,0.1-0.2,0.1-0.2,0.3c-0.1,0.1-0.1,0.4-0.1,0.5
	c0,0,0.2,0.1,0.3-0.1c0-0.1,0.4-0.1,0.5-0.1c0.2,0,0.3,0,0.6,0c-0.1,0-0.3,0.1-0.4,0.1c-0.1,0-0.1,0.1,0,0.1c0.1,0,0.1,0,0.3-0.1
	c0,0,0,0.1,0,0.2c0.7-0.2,0.7,0.6,1.4,0.4c-0.3-0.3-0.6-0.7-0.9-0.8c0.7,0.1,1.1,0.7,1.8,0.8c0-0.1,0-0.1-0.1-0.2
	c0.3,0,0.4,0.2,0.5,0.2c-0.1,0.1-0.3,0.2-0.6,0.2c0.1,0.1,0.3,0.1,0.4,0.1c-0.2,0.1-0.3,0.2-0.7,0.1c-0.1,0.1-0.3,0.3-0.8,0.6
	c0-0.1,0-0.1,0-0.2c-0.3,0.2-0.5,0.5-0.8,0.6c0.1-0.1,0.1-0.3,0.2-0.4c-0.9,0.8-1.7,1.5-2,2.1c-0.3,0.6-0.5,1.3-0.4,2.3
	c0,0.6,0.3,2.2,0.3,2.5c0.1,0,0.1-0.1,0.2-0.1c0.2,1.2,0.8,2.8,1.1,3.4c0.1-0.1,0.1-0.2,0.2-0.3c0.1,0.3,0.2,0.7,0.5,0.9
	c0-0.2,0.1-0.3,0.1-0.4c0.1,0.2,0,0.9,0.4,1.3c0-0.2,0-0.4,0.1-0.6c0.1,0.2,0.1,0.5,0.2,0.7c0.1,0.3,0.3,0.5,0.4,0.6
	c0-0.6,0.1-0.5,0.1-0.8c0,0,0.2,0.2,0.3,1c0.4-0.3,0.6-1.4,0.6-1.4c0,0,0.1,0.1,0.2,0.4c0.4-0.4,0.5-0.9,0.6-1.3
	C16.8,24.1,16.8,24.4,16.8,24.5 M17.2,30c0.5,0,0.6,0,0.8,0c0-0.1,0-0.1,0-0.2c0,0,0-0.1,0-0.1c0,0,0,0,0,0c-0.2,0-0.5,0.1-0.9,0.1
	c-0.2,0-0.2,0-0.4-0.1c-0.1,0-0.4,0.2-0.6,0.4c-0.2,0.2-0.4,0.4-0.5,0.5c0,0,0,0,0,0c0.2,0.2,2.2,2,2.4,2.2c0,0,0.1,0,0.1,0
	c0.1-0.1,0.2-0.2,0.4-0.4c0,0-2-1.9-2.1-1.9c0,0,0-0.1,0-0.1c0,0,0.1-0.1,0.1-0.1c0,0,0.1,0,0.1,0c0,0,0.7,0.6,0.7,0.6l0.9,0.8
	l0.6,0.5c0.1-0.1,0.1-0.1,0.1-0.1c0.1-0.1,0.1-0.2-0.2-0.4c-0.1-0.1-1.4-1.4-1.4-1.4C17,30.1,17.1,30,17.2,30 M14.1,30.5
	c0,0-2.1,1.9-2.1,1.9c0.1,0.1,0.3,0.3,0.4,0.4c0,0,0.1,0,0.1,0c0.1-0.1,2.2-2,2.4-2.2c0,0,0,0,0-0.1c-0.1-0.1-0.3-0.3-0.5-0.5
	c-0.2-0.2-0.4-0.4-0.6-0.4c-0.2,0-0.2,0.1-0.4,0.1c-0.4,0.1-0.8,0-0.9-0.1c0,0,0,0,0,0c0,0.1,0,0.1,0,0.1c0,0,0,0.1,0,0.1
	c0.2,0,0.3,0,0.9,0c0.2,0,0.3,0.1,0.1,0.2c0,0-1.3,1.3-1.4,1.4c-0.3,0.3-0.3,0.3-0.2,0.4c0,0,0,0,0.1,0.1l0.6-0.5l0.9-0.8
	c0,0,0.6-0.6,0.7-0.6c0,0,0.1,0,0.1,0C14,30.3,14.1,30.4,14.1,30.5C14.1,30.4,14.1,30.4,14.1,30.5 M14.3,25.7c0,0,0-0.1-0.1-0.3
	c0-0.1-0.2-0.2-0.2-0.3c-0.1-0.1-0.1-0.1-0.1-0.1c0,0.1,0,0.3,0,0.3c0,0.1,0.1,0.2,0.2,0.2C14.2,25.7,14.3,25.7,14.3,25.7
	 M14.2,29.6c0,0,0.2,0.1,0.2,0.2c0-0.2,0.1-0.9,0.1-1C14.3,29.2,14.2,29.5,14.2,29.6 M13.4,29.5c0.1,0,0.3-0.1,0.4-0.1
	c0,0,0.1,0,0.1,0c0.1-0.2,0.2-0.5,0.2-0.7C14,28.7,13.5,29.4,13.4,29.5 M14.9,30.3c0-0.3,0-0.6,0-0.7c-0.1,0.1-0.1,0.3-0.2,0.5
	C14.7,30.1,14.9,30.3,14.9,30.3 M15.1,28.4c0,0-0.1-0.4-0.3-0.5C14.8,28.2,15.1,28.4,15.1,28.4 M15.3,27.9L15.3,27.9L15.3,27.9
	c0,0,0-0.1,0.2-0.2c0.1-0.1,0.7-0.4,0.8-0.6c0.1-0.2,0.2-0.4,0.2-0.4s-0.1,0.2-0.3,0.3c-0.2,0.1-0.6,0.4-0.7,0.5
	c0,0.1-0.1,0.1-0.1,0.2c0,0,0-0.1,0-0.1c-0.1-0.3-0.6-0.4-0.8-0.7c-0.2-0.2-0.2-0.3-0.2-0.3c0,0.2,0,0.3,0.1,0.4
	c0.1,0.1,0.3,0.3,0.6,0.5C15.2,27.7,15.3,27.9,15.3,27.9 M15,26.8c0-0.5-0.5-0.5-0.6-1C14.3,26.5,14.8,26.5,15,26.8 M15.2,28.6
	c0,0,0.1,0,0.2-0.1c0.1-0.1,0.2-0.2,0.3-0.3c0.1-0.1,0.1-0.2,0-0.3c0,0,0,0.1-0.2,0.3c-0.1,0.1-0.2,0.2-0.2,0.2
	C15.3,28.5,15.2,28.6,15.2,28.6 M15.7,28.9c0,0.3,0.1,0.9,0.1,1.1v0c0.1-0.1,0.2-0.2,0.2-0.2C16,29.7,15.9,29.2,15.7,28.9
	 M15.3,30.6c0,0,0.2-0.2,0.2-0.3c0,0,0,0,0,0c0-0.3-0.1-0.8-0.2-1C15.3,29.5,15.3,30.1,15.3,30.6 M15.3,30.8c0,0.1,0,0.3,0,0.3
	c0,0,0.2-0.2,0.2-0.2S15.3,30.8,15.3,30.8 M15.4,31.3c0.3,0.3,0.7,0.7,0.9,0.9c0.2-0.2,0.3-0.3,0.3-0.3l-1-0.9
	C15.5,31.1,15.5,31.2,15.4,31.3 M16.5,32.5c0.2,0.2,0.5,0.5,0.6,0.6c0.1-0.1,0.2-0.2,0.3-0.3l-0.6-0.6
	C16.8,32.2,16.7,32.3,16.5,32.5 M16.7,29.4c-0.1-0.1-0.4-0.5-0.6-0.7c0.2,0.4,0.2,0.6,0.3,0.7c0,0,0,0,0,0c0,0,0.1,0,0.1,0
	C16.6,29.4,16.6,29.4,16.7,29.4C16.7,29.4,16.7,29.4,16.7,29.4 M16.5,25.7c-0.1,0.2-0.2,0.3-0.4,0.5c0-0.1,0.1-0.3,0.1-0.3
	c-0.1,0.2-0.3,0.4-0.4,0.5c-0.3,0.3-0.4,0.6-0.4,0.6s0.1-0.1,0.4-0.3C16.2,26.4,16.4,26.1,16.5,25.7 M11.9,21.7c0,0.4,0.3,0.9,0.6,1
	C12.3,22.2,12.1,22.1,11.9,21.7 M19.3,15.2c0.1,0,0.3,0,0.4-0.1c0.1-0.1,0.1-0.1,0.2-0.2c0.8-1.2,2.4-3.2,3.6-4.8
	c-2.4-2.4-5.9-2.6-6.8-2.5c-0.2,0-0.5,0.2-0.2,0.5c-0.2,0.1-0.9,0-1.2-0.2c-0.3,0.3-1,0.3-1.2,0.2c0.3-0.3,0-0.5-0.2-0.5
	C13,7.6,9.3,8,7.1,10.1c1.2,1.6,3.7,4.9,3.8,5c0,0.1,0.2,0.1,0.3,0.1c0,0,0,0,0.1,0c0.1,0,0.3-0.1,0.4-0.2c0.3-0.3,0.4-0.4,0.6-0.7
	c0.5-0.5,1-0.9,1-1c0.2-0.2,0.3-0.3,0.3-0.5c0-0.2-0.2-0.3-0.2-0.4c0,0,0,0,0,0.1c-0.1-0.1-0.2-0.3-0.2-0.3l0,0.1
	c0,0-0.2-0.4-0.5-0.4C12.3,12,12,11.8,12,11.8c0,0,0,0.1,0,0.3c0,0,0,0,0,0c-0.3-0.2-0.4-0.8,0.2-1.2c0.3-0.2,0.4-0.2,0.6-0.4
	c0.1-0.1,0.2-0.2,0.2-0.2c0.2-0.2,0.5-0.3,0.7-0.4c0.2-0.1,0.8-0.1,1.4-0.1c0.3,0,0.6,0.1,0.9,0.2c0.2,0.1,0.7,0.4,1,0.8
	c0.2,0.2,0.5,0.9,0.7,1.3c0.4,0.9,0.3,0.8,0.6,1.4c0.3,0.7,0.5,1.1,0.7,1.4C19,15.1,19.1,15.2,19.3,15.2 M23.7,9.9
	c0.1-0.1,0.2-0.2,0.2-0.3c-1.1-1-2.8-2-4.6-2.4C18.1,7,17.2,6.9,16.6,7c-0.5,0-0.8,0.2-0.8,0.5c-0.3-0.1-0.4-0.5-0.4-0.5
	c0,0.2-0.2,0.5-0.4,0.5C14.9,7.2,14.5,7,14,7c-0.6,0-1.6,0-2.8,0.3C9.4,7.6,7.8,8.5,6.7,9.5C6.8,9.6,6.9,9.7,7,9.8
	c1-0.9,2.3-1.7,3.7-2.1c1.2-0.3,2.6-0.5,3.3-0.4c0.6,0,0.7,0.4,0.6,0.5c0.3,0,0.7-0.2,0.7-0.4c0.1,0.1,0.4,0.4,0.7,0.4
	c-0.1-0.2,0-0.5,0.6-0.5c0.7,0,2.1,0.1,3.3,0.4C21.3,8.2,22.7,9,23.7,9.9 M24.3,8.7c0.1,0.4,0.3,0.9,0.6,1.2c0,0,0.1,0.1,0.2,0.1
	l0,0c0-0.8,0.3-1.3,0.5-1.8v0c0.3,0,0.7,0.2,1.5,0c-0.8-0.5-0.6-1.1-1.2-1.8c-0.1-0.1-0.1-0.1-0.2-0.2c-0.2-0.1-0.4-0.2-0.5-0.2
	c-0.1,0-0.2,0.1-0.3,0.1c-0.1,0.1-0.9,1-1.4,1.6C24.1,7.8,24.2,8.2,24.3,8.7 M24.9,5.8c-0.5-0.5-1.4-1.1-2.4-1.6
	c-2.7-1.2-6.1-1.2-7.1-1.2c0,0,0,0,0,0l0,0c-1,0-4.4,0-7.1,1.2c-1,0.5-1.9,1-2.4,1.6c0,0,1.2,1.4,1.5,1.7c0.2,0.2,0.2,0.4,0.1,0.7
	c1.9-1.3,4-1.9,7.8-1.9l0.2,0c3.7,0,5.9,0.7,7.8,1.9c-0.1-0.3,0-0.5,0.1-0.7C23.6,7.2,24.9,5.8,24.9,5.8 M5.6,6.2L5.6,6.2
	C5.5,6.1,5.3,6,4.9,6.3C4,7,4.3,7.7,3.4,8.3C3.7,8.3,4,8.4,4.2,8.4c0.1,0,0.3,0,0.4,0c0.2,0,0.3,0,0.4-0.1h0C5.2,8.8,5.5,9.2,5.4,10
	C6.5,9.5,6,7.8,7,7.8C6.5,7.2,5.7,6.3,5.6,6.2 M6.3,9.7c0.7,1,1.3,1.7,1.4,1.9c0.3,0.4,1.1,1.4,1.1,1.3c0-0.1-0.5-0.8-0.9-1.3
	c-0.5-0.7-1-1.4-1.5-2C6.3,9.6,6.3,9.7,6.3,9.7 M9.9,16.4c0,0.7,0.1,1.2,0.4,2.1C10.3,17.6,10.1,16.6,9.9,16.4 M9.4,15.6
	c-0.1,0.3,0,0.7,0,1.1c0.1,0.2,0.2,0.4,0.2,0.6C9.7,16.6,9.5,15.9,9.4,15.6 M11.3,21.9c0.1-0.4,0.3-2.9-0.7-4
	C10.8,18.8,11.2,20,11.3,21.9 M8.5,36c0.7,0.3,2.7,0.3,3.6,0.2c1.2-0.1,2.1-0.5,2.8-1c-0.2-0.2-0.4-0.4-0.7-0.6
	c-0.4,0.3-0.7,0.6-1,0.7c-1.4,0.6-3.2,0.7-3.2,0.7s2.4-0.5,3.2-1c0.2-0.1,0.4-0.3,0.7-0.6c-0.3-0.3-0.6-0.6-0.8-0.8
	c-0.2,0.1-0.3,0.2-0.4,0.3c-0.3,0.2-0.8,0.4-1.1,0.5C9.9,35.1,8.8,35.8,8.5,36 M14.3,36c0.1,0.2,0.2,0.5,0.3,0.7
	c0,0,0.5-0.4,0.6-1.2c-0.1,0.1-0.2,0.2-0.3,0.3C14.6,35.9,14.4,35.9,14.3,36 M23,11.5c0.1-0.1,0.6-0.8,1.3-1.7
	c0-0.1-0.1-0.1-0.1-0.2c-0.5,0.6-1,1.3-1.4,1.9c-0.3,0.5-0.9,1.2-0.9,1.3C21.9,12.9,22.8,11.9,23,11.5 M27,7
	c-0.1,0.1-0.2,0.3-0.2,0.3c0.2,0.4,0.4,0.8,1.1,1.1C27.6,7.9,27.3,7.4,27,7 M26.5,6.6c0,0,0.1,0.2,0.1,0.2C28,5,29.3,3.3,29.3,3.3
	S28.7,3.7,27.9,4C28,4.4,27.7,5,27.6,5.1C27.6,5.1,27.1,5.7,26.5,6.6 M4.1,6.1c0.1,0.1,0.1,0.2,0.2,0.3c1-1.3,2.4-2.3,4.1-2.9
	C8.3,3.3,8.1,2.8,8.6,2.3l0,0c0.7,0.1,0.9,0.5,1,0.8c1.3-0.4,2.9-0.6,4.6-0.6C14.3,1.3,15.1,1,15.1,1s0-0.2,0.2-0.3h0
	C15.5,0.8,15.5,1,15.5,1s0.8,0.3,0.9,1.5c1.7,0.1,3.3,0.3,4.6,0.6c0-0.2,0.2-0.7,1-0.8l0,0c0.5,0.5,0.3,0.9,0.2,1.1
	c1.7,0.6,3.1,1.6,4.2,3c0.1-0.1,0.1-0.2,0.2-0.3c-1-1.2-2.3-2.2-3.8-2.8c0.2-0.5,0-0.9-0.3-1.2c0-0.2-0.1-0.4-0.2-0.4c0,0,0,0,0,0
	c-0.1,0-0.4,0-0.5,0.2c-0.4,0.1-0.8,0.3-1.1,0.7c-1.1-0.3-2.3-0.4-3.9-0.5c0-0.7-0.5-1.2-1-1.4c-0.1-0.3-0.3-0.4-0.5-0.4
	c-0.2,0-0.4,0.2-0.5,0.4c-0.5,0.3-0.9,0.7-1,1.4C12.3,2.3,11,2.4,10,2.7C9.7,2.2,9.3,2,8.9,2C8.7,1.8,8.5,1.7,8.4,1.8
	C8.3,1.8,8.2,2,8.2,2.2C7.9,2.5,7.7,2.9,7.9,3.4C6.4,4,5.1,4.9,4.1,6.1 M4,6.8c0-0.1,0.1-0.1,0.1-0.2C3.5,5.8,3.1,5.2,3.1,5.2
	C3,5,2.7,4.5,2.8,4.1C2,3.7,1.5,3.3,1.5,3.3S2.7,5,4,6.8 M2.7,8.4c0.1-0.1,0.5-0.3,0.8-0.7c0.1-0.2,0.2-0.3,0.3-0.5
	c0,0-0.3-0.3-0.3-0.3C3.3,7.4,3,7.9,2.7,8.4 M0.5,18.6c0.3,0.2,1.5,1.3,3.5,2.4c0.1-1.2,0.1-5.5,2.6-10c-0.3-0.4-0.4-0.6-0.7-0.9
	c-0.2,0.2-0.5,0.4-0.9,0.5c0-0.9-0.2-1.4-0.4-1.9c-0.4,0-1,0-2-0.2C1.4,11.2,0.8,14.4,0.5,18.6 M12.2,38.1L12.2,38.1
	c0.1-0.2,0.4-1,0.6-1.4c0-0.1,0-0.1-0.1-0.2c-0.2,0-0.5,0.1-0.7,0.1c-0.2,0-2.4,0.4-4.1-0.4c0.2-0.1,0.6-0.5,1.1-0.8
	c0,0,0-0.1,0-0.1c-0.4,0.2-0.8,0.3-1.1,0.2c0-0.3,0-0.6,0.2-1c-0.4,0.1-0.7,0-0.7,0s0.2-0.8,0.8-1.8c0.5-0.9,1.2-1.8,1.8-2.6
	c0.1-0.3,0.3-0.5,0.3-0.6c0,0,0.1-0.1,0.1-0.1c-0.1-0.1-0.1-0.1-0.2-0.2c-0.1,0.1-0.1,0.1-0.2,0.1c-0.2,0.1-0.3,0.1-0.4,0.1
	c-0.2,0-0.3,0-0.4-0.1l0,0c-0.2,0-0.3-0.1-0.3-0.3c0,0,0-0.1,0-0.1c-0.1,0-0.2,0-0.3,0c-0.1-0.1,0.1-0.8,0.8-1.4
	c0.5-0.5,0.9-0.7,1.4-0.9c0.3-0.1,0.5,0.1,0.4,0.3c-0.2,0.2-0.3,0.6-0.1,1.1c0.2-0.1,0.3-0.1,0.3-0.1c0.1,0,0.2-0.1,0.3-0.2
	c0,0,0,0,0-0.1l-0.3,0c0.1-0.4-0.1-1.3,0.1-1.8c0,0-0.1,0.1-0.2,0.1c-0.1-0.5-0.1-1.4,0-1.8c0-0.1-0.2-0.3-0.4-0.5
	c-0.2,0.4-0.4,0.9-0.9,1.5c-0.4,0.5-1,0.9-1.4,2.3v0c-0.1,0.2-0.1,0.4-0.2,0.7C8.1,28.7,8.1,29,8.1,29v0c0,0.9,0,2.8-0.2,3.9
	c-0.2,0.9-0.5,1.4-0.5,1.4l0,0c-0.1,0.3-0.2,0.9-0.6,1.3c0,0-0.3-0.6-0.9-5.4C5.2,25,4.9,19.5,4.9,19.5h0c-0.1-1,0.2-2.1,0.4-2.9
	c0.5-1.3,1.4-2.6,1.9-3.1c0.3-0.3,0.7-0.4,1.1-0.3c-0.1-0.1-0.2-0.3-0.2-0.3c-0.4-0.5-0.8-1-1.1-1.5c-2.6,4.5-2.5,9.9-2.5,9.9l0,0.6
	L4,21.6c-2-1.1-2.9-1.8-3.5-2.4c0,0.5-0.1,2.4-0.1,2.4c0,0,0,0.4,0,1.1c0,2.1,0.4,7.4,2.1,11c0.2,0.4,0.9,1.7,2.1,2.8
	c0.9,0.8,1.9,1.4,3.1,1.8c0.1,0,0.2,0.1,0.3,0.1C9.3,38.9,10.8,38.8,12.2,38.1 M12.1,39.6c0.3-0.2,0.7-0.4,1.2-0.2
	c0-0.6,0.1-1.6,0.3-2.4c-0.2,0.2-0.4,0.3-0.4,0.3c0,0-0.1,0-0.1-0.1C12.7,38.2,12.1,39.5,12.1,39.6 M17.2,40c0-0.7-0.2-2.4-0.4-3.5
	c0,0,0-0.1-0.1-0.1c0,0-0.1-0.1-0.1-0.1c-0.1,0.2-0.1,0.4-0.2,0.6c-0.1,0.2-0.3,0.5-0.3,0.5c0,0-0.5-0.3-0.8-1c-0.3,0.7-0.8,1-0.8,1
	c0,0-0.2-0.3-0.3-0.5c-0.1-0.1-0.1-0.2-0.1-0.3c-0.2,1.1-0.4,2.8-0.4,3.4c-1-0.6-1.6,0-1.4,0.5c0,0,0,0.1,0.1,0.1
	c0.1,0.2,0.3,0.2,0.5,0.3c0.3,0,0.7,0.1,1.2,0.3c0.4,0.2,0.9,0.5,1.4,1.1c0.5-0.6,1-0.9,1.4-1.1c0.5-0.2,0.9-0.3,1.2-0.3
	c0.2,0,0.4-0.1,0.5-0.3c0,0,0-0.1,0.1-0.1C18.8,40,18.2,39.4,17.2,40 M18.7,39.6c0,0-0.6-1.6-1-2.5c-0.1,0.1-0.2,0.2-0.2,0.2
	c0,0-0.2-0.1-0.3-0.2c0.1,0.7,0.3,1.7,0.3,2.3C18,39.2,18.5,39.3,18.7,39.6 M30.1,21.7c0-0.7,0-1.9-0.1-2.4
	c-0.7,0.5-1.3,1.1-3.4,2.3l-0.5,0.3l0-0.4c0,0,0.2-5.4-2.4-10c-0.2,0.2-0.7,0.9-1.3,1.6c0.3,0,0.7,0,1,0.3c0.5,0.5,1.4,1.8,1.9,3.1
	c0.3,0.8,0.5,2,0.4,2.9v0c0,0-0.3,5.5-0.9,10.7c-0.6,4.7-0.9,5.4-0.9,5.4c-0.4-0.4-0.5-1-0.6-1.3l0,0c0,0-0.3-0.5-0.5-1.4
	c-0.2-1.1-0.3-3-0.2-3.9v0c0,0,0-0.3-0.2-0.7c-0.1-0.2-0.2-0.4-0.2-0.7c0,0,0,0,0,0c-0.3-1.5-1-1.9-1.4-2.3c-0.4-0.5-0.8-1.1-1-1.6
	c0,0,0,0,0,0c-0.2,0.2-0.4,0.5-0.4,0.6c0.1,0.9,0.2,1.5,0,1.9c-0.1,0-0.1-0.1-0.2-0.1c0.1,0.6-0.2,1.2,0,1.7l-0.3,0c0,0,0,0.1,0,0.1
	c0.1,0.1,0.1,0.1,0.2,0.1c0,0,0.1,0,0.1,0.1c0,0,0.1,0,0.3,0.1c0.2-0.4,0-0.8-0.1-1.1c-0.2-0.2,0-0.5,0.4-0.3
	c0.4,0.2,0.9,0.5,1.4,0.9c0.7,0.7,0.9,1.3,0.8,1.4c-0.1,0.1-0.2,0.1-0.3,0c0,0,0,0,0,0.1c0,0.1-0.1,0.2-0.3,0.3l0,0
	c-0.1,0.1-0.2,0.1-0.4,0.1c-0.2,0-0.4-0.1-0.4-0.1c0,0-0.1,0-0.1-0.1c0,0-0.1,0.1-0.1,0.1c0.6,0.7,1.6,2,2.4,3.3
	c0.5,1,0.8,1.8,0.8,1.8s-0.3,0.1-0.7,0c0.1,0.4,0.2,0.7,0.2,1c-0.3,0-0.7,0-1.1-0.3c0,0.1,0,0.1,0,0.2c0.3,0.2,0.7,0.5,0.9,0.6
	c-1.7,0.8-4.1,0.4-4.1,0.4c-0.1,0-0.2,0-0.3,0c0,0,0,0.1-0.1,0.1c0.2,0.4,0.5,1.3,0.6,1.5c1,0.5,2,0.8,3.5,0.5c0,0,0.3,0,0.9-0.2
	c0.7-0.2,1.9-0.9,2.8-1.8c1.2-1.1,1.9-2.3,2.1-2.7c1.8-3.6,2.1-8.9,2.1-11V21.7z"/>
<path class="st2" d="M38.3,19.8h1l1.9,5.9h-0.8L40,24.3h-2.3l-0.4,1.4h-0.8L38.3,19.8z M38.8,20.5L38.8,20.5l-0.9,3.2h1.9L38.8,20.5
	z"/>
<path class="st2" d="M42.1,25.7v-5.9H44c0.8,0,1.1,0.3,1.3,0.6c0.2,0.3,0.2,0.7,0.2,0.8c0,0.7-0.3,1.2-1,1.4v0
	c0.8,0.1,1.2,0.6,1.2,1.4c0,1.5-1.1,1.7-1.8,1.7H42.1z M42.9,22.3H44c0.6,0,0.9-0.4,0.9-0.9c0-0.5-0.3-0.9-0.9-0.9h-1.1V22.3z
	 M42.9,25.1h1.1c0.8,0,1.1-0.6,1.1-1c0-0.9-0.6-1.1-1.4-1.1h-0.8V25.1z"/>
<path class="st2" d="M47,19.8h0.8v3.8c0,1.3,0.4,1.6,1.1,1.6s1.1-0.3,1.1-1.6v-3.8h0.8v3.8c0,1.6-0.6,2.3-1.9,2.3
	c-1.3,0-1.9-0.6-1.9-2.3V19.8z"/>
<path class="st2" d="M53.9,19.8h1.8c0.8,0,1.3,0.3,1.6,0.9c0.2,0.5,0.3,1.7,0.3,1.9c0,1.3-0.1,2-0.4,2.4c-0.3,0.5-0.9,0.8-2,0.8
	h-1.4V19.8z M54.7,25.1h0.7c1.1,0,1.4-0.4,1.4-1.8v-1.2c0-1.2-0.4-1.6-1.2-1.6h-1V25.1z"/>
<polygon class="st2" points="59,25.7 59,19.8 59.8,19.8 59.8,22.4 61.8,22.4 61.8,19.8 62.6,19.8 62.6,25.7 61.8,25.7 61.8,23 
	59.8,23 59.8,25.7 "/>
<path class="st2" d="M65.3,19.8h1l1.9,5.9h-0.8l-0.4-1.4h-2.3l-0.4,1.4h-0.8L65.3,19.8z M65.8,20.5L65.8,20.5l-1,3.2h1.9L65.8,20.5z
	"/>
<path class="st2" d="M69.1,25.7v-5.9H71c0.8,0,1.1,0.3,1.3,0.6c0.2,0.3,0.2,0.7,0.2,0.8c0,0.7-0.3,1.2-1,1.4v0
	c0.9,0.1,1.2,0.6,1.2,1.4c0,1.5-1.1,1.7-1.8,1.7H69.1z M69.8,22.3h1.1c0.6,0,0.9-0.4,0.9-0.9c0-0.5-0.3-0.9-0.9-0.9h-1.1V22.3z
	 M69.8,25.1h1.1c0.8,0,1.1-0.6,1.1-1c0-0.9-0.6-1.1-1.4-1.1h-0.8V25.1z"/>
<rect x="74.1" y="19.8" class="st2" width="0.8" height="5.9"/>
<path class="st2" d="M79.5,19.8h1l1.9,5.9h-0.8l-0.4-1.4h-2.3l-0.4,1.4h-0.8L79.5,19.8z M79.9,20.5L79.9,20.5L79,23.7h1.9L79.9,20.5
	z"/>
<path class="st2" d="M86,21.4c0-0.7-0.3-1.1-1.1-1.1c-0.2,0-1.1,0-1.1,1.3v2c0,1.3,0.4,1.6,1.1,1.6c0.5,0,0.9-0.2,1.1-0.3v-1.8h-1.1
	v-0.7h1.9v2.9c-0.5,0.3-1,0.4-1.8,0.4c-1.3,0-1.9-0.6-1.9-2.3v-2c0-1.2,0.6-1.9,1.9-1.9c1.3,0,1.9,0.5,1.8,1.7H86z"/>
<path class="st2" d="M88.9,23v2.7h-0.8v-5.9h2c1.1,0,1.4,0.7,1.4,1.5c0,0.7-0.4,1.2-1.1,1.4v0c0.7,0.1,0.9,0.3,1,1.5
	c0,0.3,0.1,1.2,0.2,1.6H91c-0.2-0.4-0.2-1.2-0.2-2C90.7,23,90.1,23,89.8,23H88.9z M88.9,22.3h1.1c0.5,0,0.8-0.5,0.8-1
	c0-0.4-0.2-0.9-0.8-0.9h-1.1V22.3z"/>
<rect x="92.9" y="19.8" class="st2" width="0.8" height="5.9"/>
<path class="st2" d="M97.7,21.4c0-0.3,0-0.7-0.2-0.9c-0.2-0.2-0.5-0.3-0.7-0.3c-0.6,0-0.9,0.4-0.9,0.5c0,0.1-0.2,0.2-0.2,1.2v1.6
	c0,1.5,0.5,1.6,1.1,1.6c0.2,0,0.9-0.1,0.9-1.2h0.8c0,1.9-1.3,1.9-1.7,1.9c-0.7,0-1.9-0.1-1.9-2.4v-1.7c0-1.7,0.7-2.2,1.9-2.2
	c1.2,0,1.6,0.6,1.6,1.8H97.7z"/>
<path class="st2" d="M99.6,19.8h0.8v3.8c0,1.3,0.4,1.6,1.1,1.6s1.1-0.3,1.1-1.6v-3.8h0.8v3.8c0,1.6-0.6,2.3-1.9,2.3
	c-1.3,0-1.9-0.6-1.9-2.3V19.8z"/>
<polygon class="st2" points="104.7,25.7 104.7,19.8 105.4,19.8 105.4,25.1 107.6,25.1 107.6,25.7 "/>
<polygon class="st2" points="111.2,19.8 111.2,20.4 109.6,20.4 109.6,25.7 108.8,25.7 108.8,20.4 107.3,20.4 107.3,19.8 "/>
<path class="st2" d="M111.9,19.8h0.8v3.8c0,1.3,0.4,1.6,1.1,1.6c0.7,0,1.1-0.3,1.1-1.6v-3.8h0.8v3.8c0,1.6-0.6,2.3-1.9,2.3
	c-1.3,0-1.9-0.6-1.9-2.3V19.8z"/>
<path class="st2" d="M117.7,23v2.7h-0.8v-5.9h2.1c1.1,0,1.4,0.7,1.4,1.5c0,0.7-0.4,1.2-1.1,1.4v0c0.7,0.1,0.9,0.3,1,1.5
	c0,0.3,0.1,1.2,0.2,1.6h-0.8c-0.2-0.4-0.2-1.2-0.2-2c-0.1-0.7-0.6-0.8-0.9-0.8H117.7z M117.7,22.3h1.1c0.5,0,0.8-0.5,0.8-1
	c0-0.4-0.2-0.9-0.8-0.9h-1.1V22.3z"/>
<polygon class="st2" points="121.5,25.7 121.5,19.8 124.6,19.8 124.6,20.4 122.3,20.4 122.3,22.4 124.4,22.4 124.4,23 122.3,23 
	122.3,25.1 124.7,25.1 124.7,25.7 "/>
<path class="st2" d="M128.8,19.8h1l1.9,5.9h-0.8l-0.4-1.4h-2.3l-0.4,1.4h-0.8L128.8,19.8z M129.3,20.5L129.3,20.5l-0.9,3.2h1.9
	L129.3,20.5z"/>
<polygon class="st2" points="136.6,19.8 136.6,25.7 135.6,25.7 133.2,20.6 133.2,20.6 133.2,25.7 132.6,25.7 132.6,19.8 133.6,19.8 
	135.9,24.9 136,24.9 136,19.8 "/>
<path class="st2" d="M138,19.8h1.8c0.8,0,1.3,0.3,1.6,0.9c0.2,0.5,0.3,1.7,0.3,1.9c0,1.3-0.1,2-0.4,2.4c-0.3,0.5-0.9,0.8-2,0.8H138
	V19.8z M138.8,25.1h0.7c1.1,0,1.4-0.4,1.4-1.8v-1.2c0-1.2-0.4-1.6-1.2-1.6h-1V25.1z"/>
<polygon class="st2" points="144.8,25.7 144.8,19.8 147.7,19.8 147.7,20.4 145.6,20.4 145.6,22.4 147.6,22.4 147.6,23 145.6,23 
	145.6,25.7 "/>
<path class="st2" d="M148.5,23.6v-2c0-1.2,0.6-1.9,1.9-1.9c1.3,0,1.9,0.8,1.9,1.9v2c0,1.6-0.6,2.3-1.9,2.3
	C149.1,25.9,148.5,25.2,148.5,23.6 M151.4,23.6v-2c0-1.2-0.9-1.3-1.1-1.3c-0.2,0-1.1,0-1.1,1.3v2c0,1.3,0.4,1.6,1.1,1.6
	C151.1,25.2,151.4,24.9,151.4,23.6"/>
<path class="st2" d="M153.5,23.6v-2c0-1.2,0.6-1.9,1.9-1.9c1.3,0,1.9,0.8,1.9,1.9v2c0,1.6-0.6,2.3-1.9,2.3
	C154.1,25.9,153.5,25.2,153.5,23.6 M156.5,23.6v-2c0-1.2-0.9-1.3-1.1-1.3c-0.2,0-1.1,0-1.1,1.3v2c0,1.3,0.4,1.6,1.1,1.6
	C156.1,25.2,156.5,24.9,156.5,23.6"/>
<path class="st2" d="M158.6,19.8h1.8c0.8,0,1.3,0.3,1.6,0.9c0.2,0.5,0.3,1.7,0.3,1.9c0,1.3-0.1,2-0.4,2.4c-0.3,0.5-0.9,0.8-2,0.8
	h-1.4V19.8z M159.3,25.1h0.7c1.1,0,1.4-0.4,1.4-1.8v-1.2c0-1.2-0.4-1.6-1.2-1.6h-1V25.1z"/>
<path class="st2" d="M37.4,33.5v0.2c0,0.8,0.5,1.1,1,1.1c0.6,0,1.1-0.3,1.1-1c0-1.3-2.7-1.2-2.7-3c0-1.1,0.8-1.6,1.7-1.6
	c1.1,0,1.7,0.5,1.6,1.7h-0.8c0-0.7-0.2-1.1-0.9-1.1c-0.5,0-0.9,0.2-0.9,0.9c0,1.3,2.7,1.1,2.7,3c0,1.3-0.9,1.7-1.8,1.7
	c-1.8,0-1.8-1.3-1.7-1.9H37.4z"/>
<path class="st2" d="M42.8,29.3h1l1.9,5.9h-0.8l-0.4-1.4h-2.3l-0.4,1.4h-0.8L42.8,29.3z M43.2,30L43.2,30l-0.9,3.2h1.9L43.2,30z"/>
<polygon class="st2" points="46.4,35.2 46.4,29.3 49.3,29.3 49.3,29.9 47.2,29.9 47.2,31.8 49.2,31.8 49.2,32.5 47.2,32.5 
	47.2,35.2 "/>
<polygon class="st2" points="50.1,35.2 50.1,29.3 53.2,29.3 53.2,29.9 50.9,29.9 50.9,31.8 53,31.8 53,32.5 50.9,32.5 50.9,34.6 
	53.2,34.6 53.2,35.2 "/>
<polygon class="st2" points="57.6,29.3 57.6,29.9 56,29.9 56,35.2 55.2,35.2 55.2,29.9 53.7,29.9 53.7,29.3 "/>
<polygon class="st2" points="60.9,29.3 61.7,29.3 60.1,33 60.1,35.2 59.3,35.2 59.3,33 57.7,29.3 58.6,29.3 59.7,32.2 "/>
<path class="st2" d="M65.6,29.3h1l1.9,5.9h-0.8l-0.4-1.4h-2.3l-0.4,1.4h-0.8L65.6,29.3z M66.1,30L66.1,30l-0.9,3.2H67L66.1,30z"/>
<path class="st2" d="M69.3,29.3H70v3.8c0,1.3,0.4,1.6,1.1,1.6s1.1-0.3,1.1-1.6v-3.8H73V33c0,1.6-0.6,2.3-1.9,2.3s-1.9-0.7-1.9-2.3
	V29.3z"/>
<polygon class="st2" points="77.7,29.3 77.7,29.9 76.1,29.9 76.1,35.2 75.3,35.2 75.3,29.9 73.8,29.9 73.8,29.3 "/>
<polygon class="st2" points="78.5,35.2 78.5,29.3 79.3,29.3 79.3,31.8 81.3,31.8 81.3,29.3 82.1,29.3 82.1,35.2 81.3,35.2 
	81.3,32.5 79.3,32.5 79.3,35.2 "/>
<path class="st2" d="M83.5,33v-2c0-1.2,0.6-1.9,1.9-1.9c1.3,0,1.9,0.8,1.9,1.9v2c0,1.6-0.6,2.3-1.9,2.3C84.1,35.3,83.5,34.7,83.5,33
	 M86.4,33.1v-2c0-1.2-0.9-1.3-1.1-1.3c-0.2,0-1.1,0-1.1,1.3v2c0,1.3,0.4,1.6,1.1,1.6S86.4,34.4,86.4,33.1"/>
<path class="st2" d="M89.2,32.5v2.7h-0.8v-5.9h2c1.1,0,1.4,0.7,1.4,1.5c0,0.7-0.4,1.2-1.1,1.4v0c0.7,0.1,0.9,0.3,1,1.5
	c0,0.3,0.1,1.2,0.2,1.6h-0.8c-0.2-0.4-0.2-1.2-0.2-2c-0.1-0.7-0.6-0.8-0.9-0.8H89.2z M89.2,31.8h1.1c0.5,0,0.8-0.5,0.8-1
	c0-0.4-0.2-0.9-0.8-0.9h-1.1V31.8z"/>
<rect x="93.2" y="29.3" class="st2" width="0.8" height="5.9"/>
<polygon class="st2" points="98.7,29.3 98.7,29.9 97.1,29.9 97.1,35.2 96.4,35.2 96.4,29.9 94.8,29.9 94.8,29.3 "/>
<polygon class="st2" points="102.1,29.3 102.9,29.3 101.2,33 101.2,35.2 100.5,35.2 100.5,33 98.9,29.3 99.7,29.3 100.9,32.2 "/>
<path class="st2" d="M40.2,13.1c0,0.1,0.1,0.2,0.2,0.2h0.5v0.7h-0.6c-0.2,0-0.4-0.1-0.6-0.2c-0.1-0.2-0.2-0.4-0.2-0.7l0-3
	c-0.2,0.1-0.4,0.2-0.6,0.3c-0.2,0.1-0.4,0.3-0.6,0.5c-0.2,0.2-0.4,0.4-0.5,0.6c-0.1,0.2-0.2,0.5-0.2,0.8c0,0.4,0.1,0.7,0.4,0.9
	c0.3,0.2,0.7,0.3,1.2,0.3L39,14.2c-0.5,0-0.9-0.1-1.2-0.2c-0.3-0.1-0.5-0.3-0.7-0.5c-0.2-0.2-0.3-0.4-0.3-0.6
	c-0.1-0.2-0.1-0.4-0.1-0.6c0-0.5,0.1-1,0.4-1.3c0.3-0.4,0.6-0.7,1-1c0.4-0.3,0.8-0.5,1.2-0.6C39.6,9.2,40,9.1,40.2,9V13.1z
	 M38.5,7.9c0,0.1,0,0.2-0.1,0.3c-0.1,0.1-0.2,0.1-0.3,0.1c-0.1,0-0.2,0-0.3-0.1c-0.1-0.1-0.1-0.2-0.1-0.3c0-0.1,0.1-0.2,0.1-0.3
	c0.1-0.1,0.2-0.1,0.3-0.1c0.1,0,0.3,0,0.3,0.1C38.5,7.6,38.5,7.7,38.5,7.9 M40.2,7.9c0,0.1,0,0.2-0.1,0.3c-0.1,0.1-0.2,0.1-0.3,0.1
	c-0.1,0-0.2,0-0.3-0.1c-0.1-0.1-0.1-0.2-0.1-0.3c0-0.1,0.1-0.2,0.1-0.3c0.1-0.1,0.2-0.1,0.3-0.1c0.1,0,0.2,0,0.3,0.1
	C40.1,7.6,40.2,7.7,40.2,7.9"/>
<path class="st2" d="M40.8,14.1c-0.1,0-0.3,0-0.4-0.1c-0.1-0.1-0.1-0.2-0.1-0.2c0-0.1,0.1-0.2,0.1-0.2c0.1-0.1,0.2-0.1,0.4-0.1h1.9
	V9.8h0.8v3.6h0.6v0.7H40.8z M41.7,16c-0.1,0-0.2,0-0.3-0.1c-0.1-0.1-0.1-0.2-0.1-0.3c0-0.1,0-0.2,0.1-0.3c0.1-0.1,0.2-0.1,0.3-0.1
	c0.1,0,0.2,0,0.3,0.1c0.1,0.1,0.1,0.2,0.1,0.3c0,0.1,0,0.2-0.1,0.3C41.9,16,41.8,16,41.7,16 M43.1,16c-0.1,0-0.2,0-0.3-0.1
	c-0.1-0.1-0.1-0.2-0.1-0.3c0-0.1,0-0.2,0.1-0.3c0.1-0.1,0.2-0.1,0.3-0.1c0.1,0,0.2,0,0.3,0.1c0.1,0.1,0.1,0.2,0.1,0.3
	c0,0.1,0,0.2-0.1,0.3C43.4,16,43.3,16,43.1,16"/>
<path class="st2" d="M45.6,9.8h0.7v4.3h-2.2c-0.1,0-0.3,0-0.4-0.1c-0.1-0.1-0.1-0.2-0.1-0.2c0-0.1,0-0.2,0.1-0.2
	c0.1-0.1,0.2-0.1,0.4-0.1h1.4V9.8z M46.5,8c-0.2-0.1-0.4-0.1-0.6-0.1c-0.1,0-0.2,0-0.3,0.1c-0.1,0-0.1,0.1-0.1,0.3
	c0,0.2,0.1,0.3,0.2,0.4c0.1,0.1,0.3,0.1,0.5,0.1h0.4v0.4h-1.9V8.7h0.6c0,0-0.1-0.1-0.1-0.2c0-0.1-0.1-0.2-0.1-0.3
	c0-0.3,0.1-0.4,0.2-0.5c0.2-0.1,0.3-0.2,0.5-0.2c0.3,0,0.5,0.1,0.8,0.2L46.5,8z"/>
<rect x="47.5" y="6.7" class="st2" width="0.7" height="7.3"/>
<path class="st2" d="M49.3,9.9c0.2-0.2,0.4-0.3,0.7-0.4c0.3-0.1,0.6-0.2,1.1-0.2c0.4,0,0.7,0.1,1,0.2c0.3,0.2,0.5,0.4,0.7,0.6
	c0.2,0.3,0.3,0.5,0.4,0.9c0.1,0.3,0.1,0.6,0.1,1c0,0.3,0,0.5-0.1,0.8c-0.1,0.2-0.1,0.5-0.2,0.6h0.8v0.7h-4.7v-0.7h3.1
	c0.1-0.1,0.1-0.3,0.2-0.6c0.1-0.2,0.1-0.5,0.1-0.8c0-0.3,0-0.5-0.1-0.7c-0.1-0.2-0.2-0.4-0.3-0.6c-0.1-0.2-0.3-0.3-0.5-0.4
	C51.5,10,51.3,10,51,10c-0.2,0-0.4,0-0.6,0.1c-0.2,0.1-0.4,0.2-0.7,0.4L49.3,9.9z M51.5,8c0,0.1,0,0.2-0.1,0.3
	c-0.1,0.1-0.2,0.1-0.3,0.1c-0.1,0-0.2,0-0.3-0.1c-0.1-0.1-0.1-0.2-0.1-0.3c0-0.1,0.1-0.2,0.1-0.3c0.1-0.1,0.2-0.1,0.3-0.1
	c0.1,0,0.2,0,0.3,0.1C51.5,7.7,51.5,7.9,51.5,8"/>
<path class="st2" d="M60,11.2c-0.2,0.1-0.4,0.2-0.6,0.3c-0.2,0.1-0.4,0.3-0.7,0.5c-0.2,0.2-0.4,0.4-0.6,0.6
	c-0.2,0.2-0.3,0.5-0.4,0.7h2.7v0.7h-6.4c-0.1,0-0.3,0-0.4-0.1c-0.1-0.1-0.1-0.2-0.1-0.2c0-0.1,0.1-0.2,0.1-0.2
	c0.1-0.1,0.2-0.1,0.4-0.1h2.7c-0.1-0.3-0.3-0.5-0.5-0.7c-0.2-0.2-0.4-0.4-0.7-0.6c-0.2-0.2-0.4-0.3-0.7-0.5
	c-0.2-0.1-0.4-0.2-0.5-0.3c0.1-0.4,0.2-0.7,0.4-0.9c0.2-0.3,0.4-0.5,0.7-0.7c0.2-0.2,0.5-0.3,0.8-0.4c0.3-0.1,0.6-0.1,0.9-0.1
	c0.4,0,0.7,0.1,1.1,0.2c0.3,0.1,0.6,0.3,0.8,0.4c0.2,0.2,0.4,0.4,0.6,0.7C59.7,10.7,59.9,10.9,60,11.2 M55.2,10.9
	c0.1,0.1,0.2,0.2,0.4,0.3c0.2,0.1,0.3,0.3,0.5,0.4c0.2,0.2,0.3,0.3,0.5,0.5c0.2,0.2,0.3,0.4,0.5,0.6c0.1-0.2,0.3-0.4,0.4-0.6
	c0.2-0.2,0.3-0.4,0.5-0.5c0.2-0.2,0.3-0.3,0.5-0.4c0.2-0.1,0.3-0.2,0.4-0.3c-0.1-0.1-0.2-0.2-0.3-0.3c-0.1-0.1-0.2-0.2-0.4-0.3
	C58.2,10.1,58,10,57.8,10c-0.2-0.1-0.4-0.1-0.7-0.1c-0.4,0-0.8,0.1-1.1,0.3C55.7,10.3,55.4,10.6,55.2,10.9 M57.5,7.8
	c0,0.1,0,0.2-0.1,0.3c-0.1,0.1-0.2,0.1-0.3,0.1c-0.1,0-0.2,0-0.3-0.1c-0.1-0.1-0.1-0.2-0.1-0.3c0-0.1,0-0.2,0.1-0.3
	c0.1-0.1,0.2-0.1,0.3-0.1c0.1,0,0.2,0,0.3,0.1C57.5,7.6,57.5,7.7,57.5,7.8"/>
<path class="st2" d="M61,6.7h0.7v7.4h-1.4c-0.1,0-0.3,0-0.4-0.1c-0.1-0.1-0.1-0.2-0.1-0.2c0-0.1,0-0.2,0.1-0.2
	c0.1-0.1,0.2-0.1,0.4-0.1H61V6.7z"/>
<rect x="62.8" y="6.7" class="st2" width="0.7" height="7.3"/>
<path class="st2" d="M70.4,13.1c0,0.1,0.1,0.2,0.2,0.2H71v0.7h-0.6c-0.2,0-0.4-0.1-0.6-0.2c-0.1-0.2-0.2-0.4-0.2-0.7l0-3
	c-0.2,0.1-0.4,0.2-0.6,0.3c-0.2,0.1-0.4,0.3-0.6,0.5c-0.2,0.2-0.4,0.4-0.5,0.6c-0.1,0.2-0.2,0.5-0.2,0.8c0,0.4,0.1,0.7,0.4,0.9
	c0.3,0.2,0.7,0.3,1.2,0.3l-0.1,0.7c-0.5,0-0.9-0.1-1.2-0.2c-0.3-0.1-0.5-0.3-0.7-0.5c-0.2-0.2-0.3-0.4-0.3-0.6
	c-0.1-0.2-0.1-0.4-0.1-0.6c0-0.5,0.1-1,0.4-1.3c0.3-0.4,0.6-0.7,1-1c0.4-0.3,0.8-0.5,1.2-0.6c0.4-0.2,0.7-0.3,0.9-0.3V13.1z
	 M68.7,7.9c0,0.1,0,0.2-0.1,0.3c-0.1,0.1-0.2,0.1-0.3,0.1c-0.1,0-0.2,0-0.3-0.1c-0.1-0.1-0.1-0.2-0.1-0.3c0-0.1,0.1-0.2,0.1-0.3
	c0.1-0.1,0.2-0.1,0.3-0.1c0.1,0,0.2,0,0.3,0.1C68.7,7.6,68.7,7.7,68.7,7.9 M70.4,7.9c0,0.1,0,0.2-0.1,0.3c-0.1,0.1-0.2,0.1-0.3,0.1
	c-0.1,0-0.2,0-0.3-0.1c-0.1-0.1-0.1-0.2-0.1-0.3c0-0.1,0-0.2,0.1-0.3c0.1-0.1,0.2-0.1,0.3-0.1c0.1,0,0.3,0,0.3,0.1
	C70.3,7.6,70.4,7.7,70.4,7.9"/>
<path class="st2" d="M75,9.3v4.7h-4c-0.1,0-0.3,0-0.4-0.1c-0.1-0.1-0.1-0.2-0.1-0.2c0-0.1,0-0.2,0.1-0.2c0.1-0.1,0.2-0.1,0.4-0.1h1
	c-0.1-0.2-0.3-0.3-0.3-0.6c-0.1-0.2-0.1-0.5-0.1-0.8c0-0.5,0.1-0.9,0.4-1.2c0.3-0.3,0.6-0.6,1-0.8c0.4-0.2,0.8-0.4,1.2-0.4
	C74.5,9.4,74.8,9.4,75,9.3 M74.3,10.2c-0.2,0-0.4,0.1-0.6,0.2c-0.2,0.1-0.4,0.2-0.7,0.3c-0.2,0.1-0.4,0.3-0.5,0.5
	c-0.1,0.2-0.2,0.4-0.2,0.7c0,0.5,0.2,0.9,0.5,1.1c0.3,0.2,0.8,0.3,1.5,0.3V10.2z"/>
<path class="st2" d="M81,13.3v0.7h-1.4v-0.7c-0.2,0.2-0.5,0.4-0.7,0.5c-0.3,0.1-0.5,0.2-0.8,0.3c-0.3,0.1-0.5,0.1-0.8,0.1
	c-0.3,0-0.5,0-0.7,0h-0.4v-0.7h0.2c0.1,0,0.3,0,0.4,0c0.2,0,0.3,0,0.5,0c0.2,0,0.4-0.1,0.6-0.1c0.2,0,0.4-0.1,0.6-0.2
	c-0.2-0.7-0.5-1.3-0.7-1.9c-0.3-0.6-0.5-1.1-0.8-1.6c-0.3-0.5-0.6-0.9-0.8-1.2c-0.3-0.4-0.5-0.7-0.8-0.9l0.6-0.5
	c0.2,0.3,0.5,0.6,0.8,1c0.3,0.4,0.6,0.8,0.8,1.3c0.3,0.5,0.6,1,0.8,1.6c0.3,0.6,0.5,1.2,0.7,1.9c0.3-0.4,0.5-0.8,0.5-1.5V6.7h0.7
	v6.6H81z"/>
<path class="st2" d="M87,13.3v0.7h-6c-0.1,0-0.3,0-0.4-0.1c-0.1-0.1-0.1-0.2-0.1-0.2c0-0.1,0-0.2,0.1-0.2c0.1-0.1,0.2-0.1,0.4-0.1
	h0.2c0.3,0,0.5,0,0.6-0.1c0.1-0.1,0.1-0.2,0.1-0.3V9.7h0.8v3.6h1.2V9.7h0.7v3.6h1.1V9.7h0.8v3.6H87z"/>
<path class="st2" d="M87.6,6.7h0.7v7.4H87c-0.1,0-0.3,0-0.4-0.1c-0.1-0.1-0.1-0.2-0.1-0.2c0-0.1,0-0.2,0.1-0.2
	c0.1-0.1,0.2-0.1,0.4-0.1h0.6V6.7z"/>
<rect x="89.5" y="6.7" class="st2" width="0.7" height="7.3"/>
<path class="st2" d="M94.8,14.4c0,0.3,0,0.7-0.1,1c-0.1,0.3-0.1,0.6-0.3,0.8c-0.1,0.2-0.3,0.4-0.6,0.6c-0.3,0.2-0.6,0.2-1,0.2v-0.7
	c0.3,0,0.5-0.1,0.7-0.2c0.2-0.1,0.3-0.3,0.4-0.5c0.1-0.2,0.1-0.4,0.1-0.7c0-0.3,0-0.5,0-0.8v-0.2h-0.4c-0.8,0-1.4-0.2-1.8-0.5
	c-0.4-0.3-0.6-0.8-0.6-1.3c0-0.4,0.1-0.8,0.3-1.1c0.2-0.3,0.4-0.6,0.7-0.9c0.3-0.3,0.7-0.5,1.1-0.6c0.4-0.2,0.9-0.3,1.4-0.3V14.4z
	 M94.1,13.3v-3.2c-0.6,0.2-1.1,0.4-1.5,0.8c-0.4,0.4-0.6,0.8-0.6,1.3c0,0.4,0.1,0.6,0.4,0.8c0.3,0.2,0.7,0.3,1.4,0.3H94.1z"/>
<path class="st2" d="M101.6,13.1c0,0.1,0.1,0.2,0.2,0.2h0.5v0.7h-0.6c-0.2,0-0.4-0.1-0.6-0.2c-0.1-0.2-0.2-0.4-0.2-0.7l0-3
	c-0.2,0.1-0.4,0.2-0.6,0.3c-0.2,0.1-0.4,0.3-0.7,0.5c-0.2,0.2-0.4,0.4-0.5,0.6c-0.1,0.2-0.2,0.5-0.2,0.8c0,0.4,0.1,0.7,0.4,0.9
	c0.3,0.2,0.7,0.3,1.2,0.3l-0.1,0.7c-0.5,0-0.9-0.1-1.2-0.2c-0.3-0.1-0.5-0.3-0.7-0.5c-0.2-0.2-0.3-0.4-0.3-0.6
	c-0.1-0.2-0.1-0.4-0.1-0.6c0-0.5,0.1-1,0.4-1.3c0.3-0.4,0.6-0.7,1-1c0.4-0.3,0.8-0.5,1.2-0.6c0.4-0.2,0.7-0.3,0.9-0.3V13.1z
	 M100,7.9c0,0.1,0,0.2-0.1,0.3c-0.1,0.1-0.2,0.1-0.3,0.1c-0.1,0-0.2,0-0.3-0.1C99.1,8.1,99,8,99,7.9c0-0.1,0-0.2,0.1-0.3
	c0.1-0.1,0.2-0.1,0.3-0.1c0.1,0,0.2,0,0.3,0.1C99.9,7.6,100,7.7,100,7.9 M101.6,7.9c0,0.1-0.1,0.2-0.1,0.3c-0.1,0.1-0.2,0.1-0.3,0.1
	c-0.1,0-0.2,0-0.3-0.1c-0.1-0.1-0.1-0.2-0.1-0.3c0-0.1,0-0.2,0.1-0.3c0.1-0.1,0.2-0.1,0.3-0.1c0.1,0,0.2,0,0.3,0.1
	C101.6,7.6,101.6,7.7,101.6,7.9"/>
<path class="st2" d="M106.5,13.3v0.7h-4.2c-0.1,0-0.3,0-0.4-0.1c-0.1-0.1-0.1-0.2-0.1-0.2c0-0.1,0-0.2,0.1-0.2
	c0.1-0.1,0.2-0.1,0.4-0.1h1.3c-0.2-0.1-0.3-0.3-0.5-0.5c-0.2-0.2-0.3-0.5-0.3-0.9c0-0.3,0.1-0.7,0.2-1c0.2-0.3,0.4-0.6,0.7-0.8
	c0.3-0.2,0.7-0.4,1.1-0.6c0.5-0.2,1-0.3,1.6-0.3v1.6h-0.7v-0.7c-0.7,0.1-1.2,0.3-1.6,0.7c-0.4,0.4-0.6,0.8-0.6,1.2
	c0,0,0,0.1,0.1,0.3c0,0.2,0.1,0.3,0.3,0.5c0.2,0.2,0.5,0.3,0.8,0.4c0.4,0.1,0.9,0.2,1.6,0.2H106.5z"/>
<rect x="107.6" y="6.7" class="st2" width="0.7" height="7.3"/>
<path class="st2" d="M110.4,14.4c0,0.3,0,0.6-0.1,0.9c0,0.3-0.1,0.6-0.3,0.9c-0.1,0.3-0.3,0.5-0.6,0.6c-0.3,0.2-0.6,0.2-1,0.2v-0.7
	c0.3,0,0.5-0.1,0.7-0.2c0.2-0.1,0.3-0.3,0.4-0.4c0.1-0.2,0.1-0.4,0.1-0.6c0-0.2,0-0.5,0-0.7V9.8h0.7V14.4z"/>
<path class="st2" d="M112.6,14.4c0,0.3,0,0.6-0.1,0.9c0,0.3-0.1,0.6-0.3,0.9c-0.1,0.3-0.3,0.5-0.6,0.6c-0.3,0.2-0.6,0.2-1,0.2v-0.7
	c0.3,0,0.5-0.1,0.7-0.2c0.2-0.1,0.3-0.3,0.4-0.4c0.1-0.2,0.1-0.4,0.2-0.6c0-0.2,0-0.5,0-0.7V9.8h0.7v3.6h0.6v0.7h-0.6V14.4z
	 M112.7,8.1c0,0.1,0,0.2-0.1,0.3c-0.1,0.1-0.2,0.1-0.3,0.1c-0.1,0-0.2,0-0.3-0.1c-0.1-0.1-0.1-0.2-0.1-0.3c0-0.1,0-0.2,0.1-0.3
	c0.1-0.1,0.2-0.1,0.3-0.1c0.1,0,0.2,0,0.3,0.1C112.6,7.9,112.7,8,112.7,8.1"/>
<path class="st2" d="M113.9,6.7h0.7v6.6h0.6v0.7h-2c-0.1,0-0.3,0-0.4-0.1c-0.1-0.1-0.1-0.2-0.1-0.2c0-0.1,0-0.2,0.1-0.2
	c0.1-0.1,0.2-0.1,0.4-0.1h0.6V6.7z"/>
<path class="st2" d="M115.9,6.7h0.7v7.4h-1.4c-0.1,0-0.3,0-0.4-0.1c-0.1-0.1-0.1-0.2-0.1-0.2c0-0.1,0-0.2,0.1-0.2
	c0.1-0.1,0.2-0.1,0.4-0.1h0.6V6.7z"/>
<path class="st2" d="M125.9,13.3v0.7h-0.7l-1.3-4.2c-0.2,0.1-0.4,0.2-0.5,0.3c-0.1,0.1-0.3,0.3-0.4,0.4c-0.1,0.2-0.2,0.3-0.2,0.5
	c0,0.2-0.1,0.3-0.1,0.5c0,0.4,0.1,0.7,0.4,1c0.3,0.3,0.6,0.6,0.9,0.8c0.1,0.1,0.2,0.1,0.2,0.1c0.1,0,0.1,0.1,0.1,0.1l0.2,0.3
	c0,0.2-0.1,0.5-0.1,0.7c-0.1,0.3-0.2,0.5-0.4,0.7c-0.2,0.2-0.5,0.4-0.8,0.6c-0.3,0.2-0.7,0.2-1.2,0.2c-0.2,0-0.5,0-0.7-0.1
	c-0.3-0.1-0.5-0.2-0.7-0.4c-0.2-0.2-0.4-0.4-0.5-0.6c-0.1-0.2-0.2-0.5-0.2-0.9v-0.9h0.7v0.9c0,0.2,0,0.4,0.1,0.6
	c0.1,0.2,0.2,0.3,0.4,0.4c0.1,0.1,0.3,0.2,0.5,0.2c0.2,0,0.3,0.1,0.5,0.1c0.4,0,0.7-0.1,0.9-0.2c0.2-0.1,0.4-0.2,0.6-0.4
	c0.1-0.1,0.2-0.3,0.3-0.5c0.1-0.2,0.1-0.3,0.1-0.4l0-0.1c-0.1-0.1-0.3-0.2-0.5-0.4c-0.2-0.1-0.4-0.3-0.6-0.5
	c-0.2-0.2-0.3-0.4-0.5-0.7c-0.1-0.3-0.2-0.6-0.2-0.9c0-0.3,0-0.6,0.2-0.9c0.1-0.3,0.3-0.5,0.5-0.8c0.2-0.2,0.5-0.4,0.8-0.6
	c0.3-0.2,0.6-0.3,1-0.3l1.4,4.3H125.9z M121.5,17.4c0,0.1,0,0.2-0.1,0.3c-0.1,0.1-0.2,0.1-0.3,0.1c-0.1,0-0.2,0-0.3-0.1
	c-0.1-0.1-0.1-0.2-0.1-0.3c0-0.1,0-0.2,0.1-0.3c0.1-0.1,0.2-0.1,0.3-0.1c0.1,0,0.2,0,0.3,0.1C121.5,17.2,121.5,17.3,121.5,17.4
	 M123.1,17.4c0,0.1,0,0.2-0.1,0.3c-0.1,0.1-0.2,0.1-0.3,0.1c-0.1,0-0.2,0-0.3-0.1c-0.1-0.1-0.1-0.2-0.1-0.3c0-0.1,0-0.2,0.1-0.3
	c0.1-0.1,0.2-0.1,0.3-0.1c0.1,0,0.2,0,0.3,0.1C123.1,17.2,123.1,17.3,123.1,17.4"/>
<path class="st2" d="M126.8,13.3V9.8h0.7v3.6h0.6v0.7h-2.3c-0.1,0-0.3,0-0.4-0.1c-0.1-0.1-0.1-0.2-0.1-0.2c0-0.1,0-0.2,0.1-0.2
	c0.1-0.1,0.2-0.1,0.4-0.1H126.8z M126.7,15.6c0-0.1,0-0.2,0.1-0.3c0.1-0.1,0.2-0.1,0.3-0.1c0.1,0,0.2,0,0.3,0.1
	c0.1,0.1,0.1,0.2,0.1,0.3c0,0.1,0,0.2-0.1,0.3c-0.1,0.1-0.2,0.1-0.3,0.1c-0.1,0-0.3,0-0.3-0.1C126.7,15.8,126.7,15.7,126.7,15.6"/>
<path class="st2" d="M128.2,14.1c-0.1,0-0.3,0-0.4-0.1c-0.1-0.1-0.1-0.2-0.1-0.2c0-0.1,0-0.2,0.1-0.2c0.1-0.1,0.2-0.1,0.4-0.1h0.7
	V6.7h0.7v5c0.2-0.3,0.4-0.6,0.7-0.8c0.3-0.3,0.6-0.5,1-0.8c0.4-0.2,0.9-0.4,1.4-0.6c0.5-0.1,1.1-0.2,1.8-0.2h0.4v4.7H128.2z
	 M134.3,10.1c-0.9,0.1-1.6,0.2-2.1,0.5c-0.6,0.3-1,0.6-1.4,0.9c-0.3,0.3-0.6,0.7-0.8,1c-0.2,0.3-0.3,0.6-0.3,0.8h4.6V10.1z
	 M131.7,8.3c0,0.1,0,0.2-0.1,0.3c-0.1,0.1-0.2,0.1-0.3,0.1c-0.1,0-0.2,0-0.3-0.1c-0.1-0.1-0.1-0.2-0.1-0.3c0-0.1,0-0.2,0.1-0.3
	c0.1-0.1,0.2-0.1,0.3-0.1c0.1,0,0.2,0,0.3,0.1C131.7,8.1,131.7,8.2,131.7,8.3"/>
<path class="st2" d="M139.6,14.4c0,0.3,0,0.7-0.1,1c0,0.3-0.1,0.6-0.3,0.8c-0.1,0.2-0.3,0.4-0.6,0.6c-0.3,0.2-0.6,0.2-1,0.2v-0.7
	c0.3,0,0.5-0.1,0.7-0.2c0.2-0.1,0.3-0.3,0.4-0.5c0.1-0.2,0.1-0.4,0.1-0.7c0-0.3,0-0.5,0-0.8v-0.2h-0.3c-0.9,0-1.5-0.2-1.9-0.5
	c-0.4-0.3-0.7-0.8-0.7-1.3c0-0.4,0.1-0.8,0.3-1.1c0.2-0.3,0.4-0.6,0.7-0.9c0.3-0.3,0.7-0.5,1.1-0.6c0.4-0.2,0.9-0.3,1.4-0.3v4.1h0.6
	v0.7h-0.6V14.4z M138.8,13.3v-3.2c-0.6,0.2-1.1,0.4-1.5,0.8c-0.4,0.4-0.6,0.8-0.6,1.3c0,0.4,0.1,0.6,0.4,0.8
	c0.3,0.2,0.7,0.3,1.4,0.3H138.8z"/>
<path class="st2" d="M141.1,13.3V9.8h0.7v4.3h-1.6c-0.1,0-0.3,0-0.4-0.1c-0.1-0.1-0.1-0.2-0.1-0.2c0-0.1,0-0.2,0.1-0.2
	c0.1-0.1,0.2-0.1,0.4-0.1H141.1z M141,15.6c0-0.1,0-0.2,0.1-0.3c0.1-0.1,0.2-0.1,0.3-0.1c0.1,0,0.2,0,0.3,0.1
	c0.1,0.1,0.1,0.2,0.1,0.3c0,0.1,0,0.2-0.1,0.3c-0.1,0.1-0.2,0.1-0.3,0.1c-0.1,0-0.2,0-0.3-0.1C141,15.8,141,15.7,141,15.6"/>
<path class="st2" d="M144.4,5.6c-0.2-0.1-0.4-0.1-0.6-0.1c-0.1,0-0.2,0-0.3,0.1s-0.1,0.1-0.1,0.3c0,0.2,0.1,0.3,0.2,0.4
	c0.1,0.1,0.3,0.1,0.5,0.1h0.4v0.4h-1.9V6.3h0.6c0,0-0.1-0.1-0.1-0.2c0-0.1-0.1-0.2-0.1-0.3c0-0.3,0.1-0.4,0.2-0.5
	c0.2-0.1,0.3-0.2,0.5-0.2c0.3,0,0.5,0.1,0.8,0.2L144.4,5.6z M143.1,7.3h0.7v6.8h-0.7V7.3z"/>
<path class="st2" d="M150.7,13.1c0,0.1,0.1,0.2,0.2,0.2h0.5v0.7h-0.6c-0.2,0-0.4-0.1-0.6-0.2c-0.2-0.2-0.2-0.4-0.2-0.7l0-3
	c-0.2,0.1-0.4,0.2-0.6,0.3c-0.2,0.1-0.4,0.3-0.7,0.5c-0.2,0.2-0.4,0.4-0.5,0.6c-0.1,0.2-0.2,0.5-0.2,0.8c0,0.4,0.1,0.7,0.4,0.9
	c0.3,0.2,0.7,0.3,1.2,0.3l-0.1,0.7c-0.5,0-0.9-0.1-1.2-0.2c-0.3-0.1-0.5-0.3-0.7-0.5c-0.2-0.2-0.3-0.4-0.3-0.6
	c-0.1-0.2-0.1-0.4-0.1-0.6c0-0.5,0.1-1,0.4-1.3c0.3-0.4,0.6-0.7,1-1c0.4-0.3,0.8-0.5,1.2-0.6c0.4-0.2,0.7-0.3,0.9-0.3V13.1z
	 M149,7.9c0,0.1,0,0.2-0.1,0.3c-0.1,0.1-0.2,0.1-0.3,0.1c-0.1,0-0.2,0-0.3-0.1c-0.1-0.1-0.1-0.2-0.1-0.3c0-0.1,0-0.2,0.1-0.3
	c0.1-0.1,0.2-0.1,0.3-0.1c0.1,0,0.2,0,0.3,0.1C149,7.6,149,7.7,149,7.9 M150.7,7.9c0,0.1,0,0.2-0.1,0.3c-0.1,0.1-0.2,0.1-0.3,0.1
	c-0.1,0-0.2,0-0.3-0.1c-0.1-0.1-0.1-0.2-0.1-0.3c0-0.1,0-0.2,0.1-0.3c0.1-0.1,0.2-0.1,0.3-0.1c0.1,0,0.2,0,0.3,0.1
	C150.6,7.6,150.7,7.7,150.7,7.9"/>
<path class="st2" d="M151.3,14.1c-0.1,0-0.3,0-0.4-0.1c-0.1-0.1-0.1-0.2-0.1-0.2c0-0.1,0-0.2,0.1-0.2c0.1-0.1,0.2-0.1,0.4-0.1h1.4
	V9.8h0.8v3.6h0.6v0.7H151.3z M153.7,8c-0.2-0.1-0.4-0.1-0.6-0.1c-0.1,0-0.2,0-0.3,0.1c-0.1,0-0.1,0.1-0.1,0.3c0,0.2,0.1,0.3,0.2,0.4
	c0.1,0.1,0.3,0.1,0.5,0.1h0.4v0.4h-1.9V8.7h0.6c0,0-0.1-0.1-0.1-0.2c0-0.1-0.1-0.2-0.1-0.3c0-0.3,0.1-0.4,0.2-0.5
	c0.2-0.1,0.3-0.2,0.5-0.2c0.3,0,0.5,0.1,0.8,0.2L153.7,8z"/>
<path class="st2" d="M154.2,14.1c-0.1,0-0.3,0-0.4-0.1c-0.1-0.1-0.1-0.2-0.1-0.2c0-0.1,0-0.2,0.1-0.2c0.1-0.1,0.2-0.1,0.4-0.1h1.9
	V9.8h0.8v3.6h0.6v0.7H154.2z M155,16c-0.1,0-0.2,0-0.3-0.1c-0.1-0.1-0.1-0.2-0.1-0.3c0-0.1,0-0.2,0.1-0.3c0.1-0.1,0.2-0.1,0.3-0.1
	c0.1,0,0.2,0,0.3,0.1c0.1,0.1,0.1,0.2,0.1,0.3c0,0.1,0,0.2-0.1,0.3C155.3,16,155.1,16,155,16 M156.5,16c-0.1,0-0.2,0-0.3-0.1
	c-0.1-0.1-0.1-0.2-0.1-0.3c0-0.1,0-0.2,0.1-0.3c0.1-0.1,0.2-0.1,0.3-0.1c0.1,0,0.2,0,0.3,0.1c0.1,0.1,0.1,0.2,0.1,0.3
	c0,0.1,0,0.2-0.1,0.3C156.7,16,156.6,16,156.5,16"/>
<path class="st2" d="M157.5,14.1c-0.1,0-0.3,0-0.4-0.1c-0.1-0.1-0.1-0.2-0.1-0.2c0-0.1,0-0.2,0.1-0.2c0.1-0.1,0.2-0.1,0.4-0.1h1
	c-0.3-0.3-0.4-0.6-0.4-1.1c0-0.2,0-0.4,0.1-0.6c0.1-0.2,0.2-0.4,0.4-0.5c0.2-0.2,0.4-0.3,0.6-0.4c0.2-0.1,0.5-0.1,0.9-0.1
	c0.1,0,0.3,0,0.4,0c0.2,0,0.3,0,0.4,0.1c0.1,0,0.3,0.1,0.4,0.1c0.1,0.1,0.2,0.1,0.2,0.2v2.4h0.6V9.8c-0.1,0-0.3-0.1-0.5-0.1
	c-0.2,0-0.4,0-0.6,0c-0.4,0-0.7,0.1-1.1,0.2c-0.4,0.1-0.6,0.4-0.8,0.7l-0.6-0.4c0.1-0.3,0.3-0.5,0.5-0.6c0.2-0.2,0.4-0.3,0.7-0.4
	c0.2-0.1,0.5-0.2,0.7-0.2c0.2,0,0.5-0.1,0.7-0.1c0.1,0,0.3,0,0.4,0c0.2,0,0.3,0,0.5,0.1c0.2,0,0.3,0.1,0.5,0.1
	c0.2,0,0.3,0.1,0.4,0.1v4.8H157.5z M158.9,12.3c0,0.4,0.1,0.6,0.4,0.8c0.3,0.1,0.7,0.2,1.4,0.3v-2c-0.1,0-0.2,0-0.3,0
	c-0.1,0-0.2,0-0.3,0c-0.4,0-0.7,0.1-0.9,0.3C159,11.7,158.9,12,158.9,12.3"/>
</svg>
