<?xml version="1.0" encoding="utf-8"?>
<!-- Generator: Adobe Illustrator 25.4.1, SVG Export Plug-In . SVG Version: 6.00 Build 0)  -->
<svg version="1.1" id="Layer_1" xmlns="http://www.w3.org/2000/svg" xmlns:xlink="http://www.w3.org/1999/xlink" x="0px" y="0px"
	 viewBox="0 0 162.9 43.1" style="enable-background:new 0 0 162.9 43.1;" xml:space="preserve">
<style type="text/css">
	.st0{fill:#FFFFFF;}
	.st1{fill:#DF1F26;}
	.st2{fill:#1B1613;}
</style>
<g>
	<path class="st0" d="M162.8,21.5c0.1-8.1-1.7-12.6-3.2-14.9c0.5-0.7,0.9-1.1,0.9-1.1c0.2-0.2,0.4-0.4,1-0.5
		c0.2-1.1,0.6-2.3,0.6-2.3s-1.1,0.8-2.1,1.2c0.1,0.5-0.1,0.9-0.2,1.1c0,0-0.3,0.4-0.7,0.9c-0.7-0.8-1.5-1.5-2.6-2.2
		c-0.3-0.2-0.6-0.3-0.9-0.5c0-0.4-0.1-0.8-0.4-1.1c0-0.3-0.2-0.6-0.5-0.7v0c-0.3-0.1-0.7,0.1-0.9,0.2c-0.4,0.1-0.9,0.3-1.2,0.6
		c-0.9-0.2-2-0.3-3.3-0.4c-0.1-0.6-0.5-1-1-1.3c-0.1-0.3-0.5-0.5-0.8-0.5h0c-0.3,0-0.7,0.3-0.8,0.5c-0.5,0.2-0.9,0.7-1,1.3
		c-1.2,0.1-2.3,0.2-3.2,0.4c-0.3-0.3-0.7-0.6-1.2-0.6c-0.2-0.2-0.6-0.3-0.9-0.2v0C140.2,1.5,140,1.8,140,2c-0.3,0.3-0.4,0.7-0.4,1.1
		c-0.3,0.1-0.6,0.3-0.9,0.5c-1.1,0.7-1.9,1.3-2.6,2.1c-0.4-0.5-0.6-0.8-0.6-0.8c-0.1-0.2-0.3-0.5-0.2-1.1c-1-0.4-2.1-1.2-2.1-1.2
		s0.4,1.3,0.6,2.3c0.5,0.1,0.8,0.3,1,0.5c0,0,0.3,0.4,0.8,1c-1.5,2.2-3.4,6.8-3.3,14.9c0,0.8-0.3,7.8,2,12.6c0.3,0.5,1,1.8,2.2,2.9
		c1,1,2.3,1.7,3.7,2c0,0,0.1,0,0.2,0c1.7,0.5,3.2,0.2,3.8-0.1l-0.1,0.2c0,0.1-0.1,0.1-0.1,0.2c-0.3,0.9-0.1,1.8,1.1,1.9
		c0.3,0,0.7,0.1,1.1,0.2c0.3,0.1,0.6,0.4,1,0.7c0.1,0.2,0.5,0.5,0.6,0.9l0,0v0c0.1-0.3,0.5-0.7,0.6-0.9c0.4-0.4,0.7-0.6,1-0.7
		c0.4-0.2,0.8-0.2,1.1-0.2c1.2-0.1,1.4-1,1.1-1.9c0-0.1-0.1-0.1-0.1-0.2c0-0.1-0.1-0.2-0.1-0.2c0.8,0.5,3.3,0.8,5.8-0.7
		c1.7-1.1,2.9-2.2,3.8-4.2C163.2,29.3,162.8,22.1,162.8,21.5 M152.1,14.9c0,0-0.1,0.1-0.2,0.2c-0.1,0.1-0.3,0.1-0.4,0.1
		c-0.2,0-0.3-0.1-0.4-0.2c-0.3-0.4-0.4-0.8-0.7-1.5c-0.2-0.6-0.2-0.5-0.6-1.4c-0.2-0.4-0.5-1.1-0.7-1.4c-0.3-0.4-0.8-0.7-1-0.8
		c-0.2-0.1-0.5-0.2-0.9-0.2c-0.6,0-1.2,0-1.4,0.1c-0.2,0.1-0.5,0.2-0.7,0.4c0,0-0.1,0.1-0.2,0.2c-0.3,0.1-0.3,0.1-0.6,0.4
		c-0.5,0.4-0.5,1-0.2,1.2c0,0,0,0,0,0c0-0.2,0-0.3,0-0.3c0,0,0.3,0.2,0.7,0.1c0.3,0,0.5,0.4,0.5,0.4l0-0.1c0,0,0.1,0.3,0.2,0.3
		c0,0,0,0,0-0.1c0.1,0.1,0.2,0.2,0.2,0.4c0,0.2-0.1,0.3-0.3,0.5c-0.1,0.1-0.5,0.5-1,1c-0.3,0.3-0.4,0.4-0.6,0.7
		c-0.1,0.1-0.3,0.2-0.4,0.2c0,0,0,0-0.1,0c-0.2,0-0.3-0.1-0.3-0.1c-0.1-0.1-2.6-3.4-3.8-5c2.2-2.1,5.8-2.5,6.8-2.4
		c0.2,0,0.5,0.2,0.2,0.5c0.2,0.1,0.9,0,1.2-0.2c0.3,0.3,1,0.3,1.2,0.2c-0.3-0.3,0-0.5,0.2-0.5c0.9-0.1,4.4,0.1,6.8,2.5
		C154.6,11.7,153,13.7,152.1,14.9"/>
	<path class="st1" d="M162.3,19.2c-0.7,0.5-1.3,1.1-3.4,2.3l-0.5,0.3l0-0.4c0,0,0.2-5.4-2.5-10c-0.2,0.2-0.7,0.9-1.3,1.6
		c0.3,0,0.7,0,1,0.3c0.5,0.5,1.4,1.8,1.9,3.1c0.3,0.8,0.5,2,0.4,2.9v0c0,0-0.3,5.5-0.9,10.7c-0.6,4.7-0.9,5.4-0.9,5.4
		c-0.4-0.4-0.5-1-0.6-1.3l0,0c0,0-0.3-0.5-0.5-1.4c-0.2-1.1-0.3-3-0.2-3.9v0c0,0,0-0.3-0.2-0.7c-0.1-0.2-0.2-0.4-0.2-0.7
		c0,0,0,0,0,0c-0.3-1.5-1-1.9-1.4-2.3c-0.4-0.5-0.8-1.1-1-1.6c0,0,0,0,0,0c-0.2,0.2-0.4,0.5-0.4,0.6c0.1,0.9,0.2,1.5,0,1.9
		c-0.1,0-0.1-0.1-0.2-0.1c0.1,0.6-0.2,1.2,0,1.7l-0.3,0c0,0,0,0.1,0,0.1c0,0.1,0.1,0.1,0.2,0.1c0,0,0.1,0,0.1,0.1c0,0,0.1,0,0.3,0.1
		c0.2-0.4,0-0.8-0.1-1.1c-0.2-0.2,0-0.5,0.4-0.3c0.4,0.2,0.9,0.5,1.4,0.9c0.7,0.7,0.9,1.3,0.8,1.4c-0.1,0.1-0.2,0.1-0.3,0
		c0,0,0,0,0,0.1c0,0.1-0.1,0.2-0.3,0.3l0,0c-0.1,0.1-0.2,0.1-0.4,0.1c-0.2,0-0.4-0.1-0.4-0.1c0,0-0.1,0-0.1-0.1c0,0-0.1,0.1-0.1,0.1
		c0.6,0.7,1.6,2,2.4,3.3c0.5,1,0.8,1.8,0.8,1.8s-0.3,0.1-0.7,0c0.1,0.4,0.2,0.7,0.2,1c-0.3,0-0.7,0-1.1-0.3c0,0.1,0,0.1,0,0.2
		c0.3,0.2,0.7,0.5,0.9,0.6c-1.7,0.8-4.1,0.4-4.1,0.4c-0.1,0-0.2,0-0.3,0c0,0,0,0.1-0.1,0.1c0.2,0.4,0.5,1.3,0.6,1.5
		c1,0.5,2,0.8,3.5,0.5c0,0,0.3,0,0.9-0.2c0.7-0.2,1.9-0.9,2.8-1.8c1.2-1.1,1.9-2.3,2.1-2.7c1.8-3.6,2.1-8.9,2.1-11v-1.1
		C162.4,21,162.4,19.8,162.3,19.2"/>
	<path class="st1" d="M144.5,38c0.1-0.2,0.4-1,0.6-1.4c0-0.1,0-0.1-0.1-0.2c-0.2,0-0.5,0.1-0.7,0.1c-0.2,0-2.4,0.4-4.1-0.4
		c0.2-0.1,0.6-0.5,1.1-0.8c0,0,0-0.1,0-0.1c-0.4,0.2-0.8,0.3-1.1,0.2c0-0.3,0-0.6,0.2-1c-0.4,0.1-0.7,0-0.7,0s0.2-0.8,0.8-1.8
		c0.5-0.9,1.2-1.8,1.8-2.6c0.1-0.3,0.3-0.5,0.3-0.6c0,0,0.1-0.1,0.1-0.1c-0.1-0.1-0.1-0.1-0.2-0.2c-0.1,0.1-0.1,0.1-0.2,0.1
		c-0.2,0.1-0.3,0.1-0.4,0.1c-0.2,0-0.3,0-0.4-0.1l0,0c-0.2,0-0.3-0.1-0.3-0.3c0,0,0-0.1,0-0.1c-0.1,0-0.2,0-0.3,0
		c-0.1-0.1,0.1-0.8,0.8-1.4c0.5-0.5,0.9-0.7,1.4-0.9c0.3-0.1,0.5,0.1,0.4,0.3c-0.2,0.2-0.3,0.6-0.1,1.1c0.2-0.1,0.3-0.1,0.3-0.1
		c0.1,0,0.2-0.1,0.3-0.2c0,0,0,0,0-0.1l-0.3,0c0.1-0.4-0.1-1.3,0.1-1.8c0,0-0.1,0.1-0.2,0.1c-0.1-0.5-0.1-1.4,0-1.8
		c0-0.1-0.2-0.3-0.4-0.5c-0.2,0.4-0.4,0.9-0.9,1.5c-0.4,0.5-1,0.9-1.4,2.3v0c-0.1,0.2-0.1,0.4-0.2,0.7c-0.2,0.5-0.2,0.7-0.2,0.7v0
		c0,0.9,0,2.8-0.2,3.9c-0.2,0.9-0.5,1.4-0.5,1.4l0,0c-0.1,0.3-0.2,0.9-0.6,1.3c0,0-0.3-0.6-0.9-5.4c-0.6-5.2-0.9-10.7-0.9-10.7h0
		c-0.1-1,0.2-2.1,0.4-2.9c0.5-1.3,1.4-2.6,1.9-3.1c0.3-0.3,0.7-0.4,1.1-0.3c-0.1-0.1-0.2-0.3-0.2-0.3c-0.4-0.5-0.8-1-1.1-1.5
		c-2.6,4.5-2.5,9.9-2.5,9.9l0,0.6l-0.4-0.2c-2-1.1-2.9-1.8-3.5-2.4c0,0.5-0.1,2.4-0.1,2.4c0,0,0,0.4,0,1.1c0,2.1,0.4,7.4,2.1,11
		c0.2,0.4,0.9,1.7,2.1,2.8c0.9,0.8,1.9,1.4,3.1,1.8c0.1,0,0.2,0.1,0.3,0.1C141.6,38.9,143.1,38.8,144.5,38L144.5,38z"/>
	<path class="st1" d="M145.6,39.4c0-0.6,0.1-1.6,0.3-2.4c-0.2,0.2-0.4,0.3-0.4,0.3c0,0-0.1,0-0.1-0.1c-0.4,1-1,2.3-1,2.4
		C144.7,39.3,145.1,39.2,145.6,39.4"/>
	<path class="st1" d="M149.5,40c0-0.7-0.2-2.4-0.4-3.5c0,0,0-0.1-0.1-0.1c0,0-0.1-0.1-0.1-0.1c-0.1,0.2-0.1,0.4-0.2,0.6
		c-0.1,0.2-0.3,0.5-0.3,0.5c0,0-0.5-0.3-0.8-1c-0.3,0.7-0.8,1-0.8,1c0,0-0.2-0.3-0.3-0.5c-0.1-0.1-0.1-0.2-0.1-0.3
		c-0.2,1.1-0.4,2.8-0.4,3.4c-1-0.7-1.6,0-1.4,0.5c0,0,0,0.1,0.1,0.1c0.1,0.2,0.3,0.2,0.5,0.3c0.3,0,0.7,0.1,1.2,0.3
		c0.4,0.2,0.9,0.5,1.4,1.1c0.5-0.6,1-0.9,1.4-1.1c0.5-0.2,0.9-0.3,1.2-0.3c0.2,0,0.4-0.1,0.5-0.3c0,0,0-0.1,0.1-0.1
		C151.1,40,150.5,39.4,149.5,40"/>
	<path class="st1" d="M149.8,37.3c0,0-0.2-0.1-0.3-0.2c0.1,0.7,0.3,1.7,0.3,2.3c0.5-0.2,0.9-0.1,1.2,0.2c0,0-0.6-1.6-1-2.5
		C149.9,37.2,149.8,37.3,149.8,37.3"/>
	<path class="st2" d="M146.1,17.5L146.1,17.5C146.1,17.5,146.1,17.5,146.1,17.5"/>
	<path class="st2" d="M145.5,17.7L145.5,17.7C145.5,17.7,145.5,17.7,145.5,17.7"/>
	<path class="st2" d="M154.5,20.4c-0.1,0.4-0.2,0.5-0.5,0.7c-0.2-0.5-0.3-0.9,0.5-2.5c-0.5,1.5-0.3,2-0.3,2S154.4,20.5,154.5,20.4
		 M153.7,19.3c0,0-0.2-0.3,0.3-1.7c-0.8,1.3-0.5,2.1-0.5,2.1s0.4-0.2,0.5-0.7C153.9,19.2,153.7,19.3,153.7,19.3 M156.6,17
		c-0.1,1.3-0.2,1.6-0.4,1.8c-0.1-0.1-0.2-0.4-0.2-0.4c0,0.2,0,0.6,0.2,0.8C156.5,19,156.7,18.3,156.6,17 M156.4,16.2
		c-0.2,1.5-0.4,1.8-0.6,2.1c-0.1-0.1-0.2-0.5-0.2-0.5c-0.1,0.3,0,0.7,0.2,0.9C156.1,18.3,156.4,17.5,156.4,16.2 M155.3,17.6
		c-0.1-0.4-0.1-0.8-0.1-0.8c-0.2,0.6-0.1,1.1,0.1,1.3c0.3-0.4,0.8-1.5,0.8-2.5C155.8,16.8,155.4,17.4,155.3,17.6 M154.7,16.8
		c-0.1-0.4,0-1,0-1c-0.3,0.6-0.2,1.3,0,1.6c0.4-0.3,0.9-1.3,0.9-2.3C155.2,16.2,154.9,16.5,154.7,16.8 M156.5,19.3
		c0,0.3,0.2,0.5,0.2,0.5s0.4-0.6,0.3-1.7c-0.1,1-0.3,1.3-0.3,1.3S156.6,19.3,156.5,19.3 M157,19.7c0,0.3,0.2,0.4,0.2,0.4
		s0.4-0.6,0.2-1.5c0,0.9-0.3,1.2-0.3,1.2S157.1,19.8,157,19.7 M138.9,18.9c-0.1-0.2-0.2-0.5-0.4-1.8c-0.1,1.2,0.1,1.9,0.4,2.3
		c0.2-0.2,0.3-0.6,0.2-0.8C139.1,18.6,139,18.8,138.9,18.9 M139.4,18.3c-0.2-0.3-0.4-0.6-0.6-2.1c0,1.4,0.3,2.2,0.6,2.5
		c0.2-0.2,0.3-0.6,0.2-0.9C139.6,17.8,139.5,18.2,139.4,18.3 M139.9,17.6c-0.2-0.2-0.5-0.8-0.7-2c-0.1,1,0.4,2.1,0.8,2.5
		c0.2-0.2,0.3-0.7,0.1-1.3C140,16.8,140,17.2,139.9,17.6 M140.4,16.8c-0.2-0.2-0.5-0.6-0.8-1.8c0,1,0.6,2,0.9,2.3
		c0.2-0.3,0.2-1,0-1.6C140.5,15.8,140.5,16.4,140.4,16.8 M138.4,19.5c0,0-0.2-0.3-0.3-1.3c-0.2,1.1,0.3,1.7,0.3,1.7s0.3-0.2,0.2-0.5
		C138.6,19.4,138.4,19.5,138.4,19.5 M137.9,19.9c0,0-0.2-0.3-0.3-1.2c-0.2,0.9,0.2,1.5,0.2,1.5s0.2-0.2,0.2-0.4
		C138.1,19.8,137.9,19.9,137.9,19.9 M141,20.7c0,0-0.2-0.1-0.3-0.3c0.1,0.4,0.2,0.5,0.5,0.7c0.2-0.5,0.3-0.9-0.5-2.5
		C141.2,20.2,141,20.7,141,20.7 M141.5,19.3c0,0-0.2-0.1-0.4-0.2c0.1,0.5,0.6,0.7,0.6,0.7s0.4-0.9-0.5-2.1
		C141.7,19,141.5,19.3,141.5,19.3 M145.2,25.7c0.1-0.7-0.3-1.3-0.3-1.6c-0.1,0.1-0.1,0.3-0.1,0.3c-0.2-0.3-0.3-0.7-0.4-0.9
		c-0.1,0.5-0.2,0.7-0.3,0.9c0.1,0,0.2,0,0.3-0.1C144.6,25,145,25.1,145.2,25.7 M150.2,24.5c0,0,0-0.2-0.1-0.3
		c-0.1,0.3-0.4,0.9-0.3,1.6c0.2-0.6,0.6-0.7,0.8-1.3c0.1,0.1,0.2,0.1,0.3,0.1c-0.1-0.2-0.2-0.5-0.3-0.9
		C150.5,23.8,150.4,24.3,150.2,24.5 M146.5,23.9c-0.1-0.2-0.2-1-0.5-1.3C145.9,23.1,146.3,23.6,146.5,23.9 M148.4,24.6
		c0.1-0.3,0.4-0.6,0.4-1.6C148.5,23.3,148.4,24.2,148.4,24.6 M147.8,25c0.2-0.4,0.1-0.9,0-1.1C147.6,24.3,147.6,24.7,147.8,25
		 M147.3,23.8c0.2-0.5,0.1-1-0.1-1.3C147.1,23,147.1,23.4,147.3,23.8 M150.6,19.6c-0.3,0.4-0.4,1.2-0.5,1.5
		C150.3,21,150.8,19.8,150.6,19.6 M150.6,18.2c0,0,0.5-0.8,0.2-1.3C150.5,17,150.6,18.2,150.6,18.2 M149.3,20.2c0,0,0.7-0.7,0.7-1.6
		c-0.2,0.6-0.7,0.8-0.7,0.8c0,0-0.3-0.2-0.4-0.6C148.8,19.8,149.3,20.2,149.3,20.2 M150.7,19.2c0.2-0.3,0.5-0.8,0.2-1.1
		C150.9,18.4,150.8,18.8,150.7,19.2 M148.4,22.7c0.1-0.3,0.5-0.8,0.4-1.5C148.5,21.4,148.4,22.3,148.4,22.7 M149.5,21.7
		c0.4-0.5,0.7-1.2,0.5-1.8C149.6,20.5,149.6,21.2,149.5,21.7 M148.5,19.8c-0.1,0.4-0.3,0.7-0.6,1c-0.1-0.1-0.3-0.3-0.5-0.6
		c-0.1,0.7,0.3,1.1,0.6,1.3C148.2,21.4,148.6,20.7,148.5,19.8 M146.6,21.6c-0.1,0-0.5-0.4-0.7-0.7c0.1,0.4,0.6,1.2,0.9,1.4
		c0.1-0.1,0.4-0.8,0.1-1.8C146.9,21.1,146.7,21.5,146.6,21.6 M144.1,16.8c-0.1-0.4,0.4-0.7,0.2-1.2C143.9,16,143.9,16.5,144.1,16.8
		 M144.9,21c0.2,0.4,0.4,0.6,0.6,0.8c-0.3-0.5-0.6-1.3-0.9-1.6C144.7,20.3,144.8,20.7,144.9,21 M144.7,19.1
		c-0.2,0.7,0.5,1.4,0.5,1.4C145.3,20.5,145.3,19.6,144.7,19.1 M145.2,17.7c0,0.3,0,0.6-0.1,0.9c-0.2,0-0.3-0.2-0.4-0.3
		c0.1,0.4,0.6,0.9,0.7,1C145.5,18.8,145.5,18.1,145.2,17.7 M144.9,15.9c0.2-0.7,0.6-1.1,0.7-1.5C144.9,14.8,144.8,15.6,144.9,15.9
		 M144.3,19c-0.1-0.6-0.1-1-0.4-1.6C143.9,18.1,144.2,18.9,144.3,19 M146.1,16.6c-0.5,0.6,0.3,1.4,0.3,1.4
		C146.4,18,146.4,16.9,146.1,16.6 M146.5,15c-0.7,0.5-0.4,1-0.2,1.3C146.4,15.8,146.4,15.6,146.5,15 M146.9,19.8
		c0.1-0.3,0.5-0.8,0.3-1.6c-0.1,0.6-0.5,0.9-0.5,0.9c0,0-0.2-0.1-0.4-0.5C146.3,19.4,146.6,19.6,146.9,19.8 M150.5,15.1
		c-0.1,0.4,0.4,1.3,0.4,1.4C151,16.4,151.2,15.6,150.5,15.1 M149.6,13.5c-0.1,0.3,0.5,0.9,0.5,0.9C150.1,14.3,150.1,13.7,149.6,13.5
		 M150.4,16.1c-0.2,0.8-0.5,1.1-0.5,1c0,0-0.3-0.2-0.5-0.5c0,0.6,0.5,1.2,0.5,1.2C149.9,17.9,150.5,17.3,150.4,16.1 M148.9,14.7
		c-0.3,0.3,0,0.9,0.1,1.5C149.1,15.9,149.3,15,148.9,14.7 M149.1,13.8c0-0.3-0.1-0.8-0.7-0.8C148.3,13.3,148.9,13.5,149.1,13.8
		 M148.4,12.6c0.1,0.1,0.6,0.2,0.9,0.5C149.2,12.7,148.8,12.5,148.4,12.6 M147.8,14.4c-0.4,0.5-0.2,0.9-0.2,0.9
		C147.6,15.3,148.2,14.7,147.8,14.4 M148.4,19c0,0,0.6-0.5,0.6-1.6c-0.3,0.5-0.7,0.8-0.7,0.8c0,0-0.3-0.2-0.5-0.5
		C147.9,18.4,148.5,19,148.4,19 M147.6,16c-0.5,0.7,0,1.5,0,1.5C147.6,17.5,148,16.5,147.6,16 M147.8,10.8c0.1,0.1,0.6,0.3,0.8,0.5
		C148.6,11,148.2,10.8,147.8,10.8 M148,11.2c-0.2-0.3-0.6-0.4-0.8-0.4C147.5,11,147.7,11.2,148,11.2 M148.9,12
		c0-0.1-0.2-0.4-0.7-0.5c0.1,0.1,0.2,0.3,0.2,0.4c-0.1,0-0.3,0.1-0.4,0.1C148.3,12.1,148.5,12.1,148.9,12 M145,10.9
		c0,0-0.1,0.1,0.1,0.2c0.1,0,0.1-0.1,0.1-0.1S145.1,10.9,145,10.9 M148.8,3.6c-0.1-0.1-0.2-0.2-0.4-0.3c-0.1,0.1-0.3,0.2-0.4,0.3
		c0.1,0.1,0.2,0.2,0.4,0.3C148.6,3.7,148.6,3.7,148.8,3.6 M146.5,10.6c0,0,0,0.1,0,0.2c0,0.1-0.1,0.3-0.3,0.3
		c-0.2,0.1-0.5-0.1-0.5-0.3c0-0.1,0-0.1,0-0.2c-0.1,0-0.1,0.1-0.2,0.2c0,0.1-0.1,0.1-0.2,0.1c0-0.1,0.2-0.4,0.3-0.4
		c0.3-0.1,1.2-0.2,1.8,0.2c-0.2,0-0.4,0-0.6,0C146.6,10.6,146.5,10.6,146.5,10.6 M146.4,10.6c0,0-0.2,0-0.2,0c0,0,0.1,0.1,0.2,0.1
		c0,0,0.1,0,0.1,0C146.4,10.7,146.4,10.6,146.4,10.6 M149.4,5.3c-1.8-0.1-5.2,0.1-6.9,0.6c0,0-0.2-0.4-0.3-0.6
		c-0.5-0.5-0.6,0-0.6,0.1c0.6,0,0.7,0.3,0.7,0.3C142,6,141.9,6,141.6,6.3c-0.1,0.1-0.5,0.3-1,0.3c-1.1,0-0.8-1.1-0.1-1.5
		c-0.1,0.1-0.5,0.7-0.2,1c0.3,0.3,1.2,0.1,1.5-0.2c-0.1-0.1-0.4-0.2-0.7-0.1c0-0.2,0.1-0.6,0.6-1.1c0.2,0,0.7,0.3,0.9,0.8
		c1.6-0.4,4.4-0.5,4.5-0.5c0-0.3-0.1-1.3-0.1-1.4c0-0.2,0.1-0.2,0.2-0.3c0.1,0.2,0.2,0.3,0.5,0.4c-0.1,0.1-0.2,0.2-0.3,0.3
		c0,0.2,0,0.6,0,0.7c0.2-0.1,0.6-0.3,1-0.4c0.2,0,0.3-0.1,0.5,0c0.2,0,0.3,0.1,0.4,0.2c0.1,0.1,0.2,0.2,0.2,0.3
		C149.5,4.9,149.4,5.2,149.4,5.3 M149,4.7c-0.2-0.4-1,0-1.6,0.2c0.3,0,0.6,0,0.9,0c0.1,0,0.5,0,0.7,0C149,4.8,149,4.8,149,4.7
		 M141.6,6.6c-0.1,0-0.2-0.1-0.3-0.1c-0.1,0.1-0.2,0.3-0.2,0.4c0.2,0,0.3,0.1,0.4,0.1c0.1-0.1,0.1-0.2,0.2-0.3
		c0.1,0,0.2,0.1,0.3,0.1c0.1-0.1,0.1-0.2,0.2-0.4c-0.2-0.1-0.3-0.1-0.5-0.1C141.7,6.4,141.7,6.5,141.6,6.6 M154.7,5.3
		c0.3,0,0.7,0.1,0.8-0.1C155.3,5.1,155,5,155,4.9c0.1-0.1,0.2,0,0.3,0.1c0.1,0,0.1-0.1,0.1-0.1c-0.2-0.2-0.6-0.1-0.7,0.1
		c0.1,0,0.2,0.1,0.2,0.1C154.9,5.2,154.7,5.2,154.7,5.3 M154.5,5.9c-0.1,0.3-0.3,0.7-0.4,1c0.1,0,0.2,0,0.3-0.1
		c0.4-0.3,0.7-1,0.9-1.4c0,0-0.3,0.1-0.4,0.1C154.6,5.6,154.6,5.6,154.5,5.9 M151.2,6.1c0.1,0.1,0.2,0.2,0.3,0.3
		c0.2-0.1,0.2-0.1,0.4-0.2c-0.1-0.1-0.2-0.2-0.3-0.3C151.5,5.9,151.3,6,151.2,6.1 M154.1,5.7c-0.1,0.2-0.2,0.4-0.4,0.5
		c-0.6-0.2-1.9-0.6-2.7-0.6c-0.2,0.2-0.5,0.5-0.8,0.6c-0.5-0.1-0.7-0.2-1.1-0.3c0.2,0,0.2,0,0.4,0c0.4,0,0.8-0.2,1.1-0.3
		c-0.6-0.1-0.8-0.3-0.5-0.7c0.1-0.2,0.4-0.5,0.7-0.4c0.3,0.1,0.3,0.4,0.3,0.7c0.7,0.1,1.7,0.3,2.4,0.6c0-0.2-0.1-0.3-0.2-0.5
		c0.1-0.1,0.3-0.2,0.4-0.3C154.1,5.1,154.2,5.5,154.1,5.7 M150.6,4.8c0,0-0.1,0.1-0.2,0.2c0.1,0.1,0.2,0.1,0.3,0.1c0,0,0.1,0,0.1,0
		C150.9,5,150.8,4.7,150.6,4.8 M142.7,6.3c0.1,0.1,0.3,0.1,0.4,0.2c0.1-0.1,0.2-0.2,0.3-0.3c-0.2-0.1-0.3-0.1-0.4-0.2
		C142.8,6.1,142.7,6.2,142.7,6.3 M160.9,34.1c-1,1.9-2.2,3.1-3.8,4.2c-2.4,1.5-4.9,1.2-5.8,0.7c0,0,0.1,0.2,0.1,0.2
		c0,0.1,0.1,0.1,0.1,0.2c0.3,0.9,0.1,1.8-1.1,1.9c-0.3,0-0.7,0-1.1,0.2c-0.3,0.1-0.6,0.4-1,0.7c-0.1,0.2-0.5,0.5-0.6,0.9v0l0,0
		c-0.2-0.3-0.5-0.7-0.6-0.9c-0.3-0.4-0.7-0.6-1-0.7c-0.4-0.2-0.8-0.2-1.1-0.2c-1.2-0.1-1.4-1-1.1-1.9c0,0,0.1-0.1,0.1-0.2l0.1-0.2
		c-0.6,0.4-2.1,0.6-3.8,0.1c0,0-0.1,0-0.2,0c-1.4-0.4-2.6-1.1-3.7-2c-1.3-1.2-2-2.5-2.2-2.9c-2.3-4.8-2-11.8-2-12.6
		c-0.1-8.2,1.7-12.7,3.3-14.9c-0.5-0.6-0.8-1-0.8-1c-0.2-0.2-0.4-0.4-1-0.5c-0.2-1.1-0.5-2.3-0.5-2.3s1.1,0.8,2.1,1.2
		c-0.1,0.5,0.1,0.9,0.2,1.1c0,0,0.2,0.3,0.6,0.8c0.7-0.9,1.4-1.5,2.6-2.1c0.3-0.2,0.6-0.3,0.9-0.5c0-0.4,0.1-0.8,0.4-1.1
		c0-0.3,0.2-0.6,0.5-0.7v0c0.3-0.1,0.7,0.1,0.9,0.2c0.4,0.1,0.8,0.3,1.2,0.6c0.9-0.2,2-0.4,3.2-0.4c0.1-0.6,0.5-1,1-1.3
		c0.1-0.3,0.5-0.5,0.8-0.5h0c0.3,0,0.7,0.3,0.8,0.5c0.5,0.2,0.9,0.7,1,1.3c1.2,0.1,2.3,0.2,3.3,0.4c0.3-0.3,0.7-0.6,1.2-0.6
		c0.2-0.2,0.6-0.3,0.9-0.2v0c0.3,0.1,0.5,0.4,0.5,0.7c0.3,0.3,0.4,0.7,0.4,1.1c0.3,0.1,0.6,0.3,0.9,0.5c1.2,0.7,2,1.4,2.6,2.2
		c0.4-0.5,0.7-0.9,0.7-0.9c0.1-0.2,0.3-0.5,0.2-1.1c1-0.4,2.1-1.2,2.1-1.2s-0.4,1.3-0.6,2.3c-0.6,0.1-0.8,0.3-1,0.5
		c0,0-0.3,0.4-0.9,1.1c1.5,2.2,3.3,6.8,3.2,14.9C162.8,22.1,163.2,29.3,160.9,34.1 M160.1,8.5c-1,0.2-1.6,0.2-2,0.2
		c-0.3,0.5-0.4,1-0.4,1.9c-0.4-0.1-0.6-0.2-0.8-0.5c-0.3,0.4-0.4,0.6-0.7,1c2.6,4.6,2.6,8.8,2.6,10c2-1.1,3.3-2.2,3.5-2.4
		C162.1,14.4,161.4,11.2,160.1,8.5 M156.1,21.2c-0.1,0.5-0.1,0.9,0.1,1.3c0.2-0.3,0.4-0.6,0.6-1.1c0,0.4,0.1,0.9,0.2,1.1
		c0.3-0.4,0.5-2.2,0.5-2.2s0,0,0.2,0.1c0.2-0.6,0.1-2-0.1-2.6c-0.2-1.1-0.7-2.4-2-4c-0.7-0.8-1.3-0.4-1.8,0.2
		c-0.9,1-1.1,1.5-2.2,1.7c0,0,0,0,0,0c-0.1,0,0,0.1,0.2,0.1c1.3,0,1.8-0.9,2.2-1.4c0.3-0.3,0.6-0.6,0.9-0.4c0.1,0.1,0.5,0.5,0.1,1.5
		c0-0.2-0.1-0.4-0.1-0.5c-0.2,0.7-0.4,1.3-0.7,1.7c0-0.1-0.1-0.2-0.1-0.4c-0.1,0.8-0.9,1.7-1,2.9c-0.1-0.1-0.1-0.2-0.2-0.5
		c-0.6,1.1-1.2,3-0.8,3.9c0-1,0.6-2.4,0.9-2.8c-0.4,1.2-0.9,2.8-0.5,3.7c0-0.8,0.5-2.1,0.8-2.6c-0.5,2-0.8,3.1-0.2,3.9
		c-0.1-0.8,0.2-1.9,0.6-2.9c-0.3,1.6-0.7,3,0.1,3.7c-0.1-1,0.3-2.4,0.5-2.9c-0.2,1.5-0.5,3,0,3.8c0-0.5,0.1-1.1,0.2-1.6
		c0.1-0.7,0.3-1.3,0.3-1.3s-0.2,1.1-0.2,2.4c0,0.2,0,0.4,0,0.7c0,0.3,0,0.5,0.1,0.8c0,0.2,0.1,0.5,0.2,0.7c0.1-1.7,0.3-3.2,0.6-3.9
		c0,0-0.2,1.6-0.3,4.1c0,0.1,0,0.2,0,0.3c-0.2,3.6,0.3,4.7,0.5,5.1c0,0,0-0.1,0-0.5c0-0.4,0-0.4,0-0.8c0-0.1-0.3-0.8-0.3-1.7
		c0-0.5,0.1-1.1,0.1-1.6c0-0.5,0.1-0.9,0.1-1.4c0.1-0.4,0.1-0.8,0.2-1.2c0.1-0.6,0.2-1.2,0.3-1.7c0.1-0.5,0-0.1,0,0.1
		c0,0.5-0.1,1.6-0.2,2.8c-0.1,0.9-0.3,2.6-0.2,3.4c0,0.7,0.2,1,0.2,1.1c0,1.4,0.1,2,0.3,2.5c0,0,0.1-0.5,0.3-1.1
		c0,0-0.1,0.1-0.1,0.1c-0.2-0.5-0.3-1.2-0.2-2.1c0-0.1-0.2-0.3-0.2-1c0-1,0.2-2.1,0.3-3.1c0-0.3,0.1-0.7,0.1-1
		c0-0.2,0.1-0.4,0.1-0.6c0-0.3,0.1-0.6,0.2-1c0-0.1,0-0.1,0-0.1c0,0,0,0.2,0,0.5c-0.1,1.4-0.4,4.9-0.4,5.2c0,0.7,0.2,0.9,0.2,1
		c0,0.5,0,1.4,0,1.6c0.1-0.2,0.1-0.6,0.1-0.6s0.2-1.4,0.4-3.5c0-0.3,0.1-0.6,0.1-0.9c0-0.3,0.1-0.6,0.1-0.9c0-0.4,0.1-0.7,0.1-1.1
		c0-0.2,0-0.3,0-0.5c0.1-1,0.2-2,0.3-3c0,0,0.1-1.6,0.2-2c0,0-0.1-0.1-0.1-0.1s-0.2,1.9-0.7,2.6c-0.1-0.1-0.3-0.8-0.3-1.1
		c-0.1,0.4-0.6,0.9-0.6,0.9s-0.2-0.4-0.1-1c-0.2,0.2-0.3,0.4-0.5,0.5c-0.1-0.2-0.2-0.5-0.2-1.1c-0.1,0.1-0.2,0.2-0.4,0.4
		c-0.1-0.1-0.4-0.7,0.2-2.7c-0.2,1.8-0.1,2.1-0.1,2.2c0.1,0,0.2-0.1,0.3-0.2c0-0.3,0.1-0.8,0.2-1.3c-0.1,1.5,0,1.9,0.1,2.2
		C155.6,22.1,155.8,21.8,156.1,21.2 M151.6,21.8c0.1-1.9,0.5-3,0.7-4C151.3,18.9,151.4,21.4,151.6,21.8 M151.7,17.7
		c0.3-1,0-1.4-0.1-1.5C151.6,16.6,151.7,16.8,151.7,17.7 M152.6,18.5c0.2-0.9,0.4-1.4,0.4-2.1C152.7,16.6,152.5,17.5,152.6,18.5
		 M153.4,16.6c0.1-0.3,0.1-0.7,0-1.1c-0.1,0.3-0.3,1-0.3,1.7C153.3,17,153.4,16.8,153.4,16.6 M151.1,23.8
		C151.1,23.8,151.1,23.7,151.1,23.8L151.1,23.8C151.2,23.7,151.2,23.7,151.1,23.8c0.1-0.1,0.1,0,0.2,0c0,0,0.1,0,0.1,0.1
		c-0.1-0.2-0.1-0.4-0.1-0.7c0-0.3,0-0.6-0.1-0.9c0,0,0,0,0,0c0,0.1-0.1,0.3-0.2,0.4c-0.1,0.2-0.3,0.4-0.3,0.7l0,0.1l0,0
		c0.1,0.1-0.2-0.3-0.2-0.3c-0.1,0.4-0.8,1.3-1,1.5c0,0-0.3,0.4-0.4,1.4c-0.1,1,0,1.5,0,1.5l0.3-0.3c0,0,0,0.3,0,0.6
		c0,0.2-0.1,0.4-0.1,0.4s0.5,0.1,0.9-0.4l0.1,0.2c0.1,0.2,0.1,0.4,0,0.5c0,0-0.3,0.2-0.2,0.4c0,0.1,0.1,0.1,0.1,0.2l0,0v0
		c0,0.1,0.1,0.2,0.2,0.2c0-0.1,0-0.2,0-0.2c0.1-0.1,0.1-0.2,0.2-0.2c0.1,0,0.1,0,0.1,0s0.1,0.6,0.1,0.8c0,0.2,0.1,0.5,0.1,0.8
		c0,0.1,0,0.1,0,0.2c0,0.2,0.1,0.2,0.2,0.2c0.1,0,0.2,0,0.2,0l0,0l0,0c-0.2,0-0.1,0.1-0.1,0.1c0,0.1,0.1,0.2,0,0.4l0,0
		c0.2-0.1,0.2-0.3,0.2-0.5v0l0,0c0.2-0.1,0.1-0.4-0.1-1c-0.1-0.2-0.2-0.7-0.1-0.7c0,0,0,0,0,0c0,0,0.1,0,0.2,0.2
		c0.1,0.1,0.2,0.2,0.3,0.3c0.1,0.1,0.2,0.2,0.2,0.3c0,0,0,0.1,0,0.1c0,0,0,0-0.1,0c0,0-0.1,0-0.2,0c0.1,0.1,0.3,0.3,0.3,0.2
		c0.2-0.2,0,0.1,0.3,0.1c0.2,0,0.3-0.1,0.3-0.3c0-0.1,0-0.1,0-0.2c0-0.2-0.2-0.4-0.3-0.5l-0.1-0.1c-0.5-0.5-0.4-0.6-0.4-0.7
		c0-0.1,0.1-0.1,0.2-0.1c0.2,0,0.4,0,0.4,0c0.2,0,0.5,0.1,0.5,0.2c0,0,0,0,0,0.1c-0.1,0-0.2,0.1-0.2,0c0,0,0.1,0.1,0.2,0.1
		c0.1,0,0.4,0.1,0.5,0l0-0.1c0.1,0,0.2,0,0.2-0.1c0-0.1-0.1-0.2-0.2-0.3c-0.1-0.1-0.4-0.2-0.7-0.3c-0.1,0-0.2-0.1-0.3-0.1l-0.6-0.1
		c0,0-0.3-0.1-0.4-0.1c-0.1,0-0.1,0-0.1-0.1c-0.1-0.1-0.2-0.1-0.2-0.2c-0.1-0.1-0.1-0.3-0.2-0.6c0.1,0,0.2,0.1,0.4,0.2
		c0-0.1,0-0.4,0-0.5c0.1-0.9,0.1-1.4,0.1-1.4s0.2,0.2,0.2,0.2c0-0.2,0-0.5-0.1-0.9v0C151.3,24.6,151.2,24.1,151.1,23.8 M151.8,28.1
		l0.4,0.1c0.1,0,0.1,0,0.2,0c0.1-0.2,0.1-0.4,0.1-0.6c0-0.2,0.5,0.3,0.9,0.6c0.2,0.2,0.2,0.1,0.1,0c-0.4-0.5-1.1-1-1.3-1.1
		c-0.3-0.2-0.5-0.2-0.4,0C152,27.4,151.9,27.8,151.8,28.1 M152.4,31.7c0.4,0.5,1.1,1.5,1.3,1.7c0.5,0.6,0.8,0.6,1.2,0.6
		c-0.1-0.4-0.3-0.8-0.9-1.8c-0.3-0.5-0.9-1.4-1.4-2c0,0.1,0,0.2,0,0.3c0,0,0,0,0,0.1c0,0.1-0.1,0.1-0.2,0.2
		c-0.1,0.1-0.2,0.1-0.3,0.1c-0.1,0-0.2-0.1-0.3-0.1c-0.1,0-0.1,0-0.2-0.1c0,0.2,0,0.3-0.1,0.4c0,0.1,0,0.4-0.2,0.5c0,0,0,0,0,0
		c0.1,0.2,0.1,0.4,0,0.4c-0.1,0.1-0.7,0.8-0.9,0.9c-0.2,0.2-0.4,0-0.4,0L150,33c0,0-0.2,0.2-0.3,0.3c0,0,0,0,0,0v0
		c0.2,0.2,0.5,0.3,0.7,0.4c0.2,0.1,0.9,0.4,1.4,0.5c-0.1-0.3-0.2-0.7-0.4-1.1c0.1,0.2,0.5,0.8,0.7,1.3c0,0,0,0,0,0
		c0.4,0.2,0.9,0.4,1.2,0.6c0-0.1-0.1-0.2-0.1-0.2s-0.3-0.4-0.6-0.7c-0.5-0.7-0.8-1.4-0.9-1.9c0.5,0.8,0.7,1,0.9,1.3
		c0.7,0.9,1.4,1.3,1.7,1.3c-0.1-0.5-0.3-0.6-0.3-0.6s-0.3-0.3-0.7-0.8c0.1,0.1,0.2,0.2,0,0c-0.1-0.2-0.1-0.1,0,0
		C153.1,33.2,152.8,32.6,152.4,31.7 M150.6,36.2c0.9,0.1,2.9,0.1,3.6-0.2c-0.3-0.2-1.4-0.9-3.1-1.6c-0.4-0.2-0.8-0.3-1.1-0.5
		c-0.2-0.1-0.3-0.2-0.5-0.4c-0.6-0.5-2-2.1-2.3-2.4l-1,0.9c0,0,2.6,2.5,3.3,2.9c0.8,0.5,3.2,1,3.2,1s-1.8-0.1-3.2-0.7
		c-0.8-0.3-3.5-3-3.5-3l-0.6,0.6c0.3,0.4,1,1.2,2.2,2.1C148.3,35.6,149.2,36,150.6,36.2 M147.8,35.6c0,0.5,0.4,1,0.5,1.1
		c0,0,0.2-0.2,0.2-0.7C148.1,35.9,147.9,35.7,147.8,35.6 M143.3,32.4c-0.2,0.5-0.5,1.2-0.9,1.9c-0.2,0.3-0.6,0.7-0.6,0.7
		s0,0.1,0,0.2l-0.1,0l0.4-0.2c0.1,0,0.1-0.1,0.2-0.1c0.3-0.1,0.5-0.3,0.8-0.4c0.3-0.5,0.6-1.1,0.7-1.3c0,0.1-0.1,0.5-0.4,1.1
		l0.2-0.1c0.4-0.2,0.8-0.3,1-0.4c0.3-0.1,0.4-0.3,0.6-0.3c0,0,0.1-0.1,0.1-0.1c0,0-0.3-0.3-0.3-0.3l-0.1,0.1c0,0-0.2,0.2-0.4,0
		c-0.1-0.1-0.8-0.9-0.9-0.9c-0.1-0.1-0.1-0.2,0-0.4c0,0,0,0,0,0c-0.2-0.2-0.2-0.4-0.2-0.6c-0.1-0.1-0.1-0.2-0.1-0.4
		c-0.1,0-0.1,0.1-0.2,0.1c-0.1,0.1-0.2,0.1-0.3,0.1c0,0,0,0,0,0c-0.1,0-0.2,0-0.3-0.1c-0.1-0.1-0.1-0.1-0.2-0.2c0,0,0,0,0,0
		c-0.4,0.4-0.7,0.9-1.2,1.7c-0.6,1-0.8,1.4-0.9,1.7c0.4,0,0.6-0.1,1.2-0.7c0.2-0.3,0.9-1.2,1.3-1.7c-0.3,0.9-0.7,1.5-1,1.9
		c-0.4,0.5-0.7,0.8-0.7,0.8s-0.2,0.1-0.3,0.6c0.3,0,1-0.4,1.7-1.3C142.6,33.4,142.8,33.2,143.3,32.4 M142.9,29.7
		c-0.2,0.2-0.3,0.4-0.4,0.7c0,0.2,0.1,0.3,0.3,0.3c0.3,0,0.1-0.3,0.3-0.1c0.1,0.1,0.3-0.2,0.3-0.2c-0.1,0-0.3,0-0.3-0.1
		c0-0.1,0.1-0.2,0.2-0.3c0.1-0.1,0.3-0.5,0.4-0.5c0.1,0,0,0.5-0.1,0.7c-0.2,0.5-0.3,0.9-0.1,1l0,0l0,0c0,0.2,0,0.4,0.2,0.5l0,0
		c-0.1-0.2,0-0.3,0-0.4c0,0,0-0.1-0.1-0.1l0,0l0,0c0.1,0,0.2,0,0.2,0c0.1,0,0.2,0,0.2-0.2c0-0.1,0-0.1,0-0.2c0-0.3,0.1-0.6,0.1-0.8
		c0.1-0.2,0.1-0.8,0.1-0.8s0.1,0,0.1,0c0.1,0,0.2,0,0.2,0.2c0,0,0,0.1,0,0.2c0.1,0,0.1-0.1,0.2-0.2l0,0l0,0c0.1-0.1,0.1-0.1,0.1-0.2
		c0-0.2-0.2-0.4-0.2-0.4c-0.1-0.1-0.1-0.3,0-0.5l0.1-0.2c0.1,0.1,0.2,0.2,0.3,0.2c0.3,0.2,0.7,0.2,0.7,0.2s-0.1-0.2-0.1-0.4
		c0-0.3,0-0.6,0-0.6l0.3,0.3c0,0,0.2-0.5,0.1-1.5c-0.1-1.1-0.3-1.5-0.4-1.7c-0.1-0.2-0.2-0.5-0.2-0.5s0,0.1-0.2,0.3
		c-0.2-0.3-0.6-0.8-0.7-1.1c-0.1,0.1-0.1,0.2-0.2,0.3l0,0l0-0.1c0-0.3-0.2-0.5-0.3-0.7c-0.1-0.1-0.2-0.3-0.3-0.4
		c-0.1,0.3-0.1,0.6-0.1,0.9c0,0.3,0,0.5-0.1,0.7c0.1,0,0.1-0.1,0.1-0.1c0.1,0,0.1-0.1,0.1-0.1l0,0l0,0c0,0,0,0,0,0
		c-0.1,0.4-0.2,0.8-0.2,1.1c0,0.4,0,0.7,0,0.9c0,0,0.3-0.2,0.3-0.2s-0.2,0.6-0.1,1.5c0,0.1,0,0.4,0,0.5c0.2,0,0.3-0.1,0.4-0.2
		c-0.1,0.2-0.1,0.5-0.2,0.6c-0.2,0.3-0.7,0.4-1.1,0.5c-0.4,0.1-0.9,0.2-1.3,0.4c-0.1,0.1-0.3,0.2-0.2,0.3c0,0.1,0.2,0.1,0.2,0.1
		l0,0.1c0.1,0.1,0.4,0.1,0.5,0c0.1,0,0.2-0.1,0.2-0.1c0,0-0.1,0-0.2,0c0,0,0,0,0-0.1c0-0.2,0.8-0.2,0.9-0.2c0.1,0,0.2,0,0.2,0.1
		C143.3,29.1,143.4,29.2,142.9,29.7 M143.1,27.2c0.1-0.2-0.1-0.2-0.4,0c-0.2,0.1-0.9,0.6-1.3,1.1c-0.1,0.1-0.1,0.2,0.1,0
		c0.4-0.4,0.9-0.9,0.9-0.6c0,0.2,0,0.4,0.1,0.6c0.1,0,0.1,0,0.2,0l0.5-0.1C143,27.8,143,27.4,143.1,27.2 M142.4,20
		c0.3,0.4,0.9,1.8,0.9,2.8c0.4-1-0.2-2.9-0.8-3.9c0,0.3-0.1,0.4-0.2,0.5c-0.1-1.2-0.9-2.1-1-2.9c0,0.1,0,0.3-0.1,0.4
		c-0.3-0.5-0.5-1-0.7-1.7c0,0.1-0.1,0.3-0.1,0.5c-0.4-1,0-1.5,0.1-1.5c0.3-0.2,0.6,0.1,0.9,0.4c0.4,0.4,0.8,1.3,2.2,1.4
		c0.2,0,0.3,0,0.2-0.1c0,0,0,0,0,0c-1.1-0.2-1.3-0.7-2.2-1.7c-0.6-0.6-1.2-1-1.8-0.2c-1.3,1.6-1.8,2.9-2,4c-0.1,0.6-0.2,1.9-0.1,2.6
		c0.2-0.1,0.2-0.1,0.2-0.1s0.2,1.8,0.5,2.2c0.1-0.2,0.2-0.7,0.2-1.1c0.2,0.5,0.3,0.8,0.6,1.1c0.1-0.4,0.1-0.9,0.1-1.3
		c0.3,0.6,0.5,0.9,0.6,1c0.1-0.3,0.2-0.7,0.1-2.2c0.1,0.6,0.2,1,0.2,1.3c0.1,0.1,0.2,0.1,0.3,0.2c0.1-0.1,0.2-0.4,0-2.2
		c0.6,2,0.3,2.5,0.2,2.7c-0.2-0.1-0.3-0.3-0.4-0.4c0,0.6-0.1,0.8-0.2,1.1c-0.2-0.1-0.4-0.3-0.5-0.5c0,0.6-0.1,1-0.1,1
		s-0.5-0.5-0.6-0.9c0,0.2-0.2,1-0.3,1.1c-0.5-0.7-0.7-2.6-0.7-2.6s0,0-0.1,0.1c0,0.5,0.1,1.2,0.2,2v0c0.1,1,0.2,2,0.3,3
		c0.2,2.3,0.5,4.6,0.8,6.9c0,0,0,0.4,0.1,0.6c0.1-0.2,0.1-1.1,0-1.6c0-0.1,0.2-0.3,0.2-1c0-0.3-0.3-3.8-0.4-5.2c0-0.2,0-0.5,0-0.5
		c0,0,0,0.1,0,0.1c0.1,0.5,0.2,1,0.3,1.6c0,0.3,0.1,0.6,0.1,1c0.1,1,0.3,2.1,0.3,3.1c0,0.7-0.2,0.8-0.2,1c0.1,0.8,0,1.6-0.2,2.1
		c-0.1,0-0.1-0.1-0.1-0.1c0.1,0.6,0.3,1.1,0.3,1.1c0.2-0.5,0.4-1.1,0.3-2.5c0-0.1,0.2-0.4,0.2-1.1c0-0.2,0-0.9-0.1-1.7
		c-0.1-1.5-0.2-3-0.4-4.5c0-0.1,0-0.2,0-0.3c0,0.1,0,0.1,0,0.2c0.4,1.9,0.6,3.9,0.7,5.9c0,0.9-0.3,1.5-0.3,1.7c0,0.4,0,0.4,0,0.8
		c0,0.5,0,0.5,0,0.5c0.2-0.3,0.6-1.5,0.5-5.1c0-0.1,0-0.2,0-0.3c-0.1-2.5-0.3-4.1-0.3-4.1c0.2,0.7,0.4,2.2,0.6,3.9c0,0,0-0.1,0-0.1
		c0.3-0.7,0.3-1.3,0.3-2c-0.1-1.3-0.2-2.4-0.2-2.4c0,0,0,0.1,0,0.1c0,0.1,0.2,0.5,0.3,1.2c0.1,0.5,0.2,0.9,0.2,1.4
		c0,0.1,0,0.1,0,0.2c0.5-0.7,0.3-2.2,0-3.8c0.2,0.5,0.6,1.9,0.5,2.9c0.7-0.7,0.3-2.1,0.1-3.7c0.4,1,0.7,2.1,0.6,2.9
		c0.6-0.8,0.4-1.8-0.2-3.9c0.3,0.5,0.8,1.8,0.8,2.6C143.2,22.8,142.8,21.2,142.4,20 M149.1,24.5c0,0,0.3-0.3,0.4-1.3
		c0.1,0.1,0.2,0.1,0.2,0.3c0.2-0.2,0.6-1.6,0.7-2.1c0.1,0.1,0,0,0.2,0.1c0.1-0.2,0.3-1,0.4-2c0.1,0,0.1,0,0.2,0.1
		c0.1-0.5,0.1-1.3,0.2-1.8c0-0.5,0-1.4-0.2-2c-0.2-0.6-0.3-0.9-0.6-1.4c0,0-0.1,0.1-0.2,0.1c-0.1-0.3-0.3-0.9-0.5-1.2
		c-0.3-0.6-0.5-1-0.8-1.2c0.1,0,0.2,0,0.4,0c-0.2-0.2-0.3-0.3-0.5-0.5c0.1-0.1,0.2,0,0.4,0c-0.3-0.3-0.4-0.7-1.2-1
		c0.1,0,0.3,0,0.4,0c-0.1-0.2-0.4-0.4-0.8-0.5c-0.8-0.2-2-0.2-2.5,0.4c0,0-0.2,0.1-0.3,0.1c-0.1,0-0.1,0.1-0.2,0.1
		c-0.1,0.1-0.1,0.2,0.1,0.4c-0.2,0-0.3-0.3-0.3-0.2c-0.1,0.1-0.2,0.1-0.2,0.3c-0.1,0.1-0.1,0.4-0.1,0.5c0,0,0.2,0.1,0.3-0.1
		c0-0.1,0.4-0.1,0.5-0.1c0.2,0,0.3,0,0.6,0c-0.1,0-0.3,0.1-0.4,0.1c-0.1,0-0.1,0.1,0,0.1c0.1,0,0.1,0,0.3-0.1c0,0,0,0.1,0,0.2
		c0.7-0.2,0.7,0.6,1.4,0.4c-0.3-0.3-0.6-0.7-0.9-0.8c0.7,0.1,1.1,0.7,1.8,0.8c0-0.1,0-0.1-0.1-0.2c0.3,0,0.4,0.2,0.5,0.2
		c-0.1,0.1-0.3,0.2-0.6,0.2c0.1,0.1,0.3,0.1,0.4,0.1c-0.2,0.1-0.3,0.2-0.7,0.1c-0.1,0.1-0.3,0.3-0.8,0.6c0-0.1,0-0.1,0-0.2
		c-0.3,0.2-0.5,0.5-0.8,0.6c0.1-0.1,0.1-0.3,0.2-0.4c-0.9,0.8-1.7,1.5-2,2.1c-0.3,0.6-0.5,1.3-0.4,2.3c0,0.6,0.3,2.2,0.3,2.5
		c0.1,0,0.1-0.1,0.2-0.1c0.2,1.2,0.8,2.8,1.1,3.4c0.1-0.1,0.1-0.2,0.2-0.3c0.1,0.3,0.2,0.7,0.5,0.9c0-0.2,0.1-0.3,0.1-0.4
		c0.1,0.2,0,0.9,0.4,1.3c0-0.2,0-0.4,0.1-0.6c0.1,0.2,0.1,0.5,0.2,0.7c0.1,0.3,0.3,0.5,0.4,0.6c0-0.6,0.1-0.5,0.1-0.8
		c0,0,0.2,0.2,0.3,1c0.4-0.3,0.6-1.4,0.6-1.4c0,0,0.1,0.1,0.2,0.4c0.4-0.4,0.5-0.9,0.6-1.3C149.1,24.1,149.1,24.4,149.1,24.5
		 M149.5,30c0.5,0,0.6,0,0.8,0c0-0.1,0-0.1,0-0.2c0,0,0-0.1,0-0.1c0,0,0,0,0,0c-0.2,0-0.5,0.1-0.9,0.1c-0.2,0-0.2,0-0.4-0.1
		c-0.1,0-0.4,0.2-0.6,0.4c-0.2,0.2-0.4,0.4-0.5,0.5c0,0,0,0,0,0c0.2,0.2,2.2,2,2.4,2.2c0,0,0.1,0,0.1,0c0.1-0.1,0.2-0.2,0.4-0.4
		c0,0-2-1.9-2.1-1.9c0,0,0-0.1,0-0.1c0,0,0.1-0.1,0.1-0.1c0,0,0.1,0,0.1,0c0,0,0.7,0.6,0.7,0.6l0.9,0.8l0.6,0.5
		c0.1-0.1,0.1-0.1,0.1-0.1c0.1-0.1,0.1-0.2-0.2-0.4c-0.1-0.1-1.4-1.4-1.4-1.4C149.2,30.1,149.3,30,149.5,30 M146.3,30.5
		c0,0-2.1,1.9-2.1,1.9c0.1,0.1,0.3,0.3,0.4,0.4c0,0,0.1,0,0.1,0c0.1-0.1,2.2-2,2.4-2.2c0,0,0,0,0-0.1c-0.1-0.1-0.3-0.3-0.5-0.5
		c-0.2-0.2-0.4-0.4-0.6-0.4c-0.2,0-0.2,0.1-0.4,0.1c-0.4,0.1-0.8,0-0.9-0.1c0,0,0,0,0,0c0,0.1,0,0.1,0,0.1c0,0,0,0.1,0,0.1
		c0.2,0,0.3,0,0.9,0c0.2,0,0.3,0.1,0.1,0.2c0,0-1.3,1.3-1.4,1.4c-0.3,0.3-0.3,0.3-0.2,0.4c0,0,0,0,0.1,0.1l0.6-0.5l0.9-0.8
		c0,0,0.6-0.6,0.7-0.6c0,0,0.1,0,0.1,0C146.2,30.3,146.3,30.4,146.3,30.5C146.4,30.4,146.4,30.4,146.3,30.5 M146.5,25.7
		c0,0,0-0.1-0.1-0.3c0-0.1-0.2-0.2-0.2-0.3c-0.1-0.1-0.1-0.1-0.1-0.1c0,0.1,0,0.3,0,0.3c0,0.1,0.1,0.2,0.2,0.2
		C146.5,25.7,146.5,25.7,146.5,25.7 M146.5,29.6c0,0,0.2,0.1,0.2,0.2c0-0.2,0.1-0.9,0.1-1C146.5,29.2,146.5,29.5,146.5,29.6
		 M145.7,29.5c0.1,0,0.3-0.1,0.4-0.1c0,0,0.1,0,0.1,0c0.1-0.2,0.2-0.5,0.2-0.7C146.3,28.7,145.8,29.4,145.7,29.5 M147.2,30.3
		c0-0.3,0-0.6,0-0.7c-0.1,0.1-0.1,0.3-0.2,0.5C147,30.1,147.2,30.3,147.2,30.3 M147.3,28.4c0,0-0.1-0.4-0.3-0.5
		C147,28.2,147.3,28.4,147.3,28.4 M147.5,27.9L147.5,27.9L147.5,27.9c0,0,0-0.1,0.2-0.2c0.1-0.1,0.7-0.4,0.8-0.6
		c0.1-0.2,0.2-0.4,0.2-0.4s-0.1,0.2-0.3,0.3c-0.2,0.1-0.6,0.4-0.7,0.5c0,0.1-0.1,0.1-0.1,0.2c0,0,0-0.1,0-0.1
		c-0.1-0.3-0.6-0.4-0.8-0.7c-0.2-0.2-0.2-0.3-0.2-0.3c0,0.2,0,0.3,0.1,0.4c0.1,0.1,0.3,0.3,0.6,0.5
		C147.5,27.7,147.5,27.9,147.5,27.9 M147.3,26.8c0-0.5-0.5-0.5-0.6-1C146.6,26.5,147,26.5,147.3,26.8 M147.5,28.6c0,0,0.1,0,0.2-0.1
		c0.1-0.1,0.2-0.2,0.3-0.3c0.1-0.1,0.1-0.2,0-0.3c0,0,0,0.1-0.2,0.3c-0.1,0.1-0.2,0.2-0.2,0.2C147.6,28.5,147.5,28.6,147.5,28.6
		 M147.9,28.9c0,0.3,0.1,0.9,0.1,1.1v0c0.1-0.1,0.2-0.2,0.2-0.2C148.3,29.7,148.2,29.2,147.9,28.9 M147.5,30.6c0,0,0.2-0.2,0.2-0.3
		c0,0,0,0,0,0c0-0.3-0.1-0.8-0.2-1C147.5,29.5,147.5,30.1,147.5,30.6 M147.5,30.8c0,0.1,0,0.3,0,0.3c0,0,0.2-0.2,0.2-0.2
		S147.6,30.8,147.5,30.8 M147.6,31.3c0.3,0.3,0.7,0.7,0.9,0.9c0.2-0.2,0.3-0.3,0.3-0.3l-1-0.9C147.8,31.1,147.7,31.2,147.6,31.3
		 M148.8,32.5c0.2,0.2,0.5,0.5,0.6,0.6c0.1-0.1,0.2-0.2,0.3-0.3l-0.6-0.6C149.1,32.2,149,32.3,148.8,32.5 M149,29.4
		c-0.1-0.1-0.4-0.5-0.6-0.7c0.2,0.4,0.2,0.6,0.3,0.7c0,0,0,0,0,0c0,0,0.1,0,0.1,0C148.9,29.4,148.9,29.4,149,29.4
		C148.9,29.4,149,29.4,149,29.4 M148.8,25.7c-0.1,0.2-0.2,0.3-0.4,0.5c0-0.1,0.1-0.3,0.1-0.3c-0.1,0.2-0.3,0.4-0.4,0.5
		c-0.3,0.3-0.4,0.6-0.4,0.6s0.1-0.1,0.4-0.3C148.5,26.4,148.6,26.1,148.8,25.7 M144.2,21.7c0,0.4,0.3,0.9,0.6,1
		C144.6,22.2,144.4,22.1,144.2,21.7 M151.6,15.2c0.1,0,0.3,0,0.4-0.1c0.1-0.1,0.1-0.1,0.2-0.2c0.8-1.2,2.4-3.2,3.6-4.8
		c-2.4-2.4-5.9-2.6-6.8-2.5c-0.2,0-0.5,0.2-0.2,0.5c-0.2,0.1-0.9,0-1.2-0.2c-0.3,0.3-1,0.3-1.2,0.2c0.3-0.3,0-0.5-0.2-0.5
		c-0.9-0.1-4.6,0.3-6.8,2.4c1.2,1.6,3.7,4.9,3.8,5c0,0.1,0.2,0.1,0.3,0.1c0,0,0,0,0.1,0c0.1,0,0.3-0.1,0.4-0.2
		c0.3-0.3,0.4-0.4,0.6-0.7c0.5-0.5,1-0.9,1-1c0.2-0.2,0.3-0.3,0.3-0.5c0-0.2-0.2-0.3-0.2-0.4c0,0,0,0,0,0.1
		c-0.1-0.1-0.2-0.3-0.2-0.3l0,0.1c0,0-0.2-0.4-0.5-0.4c-0.4,0.1-0.7-0.1-0.7-0.1c0,0,0,0.1,0,0.3c0,0,0,0,0,0
		c-0.3-0.2-0.4-0.8,0.2-1.2c0.3-0.2,0.4-0.2,0.6-0.4c0.1-0.1,0.2-0.2,0.2-0.2c0.2-0.2,0.5-0.3,0.7-0.4c0.2-0.1,0.8-0.1,1.4-0.1
		c0.3,0,0.6,0.1,0.9,0.2c0.2,0.1,0.7,0.4,1,0.8c0.2,0.2,0.5,0.9,0.7,1.3c0.4,0.9,0.3,0.8,0.6,1.4c0.3,0.7,0.5,1.1,0.7,1.4
		C151.3,15.1,151.4,15.2,151.6,15.2 M155.9,9.9c0.1-0.1,0.2-0.2,0.2-0.3c-1.1-1-2.8-2-4.6-2.4c-1.2-0.3-2.2-0.3-2.8-0.3
		c-0.5,0-0.8,0.2-0.8,0.5c-0.3-0.1-0.4-0.5-0.4-0.5c0,0.2-0.2,0.5-0.4,0.5c0-0.3-0.3-0.5-0.8-0.5c-0.6,0-1.6,0-2.8,0.3
		c-1.8,0.4-3.4,1.3-4.5,2.3c0.1,0.1,0.2,0.2,0.2,0.3c1-0.9,2.3-1.7,3.7-2.1c1.2-0.3,2.6-0.5,3.3-0.4c0.6,0,0.7,0.4,0.6,0.5
		c0.3,0,0.7-0.2,0.7-0.4c0.1,0.1,0.4,0.4,0.7,0.4c-0.1-0.2,0-0.5,0.6-0.5c0.7,0,2.1,0.1,3.3,0.4C153.6,8.2,154.9,9,155.9,9.9
		 M156.6,8.7c0.1,0.4,0.3,0.9,0.6,1.2c0,0,0.1,0.1,0.2,0.1l0,0c0-0.8,0.3-1.3,0.5-1.8v0c0.3,0,0.7,0.2,1.5,0
		c-0.8-0.5-0.6-1.1-1.2-1.8c-0.1-0.1-0.1-0.1-0.2-0.2c-0.2-0.1-0.4-0.2-0.5-0.2c-0.1,0-0.2,0.1-0.3,0.1c-0.1,0.1-0.9,1-1.4,1.6
		C156.3,7.8,156.5,8.2,156.6,8.7 M157.1,5.8c-0.5-0.5-1.4-1.1-2.4-1.6c-2.7-1.2-6.1-1.2-7.1-1.2c0,0,0,0,0,0l0,0c-1,0-4.4,0-7.1,1.2
		c-1,0.5-1.9,1-2.4,1.6c0,0,1.2,1.4,1.5,1.7c0.2,0.2,0.2,0.4,0.1,0.7c1.9-1.3,4-1.9,7.8-1.9l0.2,0c3.7,0,5.9,0.7,7.8,1.9
		c-0.1-0.3,0-0.5,0.1-0.7C155.9,7.2,157.1,5.8,157.1,5.8 M137.9,6.2L137.9,6.2c-0.1-0.1-0.3-0.3-0.7,0.1c-0.8,0.7-0.6,1.4-1.4,2
		c0.3,0.1,0.6,0.1,0.8,0.1c0.1,0,0.3,0,0.4,0c0.2,0,0.3,0,0.4-0.1h0c0.2,0.5,0.5,0.9,0.5,1.8c1-0.5,0.6-2.3,1.5-2.2
		C138.7,7.2,138,6.3,137.9,6.2 M138.5,9.7c0.7,1,1.3,1.7,1.4,1.9c0.3,0.4,1.1,1.4,1.1,1.3c0-0.1-0.5-0.8-0.9-1.3
		c-0.5-0.7-1-1.4-1.5-2C138.6,9.6,138.6,9.7,138.5,9.7 M142.2,16.4c0,0.7,0.1,1.2,0.4,2.1C142.6,17.6,142.4,16.6,142.2,16.4
		 M141.7,15.6c-0.1,0.3,0,0.7,0,1.1c0.1,0.2,0.2,0.4,0.2,0.6C142,16.6,141.8,15.9,141.7,15.6 M143.6,21.9c0.1-0.4,0.3-2.9-0.7-4
		C143.1,18.8,143.4,20,143.6,21.9 M140.8,36c0.7,0.3,2.7,0.3,3.6,0.2c1.2-0.1,2.1-0.5,2.8-1c-0.2-0.2-0.4-0.4-0.7-0.6
		c-0.4,0.3-0.7,0.6-1,0.7c-1.4,0.6-3.2,0.7-3.2,0.7s2.4-0.5,3.2-1c0.2-0.1,0.4-0.3,0.7-0.6c-0.3-0.3-0.6-0.6-0.8-0.8
		c-0.2,0.1-0.3,0.2-0.4,0.3c-0.3,0.2-0.8,0.4-1.1,0.5C142.2,35.1,141.1,35.8,140.8,36 M146.5,36c0.1,0.2,0.2,0.5,0.3,0.7
		c0,0,0.5-0.4,0.6-1.2c-0.1,0.1-0.2,0.2-0.3,0.3C146.9,35.9,146.7,35.9,146.5,36 M155.3,11.5c0.1-0.1,0.6-0.8,1.3-1.7
		c0-0.1-0.1-0.1-0.1-0.2c-0.5,0.6-1,1.3-1.4,1.9c-0.3,0.5-0.9,1.2-0.9,1.3C154.2,12.9,155.1,11.9,155.3,11.5 M159.3,7
		c-0.1,0.1-0.2,0.3-0.2,0.3c0.2,0.4,0.4,0.8,1.1,1.1C159.9,7.9,159.6,7.4,159.3,7 M158.7,6.6c0,0,0.1,0.2,0.1,0.2
		c1.4-1.9,2.7-3.6,2.7-3.6S161,3.7,160.2,4c0.1,0.4-0.2,0.9-0.3,1.1C159.9,5.1,159.4,5.7,158.7,6.6 M136.4,6.1
		c0.1,0.1,0.1,0.2,0.2,0.3c1-1.3,2.4-2.3,4.1-2.9c-0.1-0.2-0.3-0.6,0.2-1.1l0,0c0.7,0.1,0.9,0.5,1,0.8c1.3-0.4,2.9-0.6,4.6-0.6
		c0.1-1.2,0.9-1.5,0.9-1.5s0-0.2,0.2-0.3h0c0.2,0.1,0.2,0.3,0.2,0.3s0.8,0.3,0.9,1.5c1.7,0.1,3.3,0.3,4.6,0.6c0-0.2,0.2-0.7,1-0.8
		l0,0c0.5,0.5,0.3,0.9,0.2,1.1c1.7,0.6,3.1,1.6,4.2,3c0.1-0.1,0.1-0.2,0.2-0.3c-1-1.2-2.3-2.2-3.8-2.8c0.2-0.5,0-0.9-0.3-1.2
		c0-0.2-0.1-0.4-0.2-0.4c0,0,0,0,0,0c-0.1,0-0.4,0-0.5,0.2c-0.4,0.1-0.8,0.3-1.1,0.7c-1.1-0.3-2.3-0.4-3.9-0.5c0-0.7-0.5-1.2-1-1.4
		c-0.1-0.3-0.3-0.4-0.5-0.4c-0.2,0-0.4,0.2-0.5,0.4c-0.5,0.3-0.9,0.7-1,1.4c-1.6,0.1-2.8,0.3-3.9,0.5C142,2.2,141.6,2,141.2,2
		c-0.1-0.1-0.4-0.2-0.5-0.2c-0.1,0.1-0.2,0.2-0.2,0.4c-0.3,0.3-0.4,0.7-0.3,1.2C138.7,4,137.4,4.9,136.4,6.1 M136.3,6.8
		c0-0.1,0.1-0.1,0.1-0.2c-0.6-0.8-1.1-1.4-1.1-1.4C135.2,5,135,4.5,135,4.1c-0.8-0.4-1.3-0.7-1.3-0.7S135,5,136.3,6.8 M135,8.4
		c0.1-0.1,0.5-0.3,0.8-0.7c0.1-0.2,0.2-0.3,0.3-0.5c0,0-0.3-0.3-0.3-0.3C135.5,7.4,135.3,7.9,135,8.4 M132.8,18.6
		c0.3,0.2,1.5,1.3,3.5,2.4c0.1-1.2,0.1-5.5,2.6-10c-0.3-0.4-0.4-0.6-0.7-0.9c-0.2,0.2-0.5,0.4-0.9,0.5c0-0.9-0.2-1.4-0.4-1.9
		c-0.4,0-1,0-2-0.2C133.7,11.2,133.1,14.4,132.8,18.6 M144.5,38.1L144.5,38.1c0.1-0.2,0.4-1,0.6-1.4c0-0.1,0-0.1-0.1-0.2
		c-0.2,0-0.5,0.1-0.7,0.1c-0.2,0-2.4,0.4-4.1-0.4c0.2-0.1,0.6-0.5,1.1-0.8c0,0,0-0.1,0-0.1c-0.4,0.2-0.8,0.3-1.1,0.2
		c0-0.3,0-0.6,0.2-1c-0.4,0.1-0.7,0-0.7,0s0.2-0.8,0.8-1.8c0.5-0.9,1.2-1.8,1.8-2.6c0.1-0.3,0.3-0.5,0.3-0.6c0,0,0.1-0.1,0.1-0.1
		c-0.1-0.1-0.1-0.1-0.2-0.2c-0.1,0.1-0.1,0.1-0.2,0.1c-0.2,0.1-0.3,0.1-0.4,0.1c-0.2,0-0.3,0-0.4-0.1l0,0c-0.2,0-0.3-0.1-0.3-0.3
		c0,0,0-0.1,0-0.1c-0.1,0-0.2,0-0.3,0c-0.1-0.1,0.1-0.8,0.8-1.4c0.5-0.5,0.9-0.7,1.4-0.9c0.3-0.1,0.5,0.1,0.4,0.3
		c-0.2,0.2-0.3,0.6-0.1,1.1c0.2-0.1,0.3-0.1,0.3-0.1c0.1,0,0.2-0.1,0.3-0.2c0,0,0,0,0-0.1l-0.3,0c0.1-0.4-0.1-1.3,0.1-1.8
		c0,0-0.1,0.1-0.2,0.1c-0.1-0.5-0.1-1.4,0-1.8c0-0.1-0.2-0.3-0.4-0.5c-0.2,0.4-0.4,0.9-0.9,1.5c-0.4,0.5-1,0.9-1.4,2.3v0
		c-0.1,0.2-0.1,0.4-0.2,0.7c-0.2,0.5-0.2,0.7-0.2,0.7v0c0,0.9,0,2.8-0.2,3.9c-0.2,0.9-0.5,1.4-0.5,1.4l0,0c-0.1,0.3-0.2,0.9-0.6,1.3
		c0,0-0.3-0.6-0.9-5.4c-0.6-5.2-0.9-10.7-0.9-10.7h0c-0.1-1,0.2-2.1,0.4-2.9c0.5-1.3,1.4-2.6,1.9-3.1c0.3-0.3,0.7-0.4,1.1-0.3
		c-0.1-0.1-0.2-0.3-0.2-0.3c-0.4-0.5-0.8-1-1.1-1.5c-2.6,4.5-2.5,9.9-2.5,9.9l0,0.6l-0.4-0.2c-2-1.1-2.9-1.8-3.5-2.4
		c0,0.5-0.1,2.4-0.1,2.4c0,0,0,0.4,0,1.1c0,2.1,0.4,7.4,2.1,11c0.2,0.4,0.9,1.7,2.1,2.8c0.9,0.8,1.9,1.4,3.1,1.8
		c0.1,0,0.2,0.1,0.3,0.1C141.6,38.9,143.1,38.8,144.5,38.1 M144.4,39.6c0.3-0.2,0.7-0.4,1.2-0.2c0-0.6,0.1-1.6,0.3-2.4
		c-0.2,0.2-0.4,0.3-0.4,0.3c0,0-0.1,0-0.1-0.1C145,38.2,144.4,39.5,144.4,39.6 M149.5,40c0-0.7-0.2-2.4-0.4-3.5c0,0,0-0.1-0.1-0.1
		c0,0-0.1-0.1-0.1-0.1c-0.1,0.2-0.1,0.4-0.2,0.6c-0.1,0.2-0.3,0.5-0.3,0.5c0,0-0.5-0.3-0.8-1c-0.3,0.7-0.8,1-0.8,1
		c0,0-0.2-0.3-0.3-0.5c-0.1-0.1-0.1-0.2-0.1-0.3c-0.2,1.1-0.4,2.8-0.4,3.4c-1-0.7-1.6,0-1.4,0.5c0,0,0,0.1,0.1,0.1
		c0.1,0.2,0.3,0.2,0.5,0.3c0.3,0,0.7,0.1,1.2,0.3c0.4,0.2,0.9,0.5,1.4,1.1c0.5-0.6,1-0.9,1.4-1.1c0.5-0.2,0.9-0.3,1.2-0.3
		c0.2,0,0.4-0.1,0.5-0.3c0,0,0-0.1,0.1-0.1C151.1,40,150.5,39.4,149.5,40 M151,39.6c0,0-0.6-1.6-1-2.5c-0.1,0.1-0.2,0.2-0.2,0.2
		c0,0-0.2-0.1-0.3-0.2c0.1,0.7,0.3,1.7,0.3,2.3C150.3,39.2,150.7,39.3,151,39.6 M162.4,21.7c0-0.7,0-1.9-0.1-2.4
		c-0.7,0.5-1.3,1.1-3.4,2.3l-0.5,0.3l0-0.4c0,0,0.2-5.4-2.4-10c-0.2,0.2-0.7,0.9-1.3,1.6c0.3,0,0.7,0,1,0.3c0.5,0.5,1.4,1.8,1.9,3.1
		c0.3,0.8,0.5,2,0.4,2.9v0c0,0-0.3,5.5-0.9,10.7c-0.6,4.7-0.9,5.4-0.9,5.4c-0.4-0.4-0.5-1-0.6-1.3l0,0c0,0-0.3-0.5-0.5-1.4
		c-0.2-1.1-0.3-3-0.2-3.9v0c0,0,0-0.3-0.2-0.7c-0.1-0.2-0.2-0.4-0.2-0.7c0,0,0,0,0,0c-0.3-1.5-1-1.9-1.4-2.3c-0.4-0.5-0.8-1.1-1-1.6
		c0,0,0,0,0,0c-0.2,0.2-0.4,0.5-0.4,0.6c0.1,0.9,0.2,1.5,0,1.9c-0.1,0-0.1-0.1-0.2-0.1c0.1,0.6-0.2,1.2,0,1.7l-0.3,0
		c0,0,0,0.1,0,0.1c0.1,0.1,0.1,0.1,0.2,0.1c0,0,0.1,0,0.1,0.1c0,0,0.1,0,0.3,0.1c0.2-0.4,0-0.8-0.1-1.1c-0.2-0.2,0-0.5,0.4-0.3
		c0.4,0.2,0.9,0.5,1.4,0.9c0.7,0.7,0.9,1.3,0.8,1.4c-0.1,0.1-0.2,0.1-0.3,0c0,0,0,0,0,0.1c0,0.1-0.1,0.2-0.3,0.3l0,0
		c-0.1,0.1-0.2,0.1-0.4,0.1c-0.2,0-0.4-0.1-0.4-0.1c0,0-0.1,0-0.1-0.1c0,0-0.1,0.1-0.1,0.1c0.6,0.7,1.6,2,2.4,3.3
		c0.5,1,0.8,1.8,0.8,1.8s-0.3,0.1-0.7,0c0.1,0.4,0.2,0.7,0.2,1c-0.3,0-0.7,0-1.1-0.3c0,0.1,0,0.1,0,0.2c0.3,0.2,0.7,0.5,0.9,0.6
		c-1.7,0.8-4.1,0.4-4.1,0.4c-0.1,0-0.2,0-0.3,0c0,0,0,0.1-0.1,0.1c0.2,0.4,0.5,1.3,0.6,1.5c1,0.5,2,0.8,3.5,0.5c0,0,0.3,0,0.9-0.2
		c0.7-0.2,1.9-0.9,2.8-1.8c1.2-1.1,1.9-2.3,2.1-2.7c1.8-3.6,2.1-8.9,2.1-11V21.7z"/>
	<path class="st2" d="M1.9,19.8h1l1.9,5.9H3.9l-0.4-1.4H1.2l-0.4,1.4H0L1.9,19.8z M2.3,20.5L2.3,20.5l-0.9,3.2h1.9L2.3,20.5z"/>
	<path class="st2" d="M5.6,25.7v-5.9h1.9c0.8,0,1.1,0.3,1.3,0.6c0.2,0.3,0.2,0.7,0.2,0.8c0,0.7-0.3,1.2-1,1.4v0
		c0.8,0.1,1.2,0.6,1.2,1.4c0,1.5-1.1,1.7-1.8,1.7H5.6z M6.4,22.3h1.1c0.6,0,0.9-0.4,0.9-0.9c0-0.5-0.3-0.9-0.9-0.9H6.4V22.3z
		 M6.4,25.1h1.1c0.8,0,1.1-0.6,1.1-1c0-0.9-0.6-1.1-1.4-1.1H6.4V25.1z"/>
	<path class="st2" d="M10.6,19.8h0.8v3.8c0,1.3,0.4,1.6,1.1,1.6s1.1-0.3,1.1-1.6v-3.8h0.8v3.8c0,1.6-0.6,2.3-1.9,2.3
		c-1.3,0-1.9-0.6-1.9-2.3V19.8z"/>
	<path class="st2" d="M17.5,19.8h1.8c0.8,0,1.3,0.3,1.6,0.9c0.2,0.5,0.3,1.7,0.3,1.9c0,1.3-0.1,2-0.4,2.4c-0.3,0.5-0.9,0.8-2,0.8
		h-1.4V19.8z M18.2,25.1h0.7c1.1,0,1.4-0.4,1.4-1.8v-1.2c0-1.2-0.4-1.6-1.2-1.6h-1V25.1z"/>
	<polygon class="st2" points="22.5,25.7 22.5,19.8 23.3,19.8 23.3,22.4 25.4,22.4 25.4,19.8 26.1,19.8 26.1,25.7 25.4,25.7 25.4,23 
		23.3,23 23.3,25.7 	"/>
	<path class="st2" d="M28.9,19.8h1l1.9,5.9h-0.8l-0.4-1.4h-2.3l-0.4,1.4H27L28.9,19.8z M29.3,20.5L29.3,20.5l-1,3.2h1.9L29.3,20.5z"
		/>
	<path class="st2" d="M32.6,25.7v-5.9h1.9c0.8,0,1.1,0.3,1.3,0.6c0.2,0.3,0.2,0.7,0.2,0.8c0,0.7-0.3,1.2-1,1.4v0
		c0.9,0.1,1.2,0.6,1.2,1.4c0,1.5-1.1,1.7-1.8,1.7H32.6z M33.4,22.3h1.1c0.6,0,0.9-0.4,0.9-0.9c0-0.5-0.3-0.9-0.9-0.9h-1.1V22.3z
		 M33.4,25.1h1.1c0.8,0,1.1-0.6,1.1-1c0-0.9-0.6-1.1-1.4-1.1h-0.8V25.1z"/>
	<rect x="37.7" y="19.8" class="st2" width="0.8" height="5.9"/>
	<path class="st2" d="M43,19.8h1l1.9,5.9h-0.8l-0.4-1.4h-2.3l-0.4,1.4h-0.8L43,19.8z M43.5,20.5L43.5,20.5l-0.9,3.2h1.9L43.5,20.5z"
		/>
	<path class="st2" d="M49.6,21.4c0-0.7-0.3-1.1-1.1-1.1c-0.2,0-1.1,0-1.1,1.3v2c0,1.3,0.4,1.6,1.1,1.6c0.5,0,0.9-0.2,1.1-0.3v-1.8
		h-1.1v-0.7h1.9v2.9c-0.5,0.3-1,0.4-1.8,0.4c-1.3,0-1.9-0.6-1.9-2.3v-2c0-1.2,0.6-1.9,1.9-1.9c1.3,0,1.9,0.5,1.8,1.7H49.6z"/>
	<path class="st2" d="M52.5,23v2.7h-0.8v-5.9h2c1.1,0,1.4,0.7,1.4,1.5c0,0.7-0.4,1.2-1.1,1.4v0c0.7,0.1,0.9,0.3,1,1.5
		c0,0.3,0.1,1.2,0.2,1.6h-0.8c-0.2-0.4-0.2-1.2-0.2-2C54.2,23,53.6,23,53.4,23H52.5z M52.5,22.3h1.1c0.5,0,0.8-0.5,0.8-1
		c0-0.4-0.2-0.9-0.8-0.9h-1.1V22.3z"/>
	<rect x="56.4" y="19.8" class="st2" width="0.8" height="5.9"/>
	<path class="st2" d="M61.2,21.4c0-0.3,0-0.7-0.2-0.9c-0.2-0.2-0.5-0.3-0.7-0.3c-0.6,0-0.9,0.4-0.9,0.5c0,0.1-0.2,0.2-0.2,1.2v1.6
		c0,1.5,0.5,1.6,1.1,1.6c0.2,0,0.9-0.1,0.9-1.2h0.8c0,1.9-1.3,1.9-1.7,1.9c-0.7,0-1.9-0.1-1.9-2.4v-1.7c0-1.7,0.7-2.2,1.9-2.2
		c1.2,0,1.6,0.6,1.6,1.8H61.2z"/>
	<path class="st2" d="M63.2,19.8h0.8v3.8c0,1.3,0.4,1.6,1.1,1.6s1.1-0.3,1.1-1.6v-3.8h0.8v3.8c0,1.6-0.6,2.3-1.9,2.3
		c-1.3,0-1.9-0.6-1.9-2.3V19.8z"/>
	<polygon class="st2" points="68.2,25.7 68.2,19.8 69,19.8 69,25.1 71.1,25.1 71.1,25.7 	"/>
	<polygon class="st2" points="74.7,19.8 74.7,20.4 73.1,20.4 73.1,25.7 72.4,25.7 72.4,20.4 70.8,20.4 70.8,19.8 	"/>
	<path class="st2" d="M75.5,19.8h0.8v3.8c0,1.3,0.4,1.6,1.1,1.6c0.7,0,1.1-0.3,1.1-1.6v-3.8h0.8v3.8c0,1.6-0.6,2.3-1.9,2.3
		c-1.3,0-1.9-0.6-1.9-2.3V19.8z"/>
	<path class="st2" d="M81.3,23v2.7h-0.8v-5.9h2.1c1.1,0,1.4,0.7,1.4,1.5c0,0.7-0.4,1.2-1.1,1.4v0c0.7,0.1,0.9,0.3,1,1.5
		c0,0.3,0.1,1.2,0.2,1.6h-0.8c-0.2-0.4-0.2-1.2-0.2-2C83,23,82.4,23,82.1,23H81.3z M81.3,22.3h1.1c0.5,0,0.8-0.5,0.8-1
		c0-0.4-0.2-0.9-0.8-0.9h-1.1V22.3z"/>
	<polygon class="st2" points="85.1,25.7 85.1,19.8 88.1,19.8 88.1,20.4 85.8,20.4 85.8,22.4 88,22.4 88,23 85.8,23 85.8,25.1 
		88.2,25.1 88.2,25.7 	"/>
	<path class="st2" d="M92.4,19.8h1l1.9,5.9h-0.8L94,24.3h-2.3l-0.4,1.4h-0.8L92.4,19.8z M92.8,20.5L92.8,20.5l-0.9,3.2h1.9
		L92.8,20.5z"/>
	<polygon class="st2" points="100.2,19.8 100.2,25.7 99.1,25.7 96.8,20.6 96.8,20.6 96.8,25.7 96.1,25.7 96.1,19.8 97.2,19.8 
		99.5,24.9 99.5,24.9 99.5,19.8 	"/>
	<path class="st2" d="M101.6,19.8h1.8c0.8,0,1.3,0.3,1.6,0.9c0.2,0.5,0.3,1.7,0.3,1.9c0,1.3-0.1,2-0.4,2.4c-0.3,0.5-0.9,0.8-2,0.8
		h-1.4V19.8z M102.3,25.1h0.7c1.1,0,1.4-0.4,1.4-1.8v-1.2c0-1.2-0.4-1.6-1.2-1.6h-1V25.1z"/>
	<polygon class="st2" points="108.3,25.7 108.3,19.8 111.3,19.8 111.3,20.4 109.1,20.4 109.1,22.4 111.2,22.4 111.2,23 109.1,23 
		109.1,25.7 	"/>
	<path class="st2" d="M112,23.6v-2c0-1.2,0.6-1.9,1.9-1.9c1.3,0,1.9,0.8,1.9,1.9v2c0,1.6-0.6,2.3-1.9,2.3
		C112.6,25.9,112,25.2,112,23.6 M115,23.6v-2c0-1.2-0.9-1.3-1.1-1.3c-0.2,0-1.1,0-1.1,1.3v2c0,1.3,0.4,1.6,1.1,1.6
		C114.6,25.2,115,24.9,115,23.6"/>
	<path class="st2" d="M117.1,23.6v-2c0-1.2,0.6-1.9,1.9-1.9c1.3,0,1.9,0.8,1.9,1.9v2c0,1.6-0.6,2.3-1.9,2.3
		C117.7,25.9,117.1,25.2,117.1,23.6 M120,23.6v-2c0-1.2-0.9-1.3-1.1-1.3c-0.2,0-1.1,0-1.1,1.3v2c0,1.3,0.4,1.6,1.1,1.6
		C119.6,25.2,120,24.9,120,23.6"/>
	<path class="st2" d="M122.1,19.8h1.8c0.8,0,1.3,0.3,1.6,0.9c0.2,0.5,0.3,1.7,0.3,1.9c0,1.3-0.1,2-0.4,2.4c-0.3,0.5-0.9,0.8-2,0.8
		h-1.4V19.8z M122.9,25.1h0.7c1.1,0,1.4-0.4,1.4-1.8v-1.2c0-1.2-0.4-1.6-1.2-1.6h-1V25.1z"/>
	<path class="st2" d="M61,33.5v0.2c0,0.8,0.5,1.1,1,1.1c0.6,0,1.1-0.3,1.1-1c0-1.3-2.7-1.2-2.7-3c0-1.1,0.8-1.6,1.7-1.6
		c1.1,0,1.7,0.5,1.6,1.7H63c0-0.7-0.2-1.1-0.9-1.1c-0.5,0-0.9,0.2-0.9,0.9c0,1.3,2.7,1.1,2.7,3c0,1.3-0.9,1.7-1.8,1.7
		c-1.8,0-1.8-1.3-1.7-1.9H61z"/>
	<path class="st2" d="M66.3,29.3h1l1.9,5.9h-0.8l-0.4-1.4h-2.3l-0.4,1.4h-0.8L66.3,29.3z M66.8,30L66.8,30l-0.9,3.2h1.9L66.8,30z"/>
	<polygon class="st2" points="69.9,35.2 69.9,29.3 72.9,29.3 72.9,29.9 70.7,29.9 70.7,31.8 72.8,31.8 72.8,32.5 70.7,32.5 
		70.7,35.2 	"/>
	<polygon class="st2" points="73.6,35.2 73.6,29.3 76.7,29.3 76.7,29.9 74.4,29.9 74.4,31.8 76.5,31.8 76.5,32.5 74.4,32.5 
		74.4,34.6 76.8,34.6 76.8,35.2 	"/>
	<polygon class="st2" points="81.1,29.3 81.1,29.9 79.5,29.9 79.5,35.2 78.8,35.2 78.8,29.9 77.2,29.9 77.2,29.3 	"/>
	<polygon class="st2" points="84.5,29.3 85.3,29.3 83.6,33 83.6,35.2 82.9,35.2 82.9,33 81.3,29.3 82.1,29.3 83.3,32.2 	"/>
	<path class="st2" d="M89.2,29.3h1l1.9,5.9h-0.8l-0.4-1.4h-2.3L88,35.2h-0.8L89.2,29.3z M89.6,30L89.6,30l-0.9,3.2h1.9L89.6,30z"/>
	<path class="st2" d="M92.8,29.3h0.8v3.8c0,1.3,0.4,1.6,1.1,1.6s1.1-0.3,1.1-1.6v-3.8h0.8V33c0,1.6-0.6,2.3-1.9,2.3
		s-1.9-0.7-1.9-2.3V29.3z"/>
	<polygon class="st2" points="101.2,29.3 101.2,29.9 99.6,29.9 99.6,35.2 98.9,35.2 98.9,29.9 97.3,29.9 97.3,29.3 	"/>
	<polygon class="st2" points="102,35.2 102,29.3 102.8,29.3 102.8,31.8 104.9,31.8 104.9,29.3 105.6,29.3 105.6,35.2 104.9,35.2 
		104.9,32.5 102.8,32.5 102.8,35.2 	"/>
	<path class="st2" d="M107,33v-2c0-1.2,0.6-1.9,1.9-1.9c1.3,0,1.9,0.8,1.9,1.9v2c0,1.6-0.6,2.3-1.9,2.3C107.6,35.3,107,34.7,107,33
		 M110,33.1v-2c0-1.2-0.9-1.3-1.1-1.3c-0.2,0-1.1,0-1.1,1.3v2c0,1.3,0.4,1.6,1.1,1.6S110,34.4,110,33.1"/>
	<path class="st2" d="M112.8,32.5v2.7H112v-5.9h2c1.1,0,1.4,0.7,1.4,1.5c0,0.7-0.4,1.2-1.1,1.4v0c0.7,0.1,0.9,0.3,1,1.5
		c0,0.3,0.1,1.2,0.2,1.6h-0.8c-0.2-0.4-0.2-1.2-0.2-2c-0.1-0.7-0.6-0.8-0.9-0.8H112.8z M112.8,31.8h1.1c0.5,0,0.8-0.5,0.8-1
		c0-0.4-0.2-0.9-0.8-0.9h-1.1V31.8z"/>
	<rect x="116.7" y="29.3" class="st2" width="0.8" height="5.9"/>
	<polygon class="st2" points="122.2,29.3 122.2,29.9 120.7,29.9 120.7,35.2 119.9,35.2 119.9,29.9 118.4,29.9 118.4,29.3 	"/>
	<polygon class="st2" points="125.6,29.3 126.4,29.3 124.8,33 124.8,35.2 124,35.2 124,33 122.4,29.3 123.3,29.3 124.4,32.2 	"/>
	<path class="st2" d="M3.7,13.1c0,0.1,0.1,0.2,0.2,0.2h0.5v0.7H3.8c-0.2,0-0.4-0.1-0.6-0.2C3.1,13.7,3,13.4,3,13.1l0-3
		c-0.2,0.1-0.4,0.2-0.6,0.3c-0.2,0.1-0.4,0.3-0.6,0.5c-0.2,0.2-0.4,0.4-0.5,0.6C1.1,11.7,1,12,1,12.3c0,0.4,0.1,0.7,0.4,0.9
		c0.3,0.2,0.7,0.3,1.2,0.3l-0.1,0.7c-0.5,0-0.9-0.1-1.2-0.2c-0.3-0.1-0.5-0.3-0.7-0.5c-0.2-0.2-0.3-0.4-0.3-0.6
		c-0.1-0.2-0.1-0.4-0.1-0.6c0-0.5,0.1-1,0.4-1.3c0.3-0.4,0.6-0.7,1-1C2,9.7,2.4,9.5,2.8,9.4C3.2,9.2,3.5,9.1,3.7,9V13.1z M2.1,7.9
		c0,0.1,0,0.2-0.1,0.3C1.9,8.3,1.7,8.3,1.6,8.3c-0.1,0-0.2,0-0.3-0.1C1.2,8.1,1.1,8,1.1,7.9c0-0.1,0.1-0.2,0.1-0.3
		c0.1-0.1,0.2-0.1,0.3-0.1c0.1,0,0.3,0,0.3,0.1C2,7.6,2.1,7.7,2.1,7.9 M3.7,7.9c0,0.1,0,0.2-0.1,0.3C3.5,8.3,3.4,8.3,3.2,8.3
		c-0.1,0-0.2,0-0.3-0.1C2.8,8.1,2.7,8,2.7,7.9c0-0.1,0.1-0.2,0.1-0.3C3,7.4,3.1,7.4,3.2,7.4c0.1,0,0.2,0,0.3,0.1
		C3.7,7.6,3.7,7.7,3.7,7.9"/>
	<path class="st2" d="M4.4,14.1c-0.1,0-0.3,0-0.4-0.1c-0.1-0.1-0.1-0.2-0.1-0.2c0-0.1,0.1-0.2,0.1-0.2c0.1-0.1,0.2-0.1,0.4-0.1h1.9
		V9.8h0.8v3.6h0.6v0.7H4.4z M5.2,16c-0.1,0-0.2,0-0.3-0.1c-0.1-0.1-0.1-0.2-0.1-0.3c0-0.1,0-0.2,0.1-0.3c0.1-0.1,0.2-0.1,0.3-0.1
		c0.1,0,0.2,0,0.3,0.1c0.1,0.1,0.1,0.2,0.1,0.3c0,0.1,0,0.2-0.1,0.3C5.5,16,5.4,16,5.2,16 M6.7,16c-0.1,0-0.2,0-0.3-0.1
		c-0.1-0.1-0.1-0.2-0.1-0.3c0-0.1,0-0.2,0.1-0.3c0.1-0.1,0.2-0.1,0.3-0.1c0.1,0,0.2,0,0.3,0.1c0.1,0.1,0.1,0.2,0.1,0.3
		c0,0.1,0,0.2-0.1,0.3C6.9,16,6.8,16,6.7,16"/>
	<path class="st2" d="M9.2,9.8h0.7v4.3H7.7c-0.1,0-0.3,0-0.4-0.1c-0.1-0.1-0.1-0.2-0.1-0.2c0-0.1,0-0.2,0.1-0.2
		c0.1-0.1,0.2-0.1,0.4-0.1h1.4V9.8z M10.1,8C9.8,8,9.6,7.9,9.5,7.9c-0.1,0-0.2,0-0.3,0.1C9.1,8,9,8.1,9,8.2c0,0.2,0.1,0.3,0.2,0.4
		c0.1,0.1,0.3,0.1,0.5,0.1h0.4v0.4H8.2V8.7h0.6c0,0-0.1-0.1-0.1-0.2c0-0.1-0.1-0.2-0.1-0.3c0-0.3,0.1-0.4,0.2-0.5
		c0.2-0.1,0.3-0.2,0.5-0.2c0.3,0,0.5,0.1,0.8,0.2L10.1,8z"/>
	<rect x="11.1" y="6.7" class="st2" width="0.7" height="7.3"/>
	<path class="st2" d="M12.8,9.9c0.2-0.2,0.4-0.3,0.7-0.4c0.3-0.1,0.6-0.2,1.1-0.2c0.4,0,0.7,0.1,1,0.2c0.3,0.2,0.5,0.4,0.7,0.6
		c0.2,0.3,0.3,0.5,0.4,0.9c0.1,0.3,0.1,0.6,0.1,1c0,0.3,0,0.5-0.1,0.8c-0.1,0.2-0.1,0.5-0.2,0.6h0.8v0.7h-4.7v-0.7h3.1
		c0.1-0.1,0.1-0.3,0.2-0.6c0.1-0.2,0.1-0.5,0.1-0.8c0-0.3,0-0.5-0.1-0.7c-0.1-0.2-0.2-0.4-0.3-0.6c-0.1-0.2-0.3-0.3-0.5-0.4
		C15,10,14.8,10,14.6,10c-0.2,0-0.4,0-0.6,0.1c-0.2,0.1-0.4,0.2-0.7,0.4L12.8,9.9z M15.1,8c0,0.1,0,0.2-0.1,0.3
		c-0.1,0.1-0.2,0.1-0.3,0.1c-0.1,0-0.2,0-0.3-0.1c-0.1-0.1-0.1-0.2-0.1-0.3c0-0.1,0.1-0.2,0.1-0.3c0.1-0.1,0.2-0.1,0.3-0.1
		c0.1,0,0.2,0,0.3,0.1C15,7.7,15.1,7.9,15.1,8"/>
	<path class="st2" d="M23.5,11.2c-0.2,0.1-0.4,0.2-0.6,0.3c-0.2,0.1-0.4,0.3-0.7,0.5c-0.2,0.2-0.4,0.4-0.6,0.6
		c-0.2,0.2-0.3,0.5-0.4,0.7h2.7v0.7h-6.4c-0.1,0-0.3,0-0.4-0.1c-0.1-0.1-0.1-0.2-0.1-0.2c0-0.1,0.1-0.2,0.1-0.2
		c0.1-0.1,0.2-0.1,0.4-0.1h2.7c-0.1-0.3-0.3-0.5-0.5-0.7c-0.2-0.2-0.4-0.4-0.7-0.6c-0.2-0.2-0.4-0.3-0.7-0.5
		c-0.2-0.1-0.4-0.2-0.5-0.3c0.1-0.4,0.2-0.7,0.4-0.9c0.2-0.3,0.4-0.5,0.7-0.7c0.2-0.2,0.5-0.3,0.8-0.4c0.3-0.1,0.6-0.1,0.9-0.1
		c0.4,0,0.7,0.1,1.1,0.2c0.3,0.1,0.6,0.3,0.8,0.4c0.2,0.2,0.4,0.4,0.6,0.7C23.3,10.7,23.4,10.9,23.5,11.2 M18.8,10.9
		c0.1,0.1,0.2,0.2,0.4,0.3c0.2,0.1,0.3,0.3,0.5,0.4c0.2,0.2,0.3,0.3,0.5,0.5c0.2,0.2,0.3,0.4,0.5,0.6c0.1-0.2,0.3-0.4,0.4-0.6
		c0.2-0.2,0.3-0.4,0.5-0.5c0.2-0.2,0.3-0.3,0.5-0.4c0.2-0.1,0.3-0.2,0.4-0.3c-0.1-0.1-0.2-0.2-0.3-0.3c-0.1-0.1-0.2-0.2-0.4-0.3
		c-0.2-0.1-0.3-0.2-0.5-0.3c-0.2-0.1-0.4-0.1-0.7-0.1c-0.4,0-0.8,0.1-1.1,0.3C19.2,10.3,18.9,10.6,18.8,10.9 M21.1,7.8
		c0,0.1,0,0.2-0.1,0.3c-0.1,0.1-0.2,0.1-0.3,0.1c-0.1,0-0.2,0-0.3-0.1c-0.1-0.1-0.1-0.2-0.1-0.3c0-0.1,0-0.2,0.1-0.3
		c0.1-0.1,0.2-0.1,0.3-0.1c0.1,0,0.2,0,0.3,0.1C21,7.6,21.1,7.7,21.1,7.8"/>
	<path class="st2" d="M24.5,6.7h0.7v7.4h-1.4c-0.1,0-0.3,0-0.4-0.1c-0.1-0.1-0.1-0.2-0.1-0.2c0-0.1,0-0.2,0.1-0.2
		c0.1-0.1,0.2-0.1,0.4-0.1h0.6V6.7z"/>
	<rect x="26.4" y="6.7" class="st2" width="0.7" height="7.3"/>
	<path class="st2" d="M33.9,13.1c0,0.1,0.1,0.2,0.2,0.2h0.5v0.7H34c-0.2,0-0.4-0.1-0.6-0.2c-0.1-0.2-0.2-0.4-0.2-0.7l0-3
		c-0.2,0.1-0.4,0.2-0.6,0.3c-0.2,0.1-0.4,0.3-0.6,0.5c-0.2,0.2-0.4,0.4-0.5,0.6c-0.1,0.2-0.2,0.5-0.2,0.8c0,0.4,0.1,0.7,0.4,0.9
		c0.3,0.2,0.7,0.3,1.2,0.3l-0.1,0.7c-0.5,0-0.9-0.1-1.2-0.2c-0.3-0.1-0.5-0.3-0.7-0.5c-0.2-0.2-0.3-0.4-0.3-0.6
		c-0.1-0.2-0.1-0.4-0.1-0.6c0-0.5,0.1-1,0.4-1.3c0.3-0.4,0.6-0.7,1-1c0.4-0.3,0.8-0.5,1.2-0.6c0.4-0.2,0.7-0.3,0.9-0.3V13.1z
		 M32.3,7.9c0,0.1,0,0.2-0.1,0.3c-0.1,0.1-0.2,0.1-0.3,0.1c-0.1,0-0.2,0-0.3-0.1c-0.1-0.1-0.1-0.2-0.1-0.3c0-0.1,0.1-0.2,0.1-0.3
		c0.1-0.1,0.2-0.1,0.3-0.1c0.1,0,0.2,0,0.3,0.1C32.2,7.6,32.3,7.7,32.3,7.9 M33.9,7.9c0,0.1,0,0.2-0.1,0.3c-0.1,0.1-0.2,0.1-0.3,0.1
		c-0.1,0-0.2,0-0.3-0.1C33,8.1,32.9,8,32.9,7.9c0-0.1,0-0.2,0.1-0.3c0.1-0.1,0.2-0.1,0.3-0.1c0.1,0,0.3,0,0.3,0.1
		C33.8,7.6,33.9,7.7,33.9,7.9"/>
	<path class="st2" d="M38.6,9.3v4.7h-4c-0.1,0-0.3,0-0.4-0.1c-0.1-0.1-0.1-0.2-0.1-0.2c0-0.1,0-0.2,0.1-0.2c0.1-0.1,0.2-0.1,0.4-0.1
		h1c-0.1-0.2-0.3-0.3-0.3-0.6c-0.1-0.2-0.1-0.5-0.1-0.8c0-0.5,0.1-0.9,0.4-1.2c0.3-0.3,0.6-0.6,1-0.8c0.4-0.2,0.8-0.4,1.2-0.4
		C38,9.4,38.3,9.4,38.6,9.3 M37.8,10.2c-0.2,0-0.4,0.1-0.6,0.2c-0.2,0.1-0.4,0.2-0.7,0.3c-0.2,0.1-0.4,0.3-0.5,0.5
		c-0.1,0.2-0.2,0.4-0.2,0.7c0,0.5,0.2,0.9,0.5,1.1c0.3,0.2,0.8,0.3,1.5,0.3V10.2z"/>
	<path class="st2" d="M44.5,13.3v0.7h-1.4v-0.7c-0.2,0.2-0.5,0.4-0.7,0.5c-0.3,0.1-0.5,0.2-0.8,0.3c-0.3,0.1-0.5,0.1-0.8,0.1
		c-0.3,0-0.5,0-0.7,0h-0.4v-0.7h0.2c0.1,0,0.3,0,0.4,0c0.2,0,0.3,0,0.5,0c0.2,0,0.4-0.1,0.6-0.1c0.2,0,0.4-0.1,0.6-0.2
		c-0.2-0.7-0.5-1.3-0.7-1.9c-0.3-0.6-0.5-1.1-0.8-1.6c-0.3-0.5-0.6-0.9-0.8-1.2c-0.3-0.4-0.5-0.7-0.8-0.9l0.6-0.5
		c0.2,0.3,0.5,0.6,0.8,1c0.3,0.4,0.6,0.8,0.8,1.3c0.3,0.5,0.6,1,0.8,1.6c0.3,0.6,0.5,1.2,0.7,1.9c0.3-0.4,0.5-0.8,0.5-1.5V6.7h0.7
		v6.6H44.5z"/>
	<path class="st2" d="M50.5,13.3v0.7h-6c-0.1,0-0.3,0-0.4-0.1C44,13.8,44,13.8,44,13.7c0-0.1,0-0.2,0.1-0.2c0.1-0.1,0.2-0.1,0.4-0.1
		h0.2c0.3,0,0.5,0,0.6-0.1c0.1-0.1,0.1-0.2,0.1-0.3V9.7h0.8v3.6h1.2V9.7H48v3.6h1.1V9.7h0.8v3.6H50.5z"/>
	<path class="st2" d="M51.2,6.7h0.7v7.4h-1.4c-0.1,0-0.3,0-0.4-0.1c-0.1-0.1-0.1-0.2-0.1-0.2c0-0.1,0-0.2,0.1-0.2
		c0.1-0.1,0.2-0.1,0.4-0.1h0.6V6.7z"/>
	<rect x="53.1" y="6.7" class="st2" width="0.7" height="7.3"/>
	<path class="st2" d="M58.4,14.4c0,0.3,0,0.7-0.1,1c-0.1,0.3-0.1,0.6-0.3,0.8c-0.1,0.2-0.3,0.4-0.6,0.6c-0.3,0.2-0.6,0.2-1,0.2v-0.7
		c0.3,0,0.5-0.1,0.7-0.2c0.2-0.1,0.3-0.3,0.4-0.5c0.1-0.2,0.1-0.4,0.1-0.7c0-0.3,0-0.5,0-0.8v-0.2h-0.4c-0.8,0-1.4-0.2-1.8-0.5
		c-0.4-0.3-0.6-0.8-0.6-1.3c0-0.4,0.1-0.8,0.3-1.1c0.2-0.3,0.4-0.6,0.7-0.9c0.3-0.3,0.7-0.5,1.1-0.6c0.4-0.2,0.9-0.3,1.4-0.3V14.4z
		 M57.6,13.3v-3.2c-0.6,0.2-1.1,0.4-1.5,0.8c-0.4,0.4-0.6,0.8-0.6,1.3c0,0.4,0.1,0.6,0.4,0.8c0.3,0.2,0.7,0.3,1.4,0.3H57.6z"/>
	<path class="st2" d="M65.2,13.1c0,0.1,0.1,0.2,0.2,0.2h0.5v0.7h-0.6c-0.2,0-0.4-0.1-0.6-0.2c-0.1-0.2-0.2-0.4-0.2-0.7l0-3
		c-0.2,0.1-0.4,0.2-0.6,0.3c-0.2,0.1-0.4,0.3-0.7,0.5c-0.2,0.2-0.4,0.4-0.5,0.6c-0.1,0.2-0.2,0.5-0.2,0.8c0,0.4,0.1,0.7,0.4,0.9
		c0.3,0.2,0.7,0.3,1.2,0.3L64,14.2c-0.5,0-0.9-0.1-1.2-0.2c-0.3-0.1-0.5-0.3-0.7-0.5c-0.2-0.2-0.3-0.4-0.3-0.6
		c-0.1-0.2-0.1-0.4-0.1-0.6c0-0.5,0.1-1,0.4-1.3c0.3-0.4,0.6-0.7,1-1c0.4-0.3,0.8-0.5,1.2-0.6c0.4-0.2,0.7-0.3,0.9-0.3V13.1z
		 M63.5,7.9c0,0.1,0,0.2-0.1,0.3c-0.1,0.1-0.2,0.1-0.3,0.1c-0.1,0-0.2,0-0.3-0.1c-0.1-0.1-0.1-0.2-0.1-0.3c0-0.1,0-0.2,0.1-0.3
		c0.1-0.1,0.2-0.1,0.3-0.1c0.1,0,0.2,0,0.3,0.1C63.5,7.6,63.5,7.7,63.5,7.9 M65.1,7.9c0,0.1-0.1,0.2-0.1,0.3
		c-0.1,0.1-0.2,0.1-0.3,0.1c-0.1,0-0.2,0-0.3-0.1c-0.1-0.1-0.1-0.2-0.1-0.3c0-0.1,0-0.2,0.1-0.3c0.1-0.1,0.2-0.1,0.3-0.1
		c0.1,0,0.2,0,0.3,0.1C65.1,7.6,65.1,7.7,65.1,7.9"/>
	<path class="st2" d="M70.1,13.3v0.7h-4.2c-0.1,0-0.3,0-0.4-0.1c-0.1-0.1-0.1-0.2-0.1-0.2c0-0.1,0-0.2,0.1-0.2
		c0.1-0.1,0.2-0.1,0.4-0.1h1.3c-0.2-0.1-0.3-0.3-0.5-0.5c-0.2-0.2-0.3-0.5-0.3-0.9c0-0.3,0.1-0.7,0.2-1c0.2-0.3,0.4-0.6,0.7-0.8
		c0.3-0.2,0.7-0.4,1.1-0.6c0.5-0.2,1-0.3,1.6-0.3v1.6h-0.7v-0.7c-0.7,0.1-1.2,0.3-1.6,0.7c-0.4,0.4-0.6,0.8-0.6,1.2
		c0,0,0,0.1,0.1,0.3c0,0.2,0.1,0.3,0.3,0.5c0.2,0.2,0.5,0.3,0.8,0.4c0.4,0.1,0.9,0.2,1.6,0.2H70.1z"/>
	<rect x="71.1" y="6.7" class="st2" width="0.7" height="7.3"/>
	<path class="st2" d="M73.9,14.4c0,0.3,0,0.6-0.1,0.9c0,0.3-0.1,0.6-0.3,0.9c-0.1,0.3-0.3,0.5-0.6,0.6c-0.3,0.2-0.6,0.2-1,0.2v-0.7
		c0.3,0,0.5-0.1,0.7-0.2c0.2-0.1,0.3-0.3,0.4-0.4c0.1-0.2,0.1-0.4,0.1-0.6c0-0.2,0-0.5,0-0.7V9.8h0.7V14.4z"/>
	<path class="st2" d="M76.1,14.4c0,0.3,0,0.6-0.1,0.9c0,0.3-0.1,0.6-0.3,0.9c-0.1,0.3-0.3,0.5-0.6,0.6c-0.3,0.2-0.6,0.2-1,0.2v-0.7
		c0.3,0,0.5-0.1,0.7-0.2c0.2-0.1,0.3-0.3,0.4-0.4c0.1-0.2,0.1-0.4,0.2-0.6c0-0.2,0-0.5,0-0.7V9.8h0.7v3.6h0.6v0.7h-0.6V14.4z
		 M76.2,8.1c0,0.1,0,0.2-0.1,0.3c-0.1,0.1-0.2,0.1-0.3,0.1c-0.1,0-0.2,0-0.3-0.1c-0.1-0.1-0.1-0.2-0.1-0.3c0-0.1,0-0.2,0.1-0.3
		c0.1-0.1,0.2-0.1,0.3-0.1c0.1,0,0.2,0,0.3,0.1C76.2,7.9,76.2,8,76.2,8.1"/>
	<path class="st2" d="M77.4,6.7h0.7v6.6h0.6v0.7h-2c-0.1,0-0.3,0-0.4-0.1c-0.1-0.1-0.1-0.2-0.1-0.2c0-0.1,0-0.2,0.1-0.2
		c0.1-0.1,0.2-0.1,0.4-0.1h0.6V6.7z"/>
	<path class="st2" d="M79.4,6.7h0.7v7.4h-1.4c-0.1,0-0.3,0-0.4-0.1c-0.1-0.1-0.1-0.2-0.1-0.2c0-0.1,0-0.2,0.1-0.2
		c0.1-0.1,0.2-0.1,0.4-0.1h0.6V6.7z"/>
	<path class="st2" d="M89.5,13.3v0.7h-0.7l-1.3-4.2c-0.2,0.1-0.4,0.2-0.5,0.3c-0.1,0.1-0.3,0.3-0.4,0.4c-0.1,0.2-0.2,0.3-0.2,0.5
		c0,0.2-0.1,0.3-0.1,0.5c0,0.4,0.1,0.7,0.4,1c0.3,0.3,0.6,0.6,0.9,0.8c0.1,0.1,0.2,0.1,0.2,0.1c0.1,0,0.1,0.1,0.1,0.1l0.2,0.3
		c0,0.2-0.1,0.5-0.1,0.7c-0.1,0.3-0.2,0.5-0.4,0.7c-0.2,0.2-0.5,0.4-0.8,0.6c-0.3,0.2-0.7,0.2-1.2,0.2c-0.2,0-0.5,0-0.7-0.1
		c-0.3-0.1-0.5-0.2-0.7-0.4c-0.2-0.2-0.4-0.4-0.5-0.6c-0.1-0.2-0.2-0.5-0.2-0.9v-0.9H84v0.9c0,0.2,0,0.4,0.1,0.6
		c0.1,0.2,0.2,0.3,0.4,0.4c0.1,0.1,0.3,0.2,0.5,0.2c0.2,0,0.3,0.1,0.5,0.1c0.4,0,0.7-0.1,0.9-0.2c0.2-0.1,0.4-0.2,0.6-0.4
		c0.1-0.1,0.2-0.3,0.3-0.5c0.1-0.2,0.1-0.3,0.1-0.4l0-0.1c-0.1-0.1-0.3-0.2-0.5-0.4c-0.2-0.1-0.4-0.3-0.6-0.5
		c-0.2-0.2-0.3-0.4-0.5-0.7c-0.1-0.3-0.2-0.6-0.2-0.9c0-0.3,0-0.6,0.2-0.9c0.1-0.3,0.3-0.5,0.5-0.8c0.2-0.2,0.5-0.4,0.8-0.6
		c0.3-0.2,0.6-0.3,1-0.3l1.4,4.3H89.5z M85.1,17.4c0,0.1,0,0.2-0.1,0.3c-0.1,0.1-0.2,0.1-0.3,0.1c-0.1,0-0.2,0-0.3-0.1
		c-0.1-0.1-0.1-0.2-0.1-0.3c0-0.1,0-0.2,0.1-0.3c0.1-0.1,0.2-0.1,0.3-0.1c0.1,0,0.2,0,0.3,0.1C85,17.2,85.1,17.3,85.1,17.4
		 M86.7,17.4c0,0.1,0,0.2-0.1,0.3c-0.1,0.1-0.2,0.1-0.3,0.1c-0.1,0-0.2,0-0.3-0.1c-0.1-0.1-0.1-0.2-0.1-0.3c0-0.1,0-0.2,0.1-0.3
		c0.1-0.1,0.2-0.1,0.3-0.1c0.1,0,0.2,0,0.3,0.1C86.6,17.2,86.7,17.3,86.7,17.4"/>
	<path class="st2" d="M90.3,13.3V9.8h0.7v3.6h0.6v0.7h-2.3c-0.1,0-0.3,0-0.4-0.1C89,13.8,89,13.8,89,13.7c0-0.1,0-0.2,0.1-0.2
		c0.1-0.1,0.2-0.1,0.4-0.1H90.3z M90.2,15.6c0-0.1,0-0.2,0.1-0.3c0.1-0.1,0.2-0.1,0.3-0.1c0.1,0,0.2,0,0.3,0.1
		c0.1,0.1,0.1,0.2,0.1,0.3c0,0.1,0,0.2-0.1,0.3C90.9,16,90.8,16,90.7,16c-0.1,0-0.3,0-0.3-0.1C90.3,15.8,90.2,15.7,90.2,15.6"/>
	<path class="st2" d="M91.7,14.1c-0.1,0-0.3,0-0.4-0.1c-0.1-0.1-0.1-0.2-0.1-0.2c0-0.1,0-0.2,0.1-0.2c0.1-0.1,0.2-0.1,0.4-0.1h0.7
		V6.7h0.7v5c0.2-0.3,0.4-0.6,0.7-0.8c0.3-0.3,0.6-0.5,1-0.8c0.4-0.2,0.9-0.4,1.4-0.6c0.5-0.1,1.1-0.2,1.8-0.2h0.4v4.7H91.7z
		 M97.8,10.1c-0.9,0.1-1.6,0.2-2.1,0.5c-0.6,0.3-1,0.6-1.4,0.9c-0.3,0.3-0.6,0.7-0.8,1c-0.2,0.3-0.3,0.6-0.3,0.8h4.6V10.1z
		 M95.3,8.3c0,0.1,0,0.2-0.1,0.3c-0.1,0.1-0.2,0.1-0.3,0.1c-0.1,0-0.2,0-0.3-0.1c-0.1-0.1-0.1-0.2-0.1-0.3c0-0.1,0-0.2,0.1-0.3
		c0.1-0.1,0.2-0.1,0.3-0.1c0.1,0,0.2,0,0.3,0.1C95.2,8.1,95.3,8.2,95.3,8.3"/>
	<path class="st2" d="M103.1,14.4c0,0.3,0,0.7-0.1,1c0,0.3-0.1,0.6-0.3,0.8c-0.1,0.2-0.3,0.4-0.6,0.6c-0.3,0.2-0.6,0.2-1,0.2v-0.7
		c0.3,0,0.5-0.1,0.7-0.2c0.2-0.1,0.3-0.3,0.4-0.5c0.1-0.2,0.1-0.4,0.1-0.7c0-0.3,0-0.5,0-0.8v-0.2h-0.3c-0.9,0-1.5-0.2-1.9-0.5
		c-0.4-0.3-0.7-0.8-0.7-1.3c0-0.4,0.1-0.8,0.3-1.1c0.2-0.3,0.4-0.6,0.7-0.9c0.3-0.3,0.7-0.5,1.1-0.6c0.4-0.2,0.9-0.3,1.4-0.3v4.1
		h0.6v0.7h-0.6V14.4z M102.4,13.3v-3.2c-0.6,0.2-1.1,0.4-1.5,0.8c-0.4,0.4-0.6,0.8-0.6,1.3c0,0.4,0.1,0.6,0.4,0.8
		c0.3,0.2,0.7,0.3,1.4,0.3H102.4z"/>
	<path class="st2" d="M104.6,13.3V9.8h0.7v4.3h-1.6c-0.1,0-0.3,0-0.4-0.1c-0.1-0.1-0.1-0.2-0.1-0.2c0-0.1,0-0.2,0.1-0.2
		c0.1-0.1,0.2-0.1,0.4-0.1H104.6z M104.5,15.6c0-0.1,0-0.2,0.1-0.3c0.1-0.1,0.2-0.1,0.3-0.1c0.1,0,0.2,0,0.3,0.1
		c0.1,0.1,0.1,0.2,0.1,0.3c0,0.1,0,0.2-0.1,0.3c-0.1,0.1-0.2,0.1-0.3,0.1c-0.1,0-0.2,0-0.3-0.1C104.6,15.8,104.5,15.7,104.5,15.6"/>
	<path class="st2" d="M107.9,5.6c-0.2-0.1-0.4-0.1-0.6-0.1c-0.1,0-0.2,0-0.3,0.1s-0.1,0.1-0.1,0.3c0,0.2,0.1,0.3,0.2,0.4
		c0.1,0.1,0.3,0.1,0.5,0.1h0.4v0.4H106V6.3h0.6c0,0-0.1-0.1-0.1-0.2c0-0.1-0.1-0.2-0.1-0.3c0-0.3,0.1-0.4,0.2-0.5
		c0.2-0.1,0.3-0.2,0.5-0.2c0.3,0,0.5,0.1,0.8,0.2L107.9,5.6z M106.6,7.3h0.7v6.8h-0.7V7.3z"/>
	<path class="st2" d="M114.2,13.1c0,0.1,0.1,0.2,0.2,0.2h0.5v0.7h-0.6c-0.2,0-0.4-0.1-0.6-0.2c-0.2-0.2-0.2-0.4-0.2-0.7l0-3
		c-0.2,0.1-0.4,0.2-0.6,0.3c-0.2,0.1-0.4,0.3-0.7,0.5c-0.2,0.2-0.4,0.4-0.5,0.6c-0.1,0.2-0.2,0.5-0.2,0.8c0,0.4,0.1,0.7,0.4,0.9
		c0.3,0.2,0.7,0.3,1.2,0.3l-0.1,0.7c-0.5,0-0.9-0.1-1.2-0.2c-0.3-0.1-0.5-0.3-0.7-0.5c-0.2-0.2-0.3-0.4-0.3-0.6
		c-0.1-0.2-0.1-0.4-0.1-0.6c0-0.5,0.1-1,0.4-1.3c0.3-0.4,0.6-0.7,1-1c0.4-0.3,0.8-0.5,1.2-0.6c0.4-0.2,0.7-0.3,0.9-0.3V13.1z
		 M112.6,7.9c0,0.1,0,0.2-0.1,0.3c-0.1,0.1-0.2,0.1-0.3,0.1c-0.1,0-0.2,0-0.3-0.1c-0.1-0.1-0.1-0.2-0.1-0.3c0-0.1,0-0.2,0.1-0.3
		c0.1-0.1,0.2-0.1,0.3-0.1c0.1,0,0.2,0,0.3,0.1C112.5,7.6,112.6,7.7,112.6,7.9 M114.2,7.9c0,0.1,0,0.2-0.1,0.3
		c-0.1,0.1-0.2,0.1-0.3,0.1c-0.1,0-0.2,0-0.3-0.1c-0.1-0.1-0.1-0.2-0.1-0.3c0-0.1,0-0.2,0.1-0.3c0.1-0.1,0.2-0.1,0.3-0.1
		c0.1,0,0.2,0,0.3,0.1C114.2,7.6,114.2,7.7,114.2,7.9"/>
	<path class="st2" d="M114.9,14.1c-0.1,0-0.3,0-0.4-0.1c-0.1-0.1-0.1-0.2-0.1-0.2c0-0.1,0-0.2,0.1-0.2c0.1-0.1,0.2-0.1,0.4-0.1h1.4
		V9.8h0.8v3.6h0.6v0.7H114.9z M117.2,8c-0.2-0.1-0.4-0.1-0.6-0.1c-0.1,0-0.2,0-0.3,0.1c-0.1,0-0.1,0.1-0.1,0.3
		c0,0.2,0.1,0.3,0.2,0.4c0.1,0.1,0.3,0.1,0.5,0.1h0.4v0.4h-1.9V8.7h0.6c0,0-0.1-0.1-0.1-0.2c0-0.1-0.1-0.2-0.1-0.3
		c0-0.3,0.1-0.4,0.2-0.5c0.2-0.1,0.3-0.2,0.5-0.2c0.3,0,0.5,0.1,0.8,0.2L117.2,8z"/>
	<path class="st2" d="M117.7,14.1c-0.1,0-0.3,0-0.4-0.1c-0.1-0.1-0.1-0.2-0.1-0.2c0-0.1,0-0.2,0.1-0.2c0.1-0.1,0.2-0.1,0.4-0.1h1.9
		V9.8h0.8v3.6h0.6v0.7H117.7z M118.5,16c-0.1,0-0.2,0-0.3-0.1c-0.1-0.1-0.1-0.2-0.1-0.3c0-0.1,0-0.2,0.1-0.3
		c0.1-0.1,0.2-0.1,0.3-0.1c0.1,0,0.2,0,0.3,0.1c0.1,0.1,0.1,0.2,0.1,0.3c0,0.1,0,0.2-0.1,0.3C118.8,16,118.7,16,118.5,16 M120,16
		c-0.1,0-0.2,0-0.3-0.1c-0.1-0.1-0.1-0.2-0.1-0.3c0-0.1,0-0.2,0.1-0.3c0.1-0.1,0.2-0.1,0.3-0.1c0.1,0,0.2,0,0.3,0.1
		c0.1,0.1,0.1,0.2,0.1,0.3c0,0.1,0,0.2-0.1,0.3C120.3,16,120.1,16,120,16"/>
	<path class="st2" d="M121.1,14.1c-0.1,0-0.3,0-0.4-0.1c-0.1-0.1-0.1-0.2-0.1-0.2c0-0.1,0-0.2,0.1-0.2c0.1-0.1,0.2-0.1,0.4-0.1h1
		c-0.3-0.3-0.4-0.6-0.4-1.1c0-0.2,0-0.4,0.1-0.6c0.1-0.2,0.2-0.4,0.4-0.5c0.2-0.2,0.4-0.3,0.6-0.4c0.2-0.1,0.5-0.1,0.9-0.1
		c0.1,0,0.3,0,0.4,0c0.2,0,0.3,0,0.4,0.1c0.1,0,0.3,0.1,0.4,0.1c0.1,0.1,0.2,0.1,0.2,0.2v2.4h0.6V9.8c-0.1,0-0.3-0.1-0.5-0.1
		c-0.2,0-0.4,0-0.6,0c-0.4,0-0.7,0.1-1.1,0.2c-0.4,0.1-0.6,0.4-0.8,0.7l-0.6-0.4c0.1-0.3,0.3-0.5,0.5-0.6c0.2-0.2,0.4-0.3,0.7-0.4
		c0.2-0.1,0.5-0.2,0.7-0.2c0.2,0,0.5-0.1,0.7-0.1c0.1,0,0.3,0,0.4,0c0.2,0,0.3,0,0.5,0.1c0.2,0,0.3,0.1,0.5,0.1
		c0.2,0,0.3,0.1,0.4,0.1v4.8H121.1z M122.4,12.3c0,0.4,0.1,0.6,0.4,0.8c0.3,0.1,0.7,0.2,1.4,0.3v-2c-0.1,0-0.2,0-0.3,0
		c-0.1,0-0.2,0-0.3,0c-0.4,0-0.7,0.1-0.9,0.3C122.5,11.7,122.4,12,122.4,12.3"/>
</g>
</svg>
