<?xml version="1.0" encoding="utf-8"?>
<!-- Generator: Adobe Illustrator 25.4.1, SVG Export Plug-In . SVG Version: 6.00 Build 0)  -->
<svg version="1.1" id="Layer_1" xmlns="http://www.w3.org/2000/svg" xmlns:xlink="http://www.w3.org/1999/xlink" x="0px" y="0px"
	 viewBox="0 0 373.2 90.1" style="enable-background:new 0 0 373.2 90.1;" xml:space="preserve">
<style type="text/css">
	.st0{fill:#5B6571;}
	.st1{fill:none;stroke:#5B6571;stroke-width:6;stroke-miterlimit:10;}
</style>
<g>
	<path class="st0" d="M77.3,75.9l4.5-0.4c0.3,1.5,0.8,2.6,1.7,3.4c0.8,0.7,2,1.1,3.4,1.1c1.5,0,2.6-0.3,3.4-1
		c0.8-0.6,1.1-1.4,1.1-2.2c0-0.5-0.2-1-0.5-1.4s-0.9-0.7-1.7-1c-0.5-0.2-1.8-0.5-3.7-1c-2.5-0.6-4.3-1.4-5.3-2.3
		c-1.4-1.3-2.1-2.8-2.1-4.7c0-1.2,0.3-2.3,1-3.3c0.7-1,1.6-1.8,2.9-2.3c1.3-0.5,2.8-0.8,4.6-0.8c2.9,0,5.1,0.6,6.6,1.9
		c1.5,1.3,2.2,3,2.3,5.1l-4.7,0.2c-0.2-1.2-0.6-2-1.3-2.6c-0.7-0.5-1.6-0.8-3-0.8c-1.4,0-2.4,0.3-3.2,0.8c-0.5,0.4-0.7,0.8-0.7,1.4
		c0,0.5,0.2,1,0.7,1.4c0.6,0.5,2,1,4.3,1.5c2.3,0.5,4,1.1,5,1.7c1.1,0.6,1.9,1.4,2.6,2.4c0.6,1,0.9,2.2,0.9,3.7
		c0,1.3-0.4,2.6-1.1,3.7c-0.7,1.2-1.8,2-3.1,2.6s-3,0.8-5,0.8c-2.9,0-5.2-0.7-6.7-2C78.5,80.5,77.6,78.5,77.3,75.9z"/>
	<path class="st0" d="M100,83.4V60.3h17.1v3.9h-12.5v5.1h11.6v3.9h-11.6v6.3h12.9v3.9H100z"/>
	<path class="st0" d="M121.7,83.4V60.5h4.7v19h11.6v3.9H121.7z"/>
	<path class="st0" d="M141.3,83.4V60.3h15.9v3.9H146v5.5h9.7v3.9H146v9.8H141.3z"/>
	<path class="st0" d="M169.8,83.4V60.3h4.7v23.1H169.8z"/>
	<path class="st0" d="M179,83.4V60.3h4.5l9.5,15.4V60.3h4.3v23.1h-4.7l-9.3-15.1v15.1H179z"/>
	<path class="st0" d="M201.1,75.9l4.5-0.4c0.3,1.5,0.8,2.6,1.7,3.4c0.8,0.7,2,1.1,3.4,1.1c1.5,0,2.6-0.3,3.4-1
		c0.8-0.6,1.1-1.4,1.1-2.2c0-0.5-0.2-1-0.5-1.4c-0.3-0.4-0.9-0.7-1.7-1c-0.5-0.2-1.8-0.5-3.7-1c-2.5-0.6-4.3-1.4-5.3-2.3
		c-1.4-1.3-2.1-2.8-2.1-4.7c0-1.2,0.3-2.3,1-3.3s1.6-1.8,2.9-2.3c1.3-0.5,2.8-0.8,4.6-0.8c2.9,0,5.1,0.6,6.6,1.9s2.2,3,2.3,5.1
		l-4.7,0.2c-0.2-1.2-0.6-2-1.3-2.6s-1.6-0.8-3-0.8c-1.4,0-2.4,0.3-3.2,0.8c-0.5,0.4-0.7,0.8-0.7,1.4c0,0.5,0.2,1,0.7,1.4
		c0.6,0.5,2,1,4.3,1.5s4,1.1,5,1.7c1.1,0.6,1.9,1.4,2.6,2.4c0.6,1,0.9,2.2,0.9,3.7c0,1.3-0.4,2.6-1.1,3.7c-0.7,1.2-1.8,2-3.1,2.6
		c-1.3,0.6-3,0.8-5,0.8c-2.9,0-5.2-0.7-6.7-2C202.3,80.5,201.4,78.5,201.1,75.9z"/>
	<path class="st0" d="M223.8,83.4V60.3h7.5c2.8,0,4.7,0.1,5.6,0.3c1.3,0.3,2.4,1.1,3.3,2.3c0.9,1.2,1.3,2.7,1.3,4.5
		c0,1.4-0.3,2.6-0.8,3.6s-1.2,1.7-2,2.3s-1.6,0.9-2.4,1.1c-1.1,0.2-2.7,0.3-4.8,0.3h-3v8.7H223.8z M228.5,64.2v6.6h2.6
		c1.8,0,3.1-0.1,3.7-0.4c0.6-0.2,1.1-0.6,1.5-1.1c0.4-0.5,0.5-1.1,0.5-1.8c0-0.8-0.2-1.5-0.7-2.1c-0.5-0.5-1.1-0.9-1.9-1
		c-0.6-0.1-1.7-0.2-3.4-0.2H228.5z"/>
	<path class="st0" d="M245.4,83.4V60.3h17.1v3.9h-12.5v5.1h11.6v3.9h-11.6v6.3H263v3.9H245.4z"/>
	<path class="st0" d="M281.7,74.9l4.5,1.4c-0.7,2.5-1.8,4.4-3.5,5.6c-1.6,1.2-3.7,1.8-6.1,1.8c-3.1,0-5.6-1-7.6-3.1
		c-2-2.1-3-5-3-8.6c0-3.8,1-6.8,3-9c2-2.1,4.6-3.2,7.8-3.2c2.8,0,5.1,0.8,6.9,2.5c1.1,1,1.8,2.4,2.4,4.3l-4.6,1.1
		c-0.3-1.2-0.8-2.1-1.7-2.8c-0.9-0.7-1.9-1-3.2-1c-1.7,0-3.1,0.6-4.2,1.8s-1.6,3.2-1.6,6c0,2.9,0.5,5,1.6,6.2s2.4,1.9,4.1,1.9
		c1.2,0,2.3-0.4,3.2-1.2C280.7,77.9,281.3,76.6,281.7,74.9z"/>
	<path class="st0" d="M295.5,83.4V64.2h-6.9v-3.9H307v3.9h-6.8v19.2H295.5z"/>
	<path class="st0" d="M309.9,83.4V60.3h4.7v23.1H309.9z"/>
	<path class="st0" d="M318,72c0-2.4,0.4-4.3,1.1-5.9c0.5-1.2,1.2-2.2,2.2-3.2c0.9-0.9,1.9-1.6,3-2.1c1.4-0.6,3.1-0.9,5-0.9
		c3.4,0,6.1,1.1,8.2,3.2c2,2.1,3.1,5.1,3.1,8.8c0,3.7-1,6.7-3,8.8c-2,2.1-4.7,3.2-8.1,3.2c-3.4,0-6.2-1-8.2-3.1
		C319,78.6,318,75.7,318,72z M322.8,71.8c0,2.6,0.6,4.6,1.8,6c1.2,1.4,2.7,2,4.6,2s3.4-0.7,4.6-2s1.8-3.4,1.8-6
		c0-2.6-0.6-4.6-1.7-5.9c-1.2-1.3-2.7-2-4.6-2s-3.5,0.7-4.7,2C323.4,67.2,322.8,69.2,322.8,71.8z"/>
	<path class="st0" d="M344.2,83.4V60.3h4.5l9.5,15.4V60.3h4.3v23.1h-4.7l-9.3-15.1v15.1H344.2z"/>
</g>
<path class="st0" d="M55.8,60.1c-0.1,0.2-0.1,0.4,0,0.5c0.2,0.5,0.4,1.1,0.6,1.6c0.1,0.2,0.1,0.4,0,0.7c-3.4,7.3-6.8,14.6-10.2,21.9
	c-0.2,0.4-0.4,0.9-0.6,1.3c-2.1-1-4.2-2-6.3-3c0-0.1,0.1-0.2,0.2-0.3c0.6-1.2,1.1-2.4,1.7-3.7c3-6.4,5.9-12.7,8.9-19.1
	c0.1-0.3,0.3-0.5,0.6-0.6c0.6-0.2,1.1-0.4,1.7-0.6c0.1,0,0.2-0.1,0.3-0.2c0.3-0.5,0.5-1.1,0.8-1.6c-9.9-5.6-13.1-18.4-7.5-27.9
	c5.3-9.1,16.9-12.8,26.4-8.3c9.6,4.5,14.1,15.7,10.4,25.6c-3.8,10.3-15.5,15.8-26.1,12C56.2,59,56,59.5,55.8,60.1z M77,34
	c-2.9-7.5-11.2-11.1-18.8-8.2c-7.4,2.9-11.4,11.2-8.2,19c3,7.3,10.9,10.9,18.5,8.1C76.3,50.1,80,41.6,77,34z"/>
<path class="st1" d="M19.2,29.1c0,0,40-42,87,2c0,0-33,32-48,25"/>
</svg>
